<?xml version="1.0" encoding="utf-8"?>
<!-- Generator: Adobe Illustrator 22.1.0, SVG Export Plug-In . SVG Version: 6.00 Build 0)  -->
<svg version="1.1" id="Layer_1" xmlns="http://www.w3.org/2000/svg" xmlns:xlink="http://www.w3.org/1999/xlink" x="0px" y="0px"
	 viewBox="0 0 360 360" style="enable-background:new 0 0 360 360;" xml:space="preserve">
<style type="text/css">
	.st0{fill:#F1F2F2;}
	.st1{fill:#939598;}
</style>
<g>
	<path d="M320.4,360.1H39.6c-21.9,0-39.6-17.7-39.6-39.6V39.6c0-21.9,17.7-39.6,39.6-39.6h280.9c21.9,0,39.6,17.7,39.6,39.6v280.9
		C360.1,342.3,342.3,360.1,320.4,360.1z"/>
	<g>
		<g>
			<g>
				<polygon class="st0" points="259.7,137 248,164 299.3,281.5 60.8,281.5 135.7,108.6 171.2,190.1 191.8,142.4 224.7,217.7 
					271.4,110.1 247.9,110.2 224.7,163.8 191.9,88.6 171.2,136.4 135.6,54.9 27.1,305.2 333.1,305.2 				"/>
			</g>
		</g>
		<g>
			<g>
				<polygon class="st1" points="259.8,191.1 271.5,164 259.8,137.1 248.1,164 				"/>
			</g>
		</g>
	</g>
</g>
</svg>
