<?xml version="1.0" encoding="utf-8"?>
<!-- Generator: Adobe Illustrator 22.1.0, SVG Export Plug-In . SVG Version: 6.00 Build 0)  -->
<svg version="1.1" id="Layer_1" xmlns="http://www.w3.org/2000/svg" xmlns:xlink="http://www.w3.org/1999/xlink" x="0px" y="0px"
	 viewBox="0 0 360 216" style="enable-background:new 0 0 360 216;" xml:space="preserve">
<style type="text/css">
	.st0{opacity:0.85;}
	.st1{fill:#F1F2F2;}
</style>
<path class="st0" d="M302.1,48.7H57.9C26.2,48.7,0.4,75.3,0.4,108v0c0,32.7,25.7,59.3,57.5,59.3h244.1c31.8,0,57.5-26.5,57.5-59.3v0
	C359.6,75.3,333.8,48.7,302.1,48.7L302.1,48.7z"/>
<path class="st1" d="M299.5,56.8c28.2,0,51.2,23,51.2,51.2c0,28.2-23,51.2-51.2,51.2h-239c-28.2,0-51.2-23-51.2-51.2
	c0-28.2,23-51.2,51.2-51.2H299.5 M299.5,51.7h-239C29.4,51.7,4.2,76.9,4.2,108v0c0,31.1,25.2,56.3,56.3,56.3h239
	c31.1,0,56.3-25.2,56.3-56.3v0C355.8,76.9,330.6,51.7,299.5,51.7L299.5,51.7z"/>
<g>
	<g>
		<path class="st1" d="M47.9,114.8H37.7l-2.3,7.9h-3.9l9.7-30.1h3.2l9.7,30.1h-3.9L47.9,114.8z M38.7,111.6h8.2l-4.1-13.7
			L38.7,111.6z"/>
		<path class="st1" d="M58.2,122.7V92.6h7.2c3.5,0,6.2,1.1,8.2,3.3c1.9,2.2,2.9,5.3,2.9,9.3v5c0,4-1,7.1-3,9.2
			c-2,2.2-4.8,3.3-8.6,3.3H58.2z M62,95.9v23.6h3c2.7,0,4.6-0.8,5.8-2.3c1.2-1.5,1.9-3.8,1.9-6.8v-5.3c0-3.2-0.6-5.5-1.8-7
			c-1.2-1.5-3.1-2.2-5.5-2.2H62z"/>
		<path class="st1" d="M82.4,122.7V92.6h7.2c3.5,0,6.2,1.1,8.2,3.3c1.9,2.2,2.9,5.3,2.9,9.3v5c0,4-1,7.1-3,9.2
			c-2,2.2-4.8,3.3-8.6,3.3H82.4z M86.2,95.9v23.6h3c2.7,0,4.6-0.8,5.8-2.3c1.2-1.5,1.9-3.8,1.9-6.8v-5.3c0-3.2-0.6-5.5-1.8-7
			c-1.2-1.5-3.1-2.2-5.5-2.2H86.2z"/>
		<path class="st1" d="M133,95.9h-7.9v26.8h-3.8V95.9h-7.9v-3.2H133V95.9z"/>
		<path class="st1" d="M156.4,110.3c0,4.1-0.9,7.3-2.6,9.5c-1.7,2.2-4.2,3.3-7.5,3.3c-3.1,0-5.5-1.1-7.3-3.2
			c-1.8-2.2-2.7-5.2-2.8-9.1v-5.7c0-4,0.9-7.2,2.7-9.4c1.8-2.3,4.3-3.4,7.4-3.4c3.2,0,5.6,1.1,7.4,3.3c1.8,2.2,2.7,5.3,2.7,9.3
			V110.3z M152.6,105.1c0-3.2-0.5-5.5-1.6-7.1c-1-1.5-2.6-2.3-4.8-2.3c-2.1,0-3.7,0.8-4.7,2.4c-1.1,1.6-1.6,3.9-1.6,6.9v5.4
			c0,3.1,0.5,5.4,1.6,7c1.1,1.6,2.7,2.4,4.8,2.4c2.1,0,3.7-0.7,4.7-2.2c1-1.5,1.5-3.8,1.6-6.8V105.1z"/>
		<path class="st1" d="M190.8,113.1c-0.2,3.2-1.1,5.7-2.7,7.4c-1.6,1.7-4,2.6-7,2.6c-3,0-5.4-1.1-7.2-3.4c-1.8-2.3-2.7-5.4-2.7-9.3
			v-5.5c0-3.9,0.9-7,2.7-9.3c1.8-2.3,4.3-3.4,7.5-3.4c2.9,0,5.2,0.9,6.7,2.6c1.6,1.7,2.5,4.2,2.6,7.5H187c-0.2-2.5-0.7-4.2-1.5-5.2
			c-0.9-1-2.2-1.6-4-1.6c-2.1,0-3.6,0.8-4.7,2.4c-1.1,1.6-1.7,4-1.7,7.1v5.5c0,3,0.5,5.4,1.5,7c1,1.6,2.5,2.4,4.5,2.4
			c2,0,3.4-0.5,4.3-1.5c0.9-1,1.4-2.7,1.6-5.3H190.8z"/>
		<path class="st1" d="M209.9,114.8h-10.2l-2.3,7.9h-3.9l9.7-30.1h3.2l9.7,30.1h-3.9L209.9,114.8z M200.8,111.6h8.2l-4.1-13.7
			L200.8,111.6z"/>
		<path class="st1" d="M229.4,110.5h-5.3v12.2h-3.8V92.6h8.4c2.9,0,5.2,0.8,6.7,2.3c1.5,1.5,2.3,3.8,2.3,6.7c0,1.9-0.4,3.5-1.2,4.9
			c-0.8,1.4-2,2.4-3.5,3.1l5.8,12.8v0.2h-4.1L229.4,110.5z M224.1,107.3h4.6c1.6,0,2.8-0.5,3.8-1.5c0.9-1,1.4-2.4,1.4-4.1
			c0-3.9-1.7-5.8-5.2-5.8h-4.5V107.3z"/>
		<path class="st1" d="M258.6,95.9h-7.9v26.8H247V95.9h-7.9v-3.2h19.6V95.9z"/>
	</g>
	<g>
		<path class="st1" d="M294.6,120.3c-4.1-0.1-7.3,3.4-7.2,7.2c0,4.2,3.2,7.3,7.3,7.3c4.1,0,7.2-3.2,7.2-7.3
			C301.8,123.6,298.6,120.3,294.6,120.3z M294.6,129.9c-1.4,0-2.4-1-2.4-2.3c0-1.3,1.1-2.5,2.4-2.5c1.3,0,2.4,1,2.4,2.4
			C297,128.9,296,129.9,294.6,129.9z"/>
		<path class="st1" d="M316.4,120.3c-4,0-7.3,3.1-7.3,7.2c0,4.3,3.2,7.2,7.3,7.2c4,0,7.2-3,7.3-7.2
			C323.7,123.5,320.4,120.3,316.4,120.3z M316.3,129.9c-1.4,0-2.4-1.1-2.3-2.4c0-1.3,1.1-2.4,2.4-2.4c1.2,0,2.4,1,2.4,2.5
			C318.7,129,317.7,129.9,316.3,129.9z"/>
		<path class="st1" d="M325.9,93.2c-0.2,0-0.4,0-0.5,0c-0.4,0-0.8,0-1.2,0l-1.7,4.9c0,0,0,0,0,0c-0.1,0.3-0.2,0.6-0.3,0.9
			c-0.1,0.3-0.2,0.5-0.3,0.8v0l0,0c-1.1,2.9-2.2,5.9-3.3,8.8c-0.7,1.9-1.9,3.2-3.9,3.7c-0.5,0.1-1.1,0.1-1.7,0.1
			c-5.2,0-10.5,0-15.7,0c-0.3,0-0.7,0-1.1,0c-1.2-3.3-2.4-6.5-3.6-9.8l5.3-12.1l6.2,14.2l3.6-8.3l5.7,13.2l8.2-18.8h-4.1l-4.1,9.4
			l-5.7-13.1l-3.6,8.3l-6.2-14.3l-7.1,16.4l-2-5.5c-0.4-1.1-0.8-2.3-1.3-3.4c-0.7-1.8-2.2-2.7-4-2.8c-2-0.1-4-0.1-6,0
			c-1.2,0-2.2,0.9-2.3,2.1c-0.1,1.3,0.6,2.4,1.9,2.6c0.4,0.1,0.8,0.1,1.2,0.1c1.4,0,2.8,0,4.1,0c0.2,0,0.5,0,0.7,0.1
			c2.6,7.3,5.3,14.5,7.9,21.7c-0.3,0.1-0.4,0.2-0.6,0.2c-2,0.5-3.4,1.6-4.4,3.3c-0.7,1.1-1,2.4-1,3.6c0,0.3,0.2,0.5,0.5,0.5h3.6
			c0.3,0,0.5-0.2,0.5-0.5l0,0c0-1.2,1.1-2.3,2.4-2.3c0.3,0,0.6,0,0.9,0c6,0,12,0,18,0c1.2,0,2.5-0.1,3.7-0.1
			c1.3-0.1,2.5-0.5,3.6-1.1c2.4-1.3,4-3.3,4.9-5.8c1.1-2.9,2.2-5.8,3.3-8.7c0.6-1.7,1.3-3.4,1.9-5.1
			C328.9,94.8,327.8,93.2,325.9,93.2z"/>
	</g>
</g>
</svg>
