<?xml version="1.0" encoding="utf-8"?>
<!-- Generator: Adobe Illustrator 22.1.0, SVG Export Plug-In . SVG Version: 6.00 Build 0)  -->
<svg version="1.1" id="Layer_1" xmlns="http://www.w3.org/2000/svg" xmlns:xlink="http://www.w3.org/1999/xlink" x="0px" y="0px"
	 viewBox="0 0 360 216" style="enable-background:new 0 0 360 216;" xml:space="preserve">
<style type="text/css">
	.st0{fill:none;}
	.st1{fill:#FFFFFF;}
</style>
<path class="st0" d="M179.5,108.1c0,0.1,0.3,0.4,0.5,0.3c0.2,0,0.3-0.3,0.5-0.5c-0.3-0.1-0.5-0.3-0.6-0.3
	C179.7,107.6,179.5,107.9,179.5,108.1z"/>
<path class="st1" d="M300,56.5c28.4,0,51.5,23.1,51.5,51.5c0,28.4-23.1,51.5-51.5,51.5H60c-28.4,0-51.5-23.1-51.5-51.5
	c0-28.4,23.1-51.5,51.5-51.5H300 M300,51.4H60C28.7,51.4,3.4,76.8,3.4,108v0c0,31.2,25.3,56.6,56.6,56.6H300
	c31.2,0,56.6-25.3,56.6-56.6v0C356.6,76.8,331.3,51.4,300,51.4L300,51.4z"/>
<g>
	<g>
		<path class="st1" d="M66.7,123.7c-0.2-0.5-0.4-1.3-0.5-2.4c-1.3,1.9-3,2.9-5,2.9c-2,0-3.6-0.6-4.8-1.7c-1.1-1.1-1.7-2.7-1.7-4.8
			c0-2.3,0.8-4.1,2.3-5.4c1.5-1.3,3.7-2,6.4-2.1h2.7v-2.4c0-1.3-0.3-2.3-0.9-2.9c-0.6-0.6-1.5-0.9-2.7-0.9c-1.1,0-2,0.3-2.7,1
			c-0.7,0.7-1,1.5-1,2.5h-3.7c0-1.1,0.3-2.2,1-3.3c0.7-1,1.6-1.9,2.7-2.5c1.1-0.6,2.4-0.9,3.8-0.9c2.3,0,4,0.6,5.2,1.7
			c1.2,1.1,1.8,2.8,1.8,5v11.3c0,1.7,0.2,3.2,0.7,4.5v0.3H66.7z M61.8,120.8c0.9,0,1.8-0.2,2.6-0.7c0.8-0.5,1.4-1.1,1.8-1.9v-5.4
			h-2.1c-1.7,0-3.1,0.4-4.1,1.2c-1,0.8-1.5,1.8-1.5,3.2c0,1.3,0.3,2.2,0.8,2.8C59.7,120.5,60.6,120.8,61.8,120.8z"/>
		<path class="st1" d="M74.7,111.5c0-3.5,0.6-6.1,1.9-7.9c1.3-1.8,3.1-2.7,5.6-2.7c2.1,0,3.8,0.9,5,2.6V91.9h3.7v31.9h-3.4l-0.2-2.4
			c-1.2,1.9-2.9,2.8-5.2,2.8c-2.3,0-4.1-0.9-5.5-2.7c-1.3-1.8-2-4.4-2-7.6V111.5z M78.4,113.6c0,2.5,0.4,4.4,1.1,5.5
			c0.7,1.2,2,1.8,3.7,1.8c1.8,0,3.2-0.9,4.1-2.8v-11.3c-0.9-1.8-2.3-2.7-4.1-2.7c-1.7,0-2.9,0.6-3.7,1.8c-0.7,1.2-1.1,3-1.1,5.4
			V113.6z"/>
		<path class="st1" d="M95.8,111.5c0-3.5,0.6-6.1,1.9-7.9c1.3-1.8,3.1-2.7,5.6-2.7c2.1,0,3.8,0.9,5,2.6V91.9h3.7v31.9h-3.4l-0.2-2.4
			c-1.2,1.9-2.9,2.8-5.2,2.8c-2.3,0-4.1-0.9-5.5-2.7c-1.3-1.8-2-4.4-2-7.6V111.5z M99.5,113.6c0,2.5,0.4,4.4,1.1,5.5
			c0.7,1.2,2,1.8,3.7,1.8c1.8,0,3.2-0.9,4.1-2.8v-11.3c-0.9-1.8-2.3-2.7-4.1-2.7c-1.7,0-2.9,0.6-3.7,1.8c-0.7,1.2-1.1,3-1.1,5.4
			V113.6z"/>
		<path class="st1" d="M132.2,95.8v5.4h3.4v3h-3.4v13.9c0,0.9,0.1,1.6,0.4,2c0.3,0.5,0.8,0.7,1.5,0.7c0.5,0,1-0.1,1.5-0.2l0,3.1
			c-0.8,0.3-1.7,0.4-2.6,0.4c-1.5,0-2.6-0.5-3.3-1.6c-0.8-1-1.1-2.5-1.1-4.4v-13.9h-3.4v-3h3.4v-5.4H132.2z"/>
		<path class="st1" d="M138.8,111.5c0-3.3,0.8-5.8,2.4-7.7c1.6-1.9,3.7-2.9,6.3-2.9c2.6,0,4.7,0.9,6.3,2.8c1.6,1.9,2.4,4.4,2.4,7.6
			v2.4c0,3.3-0.8,5.8-2.4,7.7c-1.6,1.9-3.7,2.8-6.3,2.8c-2.6,0-4.7-0.9-6.3-2.8c-1.6-1.8-2.4-4.3-2.4-7.5V111.5z M142.4,113.6
			c0,2.3,0.5,4.1,1.4,5.4c0.9,1.3,2.1,2,3.7,2c3.2,0,4.9-2.3,5-7v-2.5c0-2.3-0.5-4.1-1.4-5.4c-0.9-1.3-2.1-2-3.7-2
			c-1.5,0-2.7,0.7-3.6,2c-0.9,1.3-1.4,3.1-1.4,5.4V113.6z"/>
		<path class="st1" d="M178.4,121c1.2,0,2.2-0.4,2.9-1.1c0.7-0.8,1.1-1.8,1.2-3.2h3.5c-0.1,2.2-0.8,3.9-2.3,5.4
			c-1.4,1.4-3.2,2.1-5.3,2.1c-2.8,0-4.9-0.9-6.4-2.6c-1.5-1.8-2.2-4.4-2.2-7.8v-2.5c0-3.4,0.7-6,2.2-7.7c1.5-1.8,3.6-2.6,6.3-2.6
			c2.3,0,4.1,0.7,5.5,2.2c1.3,1.5,2.1,3.4,2.1,6h-3.5c-0.1-1.7-0.5-2.9-1.2-3.7c-0.7-0.8-1.7-1.2-3-1.2c-1.6,0-2.8,0.5-3.6,1.6
			c-0.8,1.1-1.2,2.8-1.2,5.3v2.9c0,2.6,0.4,4.5,1.2,5.6C175.5,120.5,176.7,121,178.4,121z"/>
		<path class="st1" d="M201.8,123.7c-0.2-0.5-0.4-1.3-0.5-2.4c-1.3,1.9-3,2.9-5,2.9c-2,0-3.6-0.6-4.8-1.7c-1.1-1.1-1.7-2.7-1.7-4.8
			c0-2.3,0.8-4.1,2.3-5.4c1.5-1.3,3.7-2,6.4-2.1h2.7v-2.4c0-1.3-0.3-2.3-0.9-2.9c-0.6-0.6-1.5-0.9-2.7-0.9c-1.1,0-2,0.3-2.7,1
			c-0.7,0.7-1,1.5-1,2.5h-3.7c0-1.1,0.3-2.2,1-3.3c0.7-1,1.6-1.9,2.7-2.5c1.1-0.6,2.4-0.9,3.8-0.9c2.3,0,4,0.6,5.2,1.7
			c1.2,1.1,1.8,2.8,1.8,5v11.3c0,1.7,0.2,3.2,0.7,4.5v0.3H201.8z M196.9,120.8c0.9,0,1.8-0.2,2.6-0.7c0.8-0.5,1.4-1.1,1.8-1.9v-5.4
			h-2.1c-1.7,0-3.1,0.4-4.1,1.2c-1,0.8-1.5,1.8-1.5,3.2c0,1.3,0.3,2.2,0.8,2.8C194.8,120.5,195.7,120.8,196.9,120.8z"/>
		<path class="st1" d="M219.8,104.7c-0.5-0.1-1.1-0.1-1.7-0.1c-1.9,0-3.2,1-3.9,3.1v16.1h-3.7v-22.4h3.6l0.1,2.3
			c1-1.8,2.4-2.7,4.2-2.7c0.6,0,1.1,0.1,1.5,0.3L219.8,104.7z"/>
		<path class="st1" d="M229.3,95.8v5.4h3.4v3h-3.4v13.9c0,0.9,0.1,1.6,0.4,2c0.3,0.5,0.8,0.7,1.5,0.7c0.5,0,1-0.1,1.5-0.2l0,3.1
			c-0.8,0.3-1.7,0.4-2.6,0.4c-1.5,0-2.6-0.5-3.3-1.6c-0.8-1-1.1-2.5-1.1-4.4v-13.9h-3.4v-3h3.4v-5.4H229.3z"/>
	</g>
	<g>
		<path class="st0" d="M291.5,127.5c-1.5,0-2.7,1.2-2.7,2.7c0,1.6,1.1,2.7,2.7,2.8c1.6,0,2.7-1.1,2.8-2.6
			C294.3,128.6,292.9,127.5,291.5,127.5z"/>
		<path class="st0" d="M266.7,127.5c-1.5,0-2.8,1.3-2.8,2.8c0,1.5,1.2,2.7,2.8,2.7c1.5,0,2.7-1.2,2.7-2.7
			C269.4,128.6,268.2,127.5,266.7,127.5z"/>
		<path class="st1" d="M266.7,122c-4.6-0.1-8.2,3.9-8.2,8.2c0,4.8,3.7,8.3,8.3,8.3c4.7,0,8.2-3.7,8.2-8.3
			C274.9,125.7,271.2,122,266.7,122z M266.7,132.9c-1.5,0-2.7-1.1-2.8-2.7c0-1.5,1.2-2.8,2.8-2.8c1.5,0,2.7,1.2,2.7,2.7
			C269.4,131.7,268.3,132.9,266.7,132.9z"/>
		<path class="st1" d="M291.5,122c-4.6,0-8.3,3.6-8.3,8.2c0,4.9,3.7,8.2,8.2,8.2c4.6,0,8.2-3.4,8.2-8.2
			C299.7,125.6,296,122,291.5,122z M291.4,132.9c-1.5,0-2.7-1.2-2.7-2.8c0-1.5,1.2-2.7,2.7-2.7c1.4,0,2.8,1.2,2.7,2.8
			C294.1,131.8,293,132.9,291.4,132.9z"/>
		<path class="st1" d="M302.3,91.2c-0.2,0-0.4,0-0.6,0c-0.5,0-0.9,0-1.4,0l-1.9,5.6c0,0,0,0,0,0c-0.1,0.4-0.2,0.7-0.3,1
			c-0.1,0.3-0.2,0.6-0.4,0.9v0l0,0c-1.3,3.3-2.5,6.7-3.8,10c-0.8,2.1-2.1,3.7-4.4,4.2c-0.6,0.1-1.3,0.2-1.9,0.2c-6,0-11.9,0-17.9,0
			c-0.4,0-0.7,0-1.2,0c-1.3-3.7-2.7-7.4-4.1-11.1l6-13.8l7.1,16.2l4.1-9.5l6.5,15l9.3-21.4h-4.7l-4.6,10.7l-6.5-14.9l-4.1,9.5
			l-7.1-16.2l-8.1,18.7l-2.3-6.2c-0.5-1.3-0.9-2.6-1.4-3.8c-0.8-2-2.5-3-4.6-3.2c-2.3-0.1-4.5-0.1-6.8,0c-1.4,0-2.5,1.1-2.6,2.4
			c-0.1,1.5,0.7,2.7,2.2,3c0.5,0.1,0.9,0.1,1.4,0.1c1.6,0,3.1,0,4.7,0c0.3,0,0.5,0,0.8,0.1c3,8.3,6,16.5,9,24.7
			c-0.3,0.1-0.5,0.2-0.7,0.2c-2.2,0.6-3.9,1.9-5,3.8c-0.8,1.3-1.1,2.7-1.1,4.1c0,0.3,0.3,0.6,0.6,0.6h4.1c0.3,0,0.6-0.3,0.6-0.6l0,0
			c0-1.4,1.2-2.6,2.7-2.7c0.3,0,0.7,0,1,0c6.8,0,13.6,0,20.4,0c1.4,0,2.8-0.1,4.2-0.2c1.4-0.1,2.8-0.6,4.1-1.2
			c2.7-1.5,4.5-3.8,5.6-6.6c1.2-3.3,2.5-6.6,3.7-9.9c0.7-1.9,1.5-3.8,2.2-5.8C305.7,93,304.5,91.2,302.3,91.2z"/>
	</g>
</g>
</svg>
