<?xml version="1.0" encoding="utf-8"?>
<!-- Generator: Adobe Illustrator 22.1.0, SVG Export Plug-In . SVG Version: 6.00 Build 0)  -->
<svg version="1.1" id="Layer_1" xmlns="http://www.w3.org/2000/svg" xmlns:xlink="http://www.w3.org/1999/xlink" x="0px" y="0px"
	 viewBox="0 0 360 216" style="enable-background:new 0 0 360 216;" xml:space="preserve">
<style type="text/css">
	.st0{fill:#FFFFFF;}
</style>
<g>
	<path d="M295.9,51.9H64.1C33.9,51.9,9.5,77,9.5,108v0c0,31,24.4,56.1,54.6,56.1h231.8c30.2,0,54.6-25.1,54.6-56.1v0
		C350.5,77,326.1,51.9,295.9,51.9L295.9,51.9z"/>
</g>
<g>
	<path class="st0" d="M179.5,108.1c0,0.1,0.3,0.3,0.4,0.3c0.2,0,0.3-0.3,0.5-0.5c-0.3-0.1-0.5-0.3-0.6-0.3
		C179.7,107.7,179.5,107.9,179.5,108.1z"/>
	<path class="st0" d="M293.4,59.4c26.8,0,48.6,21.8,48.6,48.6c0,26.8-21.8,48.6-48.6,48.6H66.6C39.8,156.6,18,134.8,18,108
		c0-26.8,21.8-48.6,48.6-48.6H293.4 M293.4,54.6H66.6c-29.5,0-53.4,23.9-53.4,53.4v0c0,29.5,23.9,53.4,53.4,53.4h226.8
		c29.5,0,53.4-23.9,53.4-53.4v0C346.8,78.5,322.9,54.6,293.4,54.6L293.4,54.6z"/>
	<g>
		<g>
			<path class="st0" d="M73,122.9c-0.2-0.5-0.4-1.2-0.5-2.3c-1.2,1.8-2.8,2.7-4.7,2.7c-1.9,0-3.4-0.5-4.5-1.6
				c-1.1-1.1-1.6-2.6-1.6-4.6c0-2.2,0.7-3.9,2.2-5.1c1.5-1.3,3.5-1.9,6-1.9h2.5v-2.3c0-1.3-0.3-2.2-0.8-2.7
				c-0.6-0.5-1.4-0.8-2.6-0.8c-1,0-1.9,0.3-2.5,0.9c-0.7,0.6-1,1.4-1,2.4h-3.5c0-1.1,0.3-2.1,1-3.1c0.6-1,1.5-1.8,2.6-2.3
				c1.1-0.6,2.3-0.8,3.6-0.8c2.2,0,3.8,0.5,4.9,1.6c1.1,1.1,1.7,2.6,1.7,4.7v10.7c0,1.6,0.2,3.1,0.7,4.3v0.3H73z M68.3,120.1
				c0.8,0,1.7-0.2,2.4-0.7c0.8-0.5,1.3-1.1,1.7-1.8v-5.1h-2c-1.6,0-2.9,0.4-3.9,1.1c-1,0.7-1.4,1.7-1.4,3c0,1.2,0.2,2.1,0.7,2.6
				C66.4,119.8,67.2,120.1,68.3,120.1z"/>
			<path class="st0" d="M80.6,111.3c0-3.3,0.6-5.8,1.8-7.5c1.2-1.7,3-2.6,5.3-2.6c2,0,3.6,0.8,4.7,2.5v-11h3.5v30.1h-3.2l-0.2-2.3
				c-1.1,1.8-2.8,2.7-4.9,2.7c-2.2,0-3.9-0.9-5.2-2.6c-1.2-1.7-1.9-4.1-1.9-7.2V111.3z M84,113.3c0,2.4,0.4,4.1,1.1,5.2
				c0.7,1.1,1.9,1.7,3.4,1.7c1.7,0,3-0.9,3.9-2.6v-10.7c-0.9-1.7-2.2-2.5-3.8-2.5c-1.6,0-2.7,0.6-3.4,1.7c-0.7,1.1-1.1,2.8-1.1,5.1
				V113.3z"/>
			<path class="st0" d="M100.5,111.3c0-3.3,0.6-5.8,1.8-7.5c1.2-1.7,3-2.6,5.3-2.6c2,0,3.6,0.8,4.7,2.5v-11h3.5v30.1h-3.2l-0.2-2.3
				c-1.1,1.8-2.8,2.7-4.9,2.7c-2.2,0-3.9-0.9-5.2-2.6c-1.2-1.7-1.9-4.1-1.9-7.2V111.3z M103.9,113.3c0,2.4,0.4,4.1,1.1,5.2
				c0.7,1.1,1.9,1.7,3.4,1.7c1.7,0,3-0.9,3.9-2.6v-10.7c-0.9-1.7-2.2-2.5-3.8-2.5c-1.6,0-2.7,0.6-3.4,1.7c-0.7,1.1-1.1,2.8-1.1,5.1
				V113.3z"/>
			<path class="st0" d="M134.8,96.5v5.1h3.2v2.8h-3.2v13.2c0,0.8,0.1,1.5,0.4,1.9c0.3,0.4,0.7,0.6,1.4,0.6c0.5,0,0.9-0.1,1.4-0.2
				l0,2.9c-0.8,0.3-1.6,0.4-2.4,0.4c-1.4,0-2.4-0.5-3.1-1.5c-0.7-1-1.1-2.4-1.1-4.2v-13.2h-3.2v-2.8h3.2v-5.1H134.8z"/>
			<path class="st0" d="M141,111.3c0-3.1,0.7-5.5,2.2-7.3c1.5-1.8,3.5-2.7,5.9-2.7c2.5,0,4.4,0.9,5.9,2.6c1.5,1.8,2.3,4.1,2.3,7.2
				v2.2c0,3.1-0.7,5.5-2.2,7.3c-1.5,1.8-3.5,2.7-6,2.7c-2.5,0-4.4-0.9-5.9-2.6c-1.5-1.7-2.3-4.1-2.3-7.1V111.3z M144.5,113.3
				c0,2.2,0.4,3.9,1.3,5.1c0.9,1.2,2,1.9,3.5,1.9c3.1,0,4.6-2.2,4.7-6.6v-2.4c0-2.2-0.4-3.9-1.3-5.1c-0.9-1.3-2-1.9-3.5-1.9
				c-1.4,0-2.6,0.6-3.4,1.9c-0.9,1.3-1.3,3-1.3,5.1V113.3z"/>
			<path class="st0" d="M178.5,120.3c1.1,0,2.1-0.4,2.8-1.1c0.7-0.7,1.1-1.7,1.1-3h3.3c-0.1,2-0.8,3.7-2.2,5.1c-1.4,1.3-3,2-5,2
				c-2.6,0-4.6-0.8-6-2.5c-1.4-1.7-2.1-4.1-2.1-7.4v-2.3c0-3.2,0.7-5.6,2.1-7.3c1.4-1.7,3.4-2.5,6-2.5c2.2,0,3.9,0.7,5.2,2.1
				c1.3,1.4,2,3.2,2,5.6h-3.3c-0.1-1.6-0.5-2.7-1.1-3.5c-0.7-0.8-1.6-1.2-2.8-1.2c-1.5,0-2.7,0.5-3.4,1.5c-0.7,1-1.1,2.7-1.2,5v2.7
				c0,2.5,0.4,4.3,1.1,5.3C175.7,119.8,176.9,120.3,178.5,120.3z"/>
			<path class="st0" d="M200.6,122.9c-0.2-0.5-0.4-1.2-0.5-2.3c-1.2,1.8-2.8,2.7-4.7,2.7c-1.9,0-3.4-0.5-4.5-1.6
				c-1.1-1.1-1.6-2.6-1.6-4.6c0-2.2,0.7-3.9,2.2-5.1c1.5-1.3,3.5-1.9,6-1.9h2.5v-2.3c0-1.3-0.3-2.2-0.8-2.7
				c-0.6-0.5-1.4-0.8-2.6-0.8c-1,0-1.9,0.3-2.5,0.9c-0.7,0.6-1,1.4-1,2.4h-3.5c0-1.1,0.3-2.1,1-3.1c0.6-1,1.5-1.8,2.6-2.3
				c1.1-0.6,2.3-0.8,3.6-0.8c2.2,0,3.8,0.5,4.9,1.6c1.1,1.1,1.7,2.6,1.7,4.7v10.7c0,1.6,0.2,3.1,0.7,4.3v0.3H200.6z M195.9,120.1
				c0.8,0,1.7-0.2,2.4-0.7c0.8-0.5,1.3-1.1,1.7-1.8v-5.1h-2c-1.6,0-2.9,0.4-3.9,1.1c-1,0.7-1.4,1.7-1.4,3c0,1.2,0.2,2.1,0.7,2.6
				C194,119.8,194.8,120.1,195.9,120.1z"/>
			<path class="st0" d="M217.6,104.9c-0.5-0.1-1-0.1-1.6-0.1c-1.8,0-3,1-3.7,2.9v15.2h-3.5v-21.2h3.4l0.1,2.2
				c0.9-1.7,2.2-2.5,3.9-2.5c0.5,0,1,0.1,1.4,0.3L217.6,104.9z"/>
			<path class="st0" d="M226.6,96.5v5.1h3.2v2.8h-3.2v13.2c0,0.8,0.1,1.5,0.4,1.9c0.3,0.4,0.7,0.6,1.4,0.6c0.5,0,0.9-0.1,1.4-0.2
				l0,2.9c-0.8,0.3-1.6,0.4-2.4,0.4c-1.4,0-2.4-0.5-3.1-1.5c-0.7-1-1.1-2.4-1.1-4.2v-13.2h-3.2v-2.8h3.2v-5.1H226.6z"/>
		</g>
		<g>
			<path class="st0" d="M261.9,121.2c-4.4-0.1-7.8,3.7-7.8,7.7c0,4.5,3.5,7.8,7.8,7.8c4.4,0,7.8-3.5,7.7-7.8
				C269.7,124.7,266.2,121.2,261.9,121.2z M261.9,131.6c-1.5,0-2.6-1.1-2.6-2.5c0-1.4,1.2-2.7,2.6-2.7s2.6,1.1,2.6,2.6
				C264.5,130.4,263.4,131.5,261.9,131.6z"/>
			<path class="st0" d="M285.4,121.2c-4.3,0-7.8,3.4-7.8,7.8c0,4.6,3.5,7.8,7.8,7.8c4.3,0,7.8-3.2,7.8-7.8
				C293.1,124.7,289.6,121.2,285.4,121.2z M285.2,131.6c-1.5,0-2.5-1.1-2.5-2.6c0-1.4,1.2-2.6,2.6-2.6c1.3,0,2.6,1.1,2.6,2.7
				C287.8,130.5,286.7,131.6,285.2,131.6z"/>
			<path class="st0" d="M295.6,92.1c-0.2,0-0.4,0-0.6,0c-0.5,0-0.9,0-1.3,0l-1.8,5.3c0,0,0,0,0,0c-0.1,0.4-0.2,0.6-0.3,0.9
				c-0.1,0.3-0.2,0.6-0.3,0.9v0l0,0c-1.2,3.2-2.4,6.3-3.6,9.5c-0.7,2-2,3.5-4.1,4c-0.6,0.1-1.2,0.2-1.8,0.2c-5.6,0-11.3,0-16.9,0
				c-0.3,0-0.7,0-1.1,0c-1.3-3.5-2.6-7-3.8-10.5l5.7-13l6.7,15.3l3.9-8.9l6.2,14.1l8.8-20.2h-4.4l-4.4,10.1l-6.2-14.1l-3.9,9
				l-6.7-15.3l-7.6,17.6l-2.1-5.9c-0.4-1.2-0.9-2.4-1.4-3.6c-0.8-1.9-2.3-2.9-4.3-3c-2.1-0.1-4.3-0.1-6.4,0c-1.3,0-2.4,1-2.5,2.3
				c-0.1,1.4,0.7,2.6,2,2.8c0.4,0.1,0.9,0.1,1.3,0.1c1.5,0,3,0,4.4,0c0.2,0,0.5,0,0.8,0.1c2.8,7.8,5.7,15.6,8.5,23.4
				c-0.3,0.1-0.5,0.2-0.6,0.2c-2.1,0.5-3.7,1.8-4.8,3.6c-0.7,1.2-1.1,2.6-1.1,3.9c0,0.3,0.2,0.5,0.5,0.5h3.9c0.3,0,0.5-0.2,0.5-0.5
				l0,0c0-1.3,1.2-2.5,2.6-2.5c0.3,0,0.6,0,0.9,0c6.4,0,12.9,0,19.3,0c1.3,0,2.6-0.1,4-0.2c1.4-0.1,2.6-0.5,3.9-1.2
				c2.6-1.4,4.3-3.6,5.3-6.3c1.2-3.1,2.3-6.2,3.5-9.3c0.7-1.8,1.4-3.6,2-5.5C298.8,93.8,297.6,92.1,295.6,92.1z"/>
		</g>
	</g>
</g>
</svg>
