<?xml version="1.0" encoding="utf-8"?>
<!-- Generator: Adobe Illustrator 22.1.0, SVG Export Plug-In . SVG Version: 6.00 Build 0)  -->
<svg version="1.1" id="Layer_1" xmlns="http://www.w3.org/2000/svg" xmlns:xlink="http://www.w3.org/1999/xlink" x="0px" y="0px"
	 viewBox="0 0 360 360" style="enable-background:new 0 0 360 360;" xml:space="preserve">
<style type="text/css">
	.st0{fill:none;}
	.st1{fill:#FFFFFF;}
</style>
<g>
	<path class="st0" d="M262.6,277.2c-7.5,0-13.6,6-13.7,13.5c-0.1,7.8,5.6,13.6,13.3,13.8c7.8,0.1,13.6-5.5,13.9-13.2
		C276.5,283,269.6,277.2,262.6,277.2z"/>
	<path class="st0" d="M138.7,277.2c-7.6,0-14,6.5-13.8,14.1c0.2,7.6,6.2,13.3,13.9,13.3c7.7-0.1,13.4-5.9,13.4-13.7
		C152.2,283.1,146.4,277.2,138.7,277.2z"/>
	<path class="st1" d="M138.6,249.9c-23.1-0.5-41.2,19.4-41.1,40.8c0.1,23.9,18.3,41.5,41.5,41.4c23.4-0.2,41-18.3,40.9-41.5
		C179.8,268.3,161.4,249.8,138.6,249.9z M138.9,304.5c-7.7,0.1-13.7-5.6-13.9-13.3c-0.2-7.5,6.2-14.1,13.8-14.1
		c7.6,0,13.5,5.9,13.5,13.6C152.3,298.6,146.6,304.4,138.9,304.5z"/>
	<path class="st1" d="M262.8,249.9c-22.8-0.1-41.5,17.8-41.4,41c0.1,24.3,18.4,41.1,41.2,41.1c22.9,0,41.1-17.1,41.2-41.1
		C303.8,268.1,285.4,250,262.8,249.9z M262.2,304.5c-7.7-0.1-13.4-6-13.3-13.8c0.1-7.5,6.1-13.6,13.7-13.5c7,0,13.9,5.8,13.5,14.1
		C275.8,299,270,304.6,262.2,304.5z"/>
	<path class="st1" d="M316.7,95.9c-1,0-2,0-3,0c-2.4,0-4.7,0-7.1,0l-9.5,28c0,0,0,0,0.1,0c-0.6,1.9-1,3.4-1.6,4.9
		c-0.6,1.6-1.2,3.1-1.8,4.7l0,0.1l0,0c-6.3,16.7-12.6,33.5-18.8,50.2c-3.9,10.7-10.6,18.4-21.9,21.2c-3,0.7-6.3,0.8-9.4,0.8
		c-29.8,0.1-59.6,0-89.4,0c-1.8,0-3.7,0-6,0c-6.7-18.5-13.5-37-20.3-55.6l29.9-68.9l35.3,80.8l20.5-47.3l32.6,74.7l46.4-106.8
		l-23.3,0l-23.1,53.3l-32.6-74.6l-20.6,47.4l-35.3-81L117.4,121l-11.3-31.2c-2.3-6.4-4.5-12.8-7.2-19.1c-4.2-10-12.4-15.2-22.9-15.9
		c-11.3-0.7-22.7-0.3-34-0.1c-7.1,0.1-12.6,5.3-13.2,11.9c-0.7,7.6,3.5,13.5,10.8,15c2.3,0.5,4.6,0.6,6.9,0.6c7.8,0.1,15.7,0,23.5,0
		c1.3,0,2.6,0.2,4,0.3c15,41.3,30,82.4,45,123.5c-1.5,0.6-2.4,1-3.3,1.2c-11.1,2.8-19.4,9.3-25.2,19c-3.8,6.4-5.7,13.5-5.7,20.5
		c0,1.6,1.3,2.8,2.9,2.8h20.5c1.6,0,2.8-1.3,2.8-2.9c0,0,0,0,0,0c0.1-7.1,6.1-13,13.6-13.3c1.7-0.1,3.3,0,5,0c34,0,68,0,102,0
		c7,0,14-0.3,20.9-0.8c7.2-0.5,14-2.8,20.4-6.2c13.7-7.3,22.6-18.8,28-33.2c6.2-16.5,12.3-33,18.5-49.4c3.6-9.6,7.4-19.2,10.8-28.9
		C333.8,104.8,327.6,96.1,316.7,95.9z"/>
</g>
</svg>
