<?xml version="1.0" encoding="utf-8"?>
<!-- Generator: Adobe Illustrator 22.1.0, SVG Export Plug-In . SVG Version: 6.00 Build 0)  -->
<svg version="1.1" id="Layer_1" xmlns="http://www.w3.org/2000/svg" xmlns:xlink="http://www.w3.org/1999/xlink" x="0px" y="0px"
	 viewBox="0 0 360 216" style="enable-background:new 0 0 360 216;" xml:space="preserve">
<style type="text/css">
	.st0{fill:none;}
	.st1{fill:#F1F2F2;}
	.st2{fill:#F2F2F2;}
</style>
<g>
	<path class="st0" d="M157,91.2c0,0.1,0.1,0.2,0.1,0.3c0.1-0.1,0.1-0.1,0.2-0.2c0-0.1-0.1-0.2-0.1-0.3C157.1,91.1,157,91.1,157,91.2
		z"/>
	<path class="st0" d="M124.5,100c0.1,0,0.2,0.1,0.3,0.1c0,0,0.1-0.1,0.1-0.2c-0.1,0-0.2-0.1-0.3-0.1
		C124.6,99.8,124.6,99.9,124.5,100z"/>
	<path class="st0" d="M123.1,120.4c0.2,0.1,0.3,0.3,0.5,0.4c0,0,0.2-0.2,0.2-0.2c-0.1-0.2-0.2-0.3-0.3-0.5
		C123.3,120.2,123.2,120.3,123.1,120.4z"/>
	<path class="st0" d="M139.5,126.5c-0.1,0.1-0.1,0.2-0.2,0.3c0,0,0,0.1-0.1,0.1c0,0,0.1,0,0.1,0
		C139.4,126.7,139.5,126.6,139.5,126.5z"/>
	<path class="st0" d="M124.3,114.9c0,0.1,0.1,0.2,0.1,0.3c0.1-0.1,0.1-0.1,0.2-0.2c0-0.1-0.1-0.2-0.1-0.3
		C124.4,114.8,124.3,114.9,124.3,114.9z"/>
	<path class="st0" d="M123.8,94.3c0.1,0.1,0.1,0.2,0.2,0.2c0.1,0,0.2-0.1,0.3-0.1C124.1,94.4,124,94.3,123.8,94.3z"/>
	<path class="st0" d="M128,126.9c0.1-0.1,0.1-0.2,0.2-0.3c-0.1-0.2-0.2-0.5-0.3-0.8c0-0.1-0.2-0.1-0.3-0.1c-0.1,0-0.2,0.1-0.2,0.1
		c0.1,0.4,0.2,0.7,0.4,1.1C127.7,126.9,127.9,126.9,128,126.9z"/>
	<path class="st0" d="M173.7,91.6c-0.2-0.1-0.3-0.3-0.5-0.3c-0.2,0-0.4,0.1-0.5,0.2c0.2,0.1,0.3,0.2,0.5,0.3
		C173.3,91.8,173.5,91.7,173.7,91.6z"/>
	<path class="st0" d="M175.8,99.2c-0.1,0-0.2-0.1-0.3-0.1c0,0-0.1,0.1-0.1,0.2c0.1,0,0.2,0.1,0.3,0.1
		C175.8,99.4,175.8,99.3,175.8,99.2z"/>
	<path class="st0" d="M171.6,122c0.5,0.2,1.1,0.5,1.6,0.5c0.3,0,0.7-0.5,0.8-0.6c0.1-1.2-0.6-1.8-1.5-1.5c-0.3,0.1-0.7,0.2-0.9,0.4
		c-0.2,0.2-0.4,0.5-0.5,0.8C171.2,121.6,171.5,121.9,171.6,122z"/>
	<path class="st0" d="M125.2,105.2c-0.1,0.1,0.1,0.3,0.1,0.5c0.2-0.1,0.4-0.2,0.6-0.3c0-0.2-0.1-0.4-0.1-0.6
		C125.6,104.9,125.3,105,125.2,105.2z"/>
	<path class="st0" d="M125.9,87.3c0,0.1,0,0.2,0.1,0.2c0.1,0,0.2,0,0.3-0.1c0-0.1,0-0.2-0.1-0.3C126.1,87.2,126,87.3,125.9,87.3z"/>
	<path class="st0" d="M127,128.5c-0.1,0-0.2-0.1-0.3-0.1c0,0-0.1,0.1-0.1,0.2c0.1,0,0.2,0.1,0.3,0.1
		C126.9,128.6,127,128.5,127,128.5z"/>
	<path class="st0" d="M139.2,126.9c0,0,0,0.1-0.1,0.2c0.1-0.1,0.1-0.2,0.2-0.2C139.3,126.9,139.2,126.9,139.2,126.9z"/>
	<path class="st0" d="M85.3,125.1c-0.1,0.4-0.1,0.7-0.1,1c0,0.1,0.3,0.2,0.5,0.3c0.1-0.3,0.2-0.6,0.2-0.9
		C85.9,125.3,85.6,125.2,85.3,125.1z"/>
	<path class="st0" d="M88.6,88.8c0.1-0.1,0.2-0.3,0.3-0.5c-0.2-0.1-0.4-0.3-0.5-0.2c-0.1,0.1-0.2,0.3-0.3,0.5
		C88.3,88.7,88.5,88.9,88.6,88.8z"/>
	<path class="st0" d="M86.3,109.9c-0.6,0.1-1,0.5-0.7,0.9c0.2,0.2,0.5,0.4,0.8,0.5c0.4,0.1,0.8-0.4,0.6-1.1
		C86.8,110,86.5,109.8,86.3,109.9z"/>
	<path class="st0" d="M51.3,108.9c0-0.2-0.1-0.4-0.1-0.6c-0.2,0.1-0.4,0.1-0.5,0.3c-0.1,0.1,0.1,0.3,0.1,0.5
		C50.9,109.1,51.1,109,51.3,108.9z"/>
	<path class="st0" d="M87,106.8c0.1,0.1,0.2,0.1,0.3,0.2c0-0.1,0-0.2-0.1-0.2C87.1,106.8,87,106.8,87,106.8z"/>
	<path class="st0" d="M87.4,97.8c-0.2-0.1-0.5,0.2-0.7,0.4c0.2,0.2,0.4,0.4,0.6,0.6c0.3-0.1,0.5-0.2,0.7-0.3
		C87.8,98.3,87.7,97.9,87.4,97.8z"/>
	<path class="st0" d="M128.1,90.1c0.4,0.2,1,0,1-0.4c0-0.3-0.2-0.6-0.4-0.8c-0.2-0.2-0.6-0.3-0.9-0.4c-0.2,0.2-0.6,0.3-0.7,0.5
		c-0.1,0.2,0.2,0.6,0.4,0.8C127.7,89.9,127.9,90,128.1,90.1z"/>
	<path class="st0" d="M135.3,88.8c-0.1-0.1-0.1-0.2-0.2-0.2c-0.1-0.1-0.2-0.1-0.3-0.1c-0.1,0-0.3-0.1-0.3,0
		c-0.2,0.1-0.4,0.3-0.6,0.5c0.3,0.1,0.7,0.2,1,0.2C134.9,89.1,135.1,88.9,135.3,88.8z"/>
	<path class="st0" d="M108.3,97.1c-0.2,0.1-0.4,0.2-0.5,0.4c-0.3,0.4-0.1,0.7,0.2,0.9c0.7,0.3,1.5,0.5,2.3,0.7
		c0.1,0,0.2-0.1,0.2-0.2c0-0.1,0-0.3-0.1-0.3c-0.5-0.5-1-1-1.5-1.4C108.8,97.1,108.6,97.1,108.3,97.1z"/>
	<path class="st0" d="M110.3,113.4c0.1,0.1,0.2,0.2,0.2,0.3c0-0.1,0.1-0.2,0.1-0.2c0-0.1-0.1-0.2-0.1-0.2
		C110.4,113.3,110.4,113.4,110.3,113.4z"/>
	<path class="st0" d="M90.8,107.4c0,0,0.1,0.1,0.2,0.1c0-0.1,0.1-0.2,0.1-0.3c0,0-0.1-0.1-0.2-0.1C90.8,107.2,90.8,107.3,90.8,107.4
		z"/>
	<path class="st0" d="M189.6,108.3c0,0.2,0.2,0.3,0.3,0.5c0.1-0.2,0.2-0.3,0.3-0.5c-0.1-0.2-0.2-0.3-0.3-0.5
		C189.8,108,189.6,108.1,189.6,108.3z"/>
	<path class="st0" d="M301.1,56.1H58.9C30.3,56.1,7.1,79.4,7.1,108c0,28.6,23.3,51.9,51.9,51.9h242.1c28.6,0,51.9-23.3,51.9-51.9
		C352.9,79.4,329.7,56.1,301.1,56.1z M121,86.7h0.3c-0.1,0.1-0.2,0.2-0.3,0.4V86.7z M73.3,93c-0.2-0.3-0.4-0.6-0.7-0.7
		c-0.2,0-0.7,0.3-0.7,0.5c-0.3,0.9-0.8,1.6-1.7,2.1c0,0-0.1,0.1-0.1,0.1c-0.3-0.8-0.7-1.5-1.1-2c-0.1-0.1-0.2-0.2-0.3-0.3
		c0.1,0,0.2,0,0.3,0c0.4-0.1,0.9-0.2,1.3-0.4c0.2-0.1,0.3-0.3,0.3-0.5c0-0.1-0.3-0.3-0.4-0.4c-1.6-0.6-2-0.5-2.3,0.6
		c-0.9-0.7-2.1-1-3.5-1.2c-0.1-0.1-0.1-0.3-0.2-0.4c-0.1-0.1-0.3,0.1-0.5,0.1c0,0.1,0.1,0.2,0.1,0.2c-0.1,0-0.3,0-0.4,0
		c-0.4,0-0.7,0-1.1,0.1c0.1-0.5,0.3-1,0.4-1.5c0-0.1-0.2-0.4-0.4-0.5c-0.2,0-0.5,0.1-0.6,0.3c-0.1,0.6-0.3,1.3-0.4,1.9
		c-1.3,0.3-2.5,0.9-3.5,1.8c0,0,0,0,0-0.1c-0.5-0.7-1-0.7-1.7,0c-0.8,0.8-1.2,1.7-0.6,2.8c0.1,0.2,0.1,0.3,0.2,0.5
		c-0.5,1.2-0.8,2.5-1,4c-0.2,0.1-0.6,0-0.8,0c-1,0.1-2,0.2-2.9-0.6c-0.1-0.1-0.3,0-0.3,0c-0.1,0.2-0.2,0.4-0.3,0.6
		c0,0.2,0.1,0.5,0.2,0.7c0.7,1.5,0.9,1.6,2.3,1.2c0.5-0.2,1.1-0.5,1.7-0.5c-0.1,0.9-0.1,1.8-0.1,2.7v7.8c0,4.3,0.7,7.6,2.2,9.9
		c1.5,2.3,3.6,3.5,6.4,3.5c2.8,0,4.8-0.7,6-2.1c1.2-1.4,2-3.9,2.3-7.5h5.4c-0.2,4.6-1.5,8.1-3.9,10.5c-2.3,2.4-5.6,3.6-9.9,3.6
		c-4.3,0-7.7-1.6-10.2-4.9c-2.5-3.3-3.8-7.7-3.8-13.2v-7.7c0-3.6,0.5-6.6,1.6-9.3c1.2,0.7,2.7,0.3,3.6-1.1c0.1-0.1,0-0.2,0.1-0.3
		c-0.1-0.2-0.2-0.5-0.4-0.5c-0.7-0.2-1.4-0.3-2.1-0.4c0.3-0.5,0.7-1.1,1.1-1.5c1.4-1.8,3.2-3.1,5.2-3.9c-0.3,0.3-0.5,0.7-0.7,1.1
		c-0.2,0.3-0.3,0.6-0.1,0.9c0.4,0.7,0.8,1.4,1.2,2.1c0.1,0.2,0.4,0.2,0.6,0.3c0,0,0.2-0.1,0.2-0.2c0.3-1.1,0.7-2.2,0.8-2.7
		c0-0.8,0-0.9,0-1c-0.1-0.4-0.2-0.8-0.6-0.9c1.2-0.3,2.6-0.5,4-0.5c2.1,0,4,0.3,5.7,1c0,0,0,0.1-0.1,0.1c-0.1,0.3-0.3,0.7-0.2,0.9
		c0.7,0.7,1.5,1.3,2.5,0.9c0.2-0.1,0.4-0.1,0.5-0.2c0.4,0.3,0.8,0.7,1.1,1.1c2.3,2.5,3.5,6,3.7,10.6h-5.4c0-0.6-0.1-1.2-0.2-1.8
		c0.2-0.1,0.4-0.2,0.4-0.4c0.2-0.6,0.4-1.3,0.5-2c0.1-0.8,0.5-1.2,1.2-1.5c0.3-0.1,0.5-0.4,0.7-0.6C73.5,93.6,73.5,93.3,73.3,93z
		 M111.7,89.2c-0.3,0.1-0.5,0.4-0.4,0.8c0.1,0.3,0.2,0.5,0.4,0.8v3.4c-0.1,0.1-0.2,0.1-0.3,0.2c0.1,0.1,0.2,0.2,0.3,0.2v34.8h-5.4
		v-19.7H89.1v19.7h-5.4v-8.6c0,0,0.1-0.1,0.1-0.1c0-0.2-0.1-0.3-0.1-0.5v-25c0.1-0.2,0.2-0.4,0.2-0.5c0-0.1-0.1-0.2-0.2-0.3v-3.7
		c0.5-0.2,1-0.3,1.5-0.5c0.2-0.1,0.2-0.4,0.4-0.7c-0.2-0.3-0.4-0.7-0.8-0.9c-0.4-0.3-0.8-0.4-1.1-0.1v-1.7h2.5
		c0.1,0.1,0.1,0.2,0.2,0.2c0.4,0.1,0.7,0,0.9-0.2h1.7v6.7c-0.2-0.3-0.4-0.5-0.9-0.5c-0.8-0.1-1.3,0.4-1.7,1c-0.2,0.3-0.3,0.6-0.4,1
		c0,0.2,0.2,0.5,0.3,0.5c0.9-0.1,1.8-0.2,2.7-0.3V105h17.2V93.1c1.2-0.4,2.1-1.3,2.9-2.4c0.1-0.1,0-0.2,0-0.3
		c-0.2-0.1-0.4-0.3-0.6-0.3c-0.9,0.2-1.6,0.6-2.3,1.1v-4.5h2.1c-0.1,0.1-0.2,0.3-0.2,0.4c-0.2,0.5,0.1,0.9,0.5,1.1
		c0.5,0.3,1.4,0.2,1.6-0.1c0-0.1,0-0.3-0.1-0.3c-0.6-0.5-0.4-0.8-0.1-1.2h1.6V89.2z M143.9,129.3h-11.1c0.1-0.4,0.2-0.8,0.2-1.3
		c0-0.2-0.1-0.4-0.2-0.6c-0.1,0.1-0.3,0.2-0.4,0.4c-0.3,0.5-0.7,1-0.9,1.6H121v-8.6c0.1-0.1,0.1-0.3,0.1-0.3c0,0,0,0-0.1,0v-13.7
		c0.1,0.1,0.2,0.2,0.3,0.3c0.2-0.3,0.5-0.5,0.6-0.8c0.1-0.2-0.1-0.5-0.2-0.6c-0.2-0.1-0.5,0-0.6,0.2V89.4c0.2,0.2,0.5,0.2,0.9,0.1
		c0.8-0.2,1.2,0.5,1.8,0.7c0.3,0.1,0.7,0.1,1,0.1c0.2,0,0.3-0.3,0.4-0.4c0-0.1,0-0.3-0.1-0.3c-0.2-0.2-0.5-0.4-0.8-0.7
		c-0.8-0.8-0.8-0.8-0.2-2c0-0.1,0.1-0.2,0.1-0.3h6.5c-0.2,0.1-0.3,0.3-0.5,0.7c-0.1,0.2-0.1,0.7,0.1,0.9c0.6,0.4,1.5,0.2,1.8-0.3
		c0.1-0.5-0.2-0.8-0.5-1.1c0,0-0.1-0.1-0.1-0.1h12.2v4.6h-17.3V105h15.1v4.6h-15.1v15.1h17.6V129.3z M168,90.7
		c-0.2,0.1-0.4,0.1-0.5,0.3c0,0.1,0,0.2,0,0.3c-0.9-0.4-2-0.6-3.3-0.6c-1.3,0-2.4,0.2-3.4,0.7c-0.2-0.1-0.3-0.1-0.5-0.1
		c-0.3,0-0.6,0.2-0.9,0.3c0.2,0.1,0.3,0.2,0.5,0.3c-0.9,0.6-1.7,1.3-2.4,2.3c-1.6,2.3-2.3,5.6-2.3,10v7.8c0,4.3,0.7,7.6,2.2,9.9
		c1.5,2.3,3.6,3.5,6.4,3.5c2.8,0,4.8-0.7,6-2.1c1.2-1.4,2-3.9,2.3-7.5h5.4c-0.2,4.6-1.5,8.1-3.9,10.5c-2.3,2.4-5.6,3.6-9.9,3.6
		c-4.3,0-7.7-1.6-10.2-4.9c-2.5-3.3-3.8-7.7-3.8-13.2v-7.7c0-1.6,0.1-3.1,0.3-4.5c0.1,0.1,0.2,0.2,0.3,0.3c0.1-0.2,0.2-0.4,0.3-0.5
		c-0.2,0-0.4,0-0.5,0c0,0,0,0-0.1,0c0.5-3.4,1.7-6.2,3.5-8.4c2.6-3.2,6.1-4.8,10.6-4.8c4.1,0,7.3,1.2,9.6,3.7
		c2.3,2.5,3.5,6,3.7,10.6h-5.4c-0.2-3.5-1-6-2.2-7.4c-0.5-0.7-1.2-1.2-2-1.5c0.1,0,0.2-0.1,0.3-0.2C168.2,91.1,168.1,90.9,168,90.7z
		 M206.2,129.3l-11.9-19.7l-4.2,5.1v14.6h-5.4V92.8c0,0,0,0,0,0.1c0,0,0.1,0.1,0.2,0.1c-0.1-0.1-0.1-0.1-0.2-0.2v-6.1h5.4v2.1
		c0,0-0.1,0-0.1,0c0,0,0.1,0.1,0.1,0.1v18.4l3.5-4.7l2.4-3.3c0,0,0.1,0,0.1-0.1c0,0,0,0,0,0l9.1-12.6h6.4l-13.9,18.8l14.9,23.9
		H206.2z M244.3,111.7c0,5.8-1.2,10.3-3.7,13.4c-2.5,3.1-6,4.7-10.6,4.7c-4.4,0-7.9-1.5-10.4-4.6c-1.5-1.8-2.6-4-3.2-6.7
		c0.1,0,0.2,0,0.3-0.2c0.3-0.4,0.6-0.7,0.8-1.1c0.1-0.2,0.3-0.6,0.2-0.6c-0.3-0.2-0.6-0.3-0.7-0.4c-0.5,0-0.8,0.1-1,0.2
		c-0.2-1.3-0.3-2.7-0.3-4.2v-8c0-5.7,1.3-10.2,3.8-13.4c2.5-3.2,6-4.8,10.5-4.8c4.5,0,8,1.5,10.5,4.6c2.5,3.1,3.8,7.5,3.9,13.3
		V111.7z M278,116.5C278,116.5,278,116.5,278,116.5c0,0-0.1,0.1-0.1,0.2c0,0,0.1,0,0.1,0v0.2c0,4-1.2,7.2-3.5,9.5
		c-2.3,2.3-5.5,3.4-9.6,3.4c-4.2,0-7.4-1.1-9.7-3.4c-2.2-2.2-3.4-5.4-3.4-9.6V86.7h5.3v22.3c-0.6,0.2-1,0.8-1.1,1.6
		c0,0.1,0.3,0.4,0.4,0.4c0.3-0.1,0.5-0.1,0.7-0.2v6c0,2.9,0.6,5,1.8,6.4c1.2,1.4,3.2,2.1,5.9,2.1c2.7,0,4.7-0.7,5.9-2.1
		c1.2-1.4,1.8-3.6,1.8-6.4V86.7h5.4V116.5z M311.2,91.3H300v38h-5.4v-38h-11.2v-4.6h27.8V91.3z"/>
	<path class="st0" d="M256.6,93.7c-0.2-0.1-0.3-0.3-0.5-0.3c-0.2,0-0.4,0.1-0.5,0.2c0.2,0.1,0.3,0.2,0.5,0.3
		C256.3,93.9,256.5,93.8,256.6,93.7z"/>
	<path class="st0" d="M229.9,90.9c-2.9,0-5.2,1.1-6.7,3.3c-0.8,1.1-1.4,2.6-1.7,4.3c-0.1,0.1-0.3,0.1-0.3,0.2
		c-0.1,0.1,0.1,0.3,0.2,0.5c-0.3,1.4-0.4,3-0.4,4.8v7.6c0,4.4,0.8,7.7,2.3,10c1.5,2.3,3.8,3.4,6.8,3.4c3,0,5.2-1.1,6.7-3.2
		c1.4-2.1,2.2-5.3,2.3-9.7v-8c0-4.5-0.7-7.9-2.2-10.1C235.2,92,233,90.9,229.9,90.9z"/>
	<path class="st0" d="M216.4,99.7c0.1,0.1,0.4,0.2,0.5,0.3c0.1-0.2,0.2-0.4,0.2-0.6c-0.2-0.1-0.4-0.2-0.6-0.2
		C216.5,99.4,216.3,99.6,216.4,99.7z"/>
	<path class="st0" d="M222.8,127.7c0.2,0.1,0.3,0.2,0.5,0.3c0,0,0.2-0.2,0.2-0.2c-0.1-0.2-0.2-0.3-0.3-0.5
		C223.1,127.4,222.9,127.5,222.8,127.7z"/>
	<path class="st0" d="M254,96c0.1,0.2,0.2,0.4,0.2,0.6c0.2-0.1,0.5-0.1,0.5-0.3c0.1-0.1-0.1-0.4-0.2-0.5
		C254.3,95.8,254.2,95.9,254,96z"/>
	<path class="st0" d="M296.4,90.3c-0.1,0.1-0.1,0.2-0.2,0.3c0,0,0,0,0,0.1c0,0,0,0,0.1,0C296.3,90.5,296.3,90.4,296.4,90.3z"/>
	<path class="st0" d="M298.5,113.2c-0.1-0.1-0.1-0.2-0.2-0.2c-0.1,0-0.2,0.1-0.3,0.1c0.1,0.1,0.1,0.2,0.2,0.2
		C298.4,113.3,298.5,113.3,298.5,113.2z"/>
	<path class="st0" d="M295.6,91.3c0.2-0.2,0.3-0.5,0.5-0.8c-0.3,0.1-0.6,0.1-0.9,0.3c-0.1,0.1-0.1,0.3-0.2,0.5
		C295.3,91.4,295.5,91.4,295.6,91.3z"/>
	<path class="st0" d="M273.1,122.4c0.1-0.1,0.2-0.3,0.3-0.4c-0.2-0.1-0.4-0.2-0.5-0.3c0,0.2-0.1,0.4,0,0.6
		C272.9,122.3,273.1,122.4,273.1,122.4z"/>
	<path class="st0" d="M187.4,93.3C187.5,93.3,187.5,93.3,187.4,93.3C187.5,93.3,187.5,93.3,187.4,93.3
		C187.5,93.3,187.5,93.3,187.4,93.3C187.4,93.3,187.4,93.3,187.4,93.3z"/>
	<path class="st0" d="M296.4,103.2c0.2,0.3,0.3,0.5,0.5,0.7c0,0,0.3-0.1,0.5-0.2c-0.1-0.3-0.3-0.6-0.5-0.8c-0.1-0.1-0.3,0-0.5,0
		C296.4,103,296.3,103.2,296.4,103.2z"/>
	<path class="st0" d="M186.3,94.2c0,0,0.2,0.2,0.2,0.2c0.3-0.1,0.6-0.2,0.7-0.4c0.1-0.1,0.1-0.4,0.1-0.6c-0.2,0-0.5,0-0.6,0.1
		C186.6,93.6,186.5,93.9,186.3,94.2z"/>
	<path class="st0" d="M158.9,88.4c-0.1,0-0.2-0.1-0.3-0.1C158.7,88.3,158.8,88.4,158.9,88.4c0.1,0.1,0.1,0.1,0.2,0.2
		C159.1,88.5,159,88.5,158.9,88.4L158.9,88.4z"/>
	<path class="st0" d="M167.5,88.2c-0.3,0.2-0.5,0.4-0.7,0.7c-0.1,0.1,0.1,0.4,0.2,0.6c0,0,0.3,0,0.3-0.1c0.2-0.3,0.3-0.6,0.5-0.8
		C167.7,88.4,167.5,88.2,167.5,88.2z"/>
	<path class="st0" d="M201.6,114c-0.1,0.1-0.1,0.2-0.2,0.2c-0.1,0.1-0.1,0.2-0.2,0.3c0.1-0.1,0.1-0.2,0.2-0.2
		C201.5,114.2,201.5,114.1,201.6,114z"/>
	<path class="st0" d="M188.4,93c-0.2-0.1-0.4-0.2-0.5-0.2c-0.2,0.1-0.3,0.3-0.4,0.4c0.2,0,0.4,0,0.6-0.1
		C188.2,93.2,188.3,93.1,188.4,93z"/>
	<path class="st0" d="M200.6,116.8c0.3-0.1,0.6-0.1,0.9-0.3c0.1-0.1,0.1-0.4,0.2-0.5c-0.1-0.1-0.2-0.2-0.3-0.2c-0.5,0-0.8,0.2-1,0.7
		C200.4,116.6,200.5,116.8,200.6,116.8z"/>
	<path class="st0" d="M188,102.7c-0.1,0.1-0.2,0.3-0.3,0.5c0.2,0.1,0.4,0.3,0.6,0.2c0.1-0.1,0.2-0.3,0.3-0.5
		C188.4,102.8,188.2,102.7,188,102.7z"/>
	<path class="st1" d="M301.1,51H58.9c-31.5,0-57,25.5-57,57v0c0,31.5,25.5,57,57,57h242.1c31.5,0,57-25.5,57-57v0
		C358.1,76.5,332.6,51,301.1,51z M301.1,159.9H58.9c-28.6,0-51.9-23.3-51.9-51.9c0-28.6,23.3-51.9,51.9-51.9h242.1
		c28.6,0,51.9,23.3,51.9,51.9C352.9,136.6,329.7,159.9,301.1,159.9z"/>
	<path class="st2" d="M73,94.6c-0.7,0.3-1.1,0.7-1.2,1.5c-0.1,0.7-0.2,1.3-0.5,2c-0.1,0.2-0.2,0.3-0.4,0.4c0.1,0.6,0.1,1.2,0.2,1.8
		h5.4c-0.2-4.6-1.4-8.1-3.7-10.6c-0.4-0.4-0.7-0.7-1.1-1.1c-0.2,0.1-0.3,0.2-0.5,0.2c-1,0.4-1.8-0.2-2.5-0.9c-0.1-0.1,0-0.6,0.2-0.9
		c0,0,0-0.1,0.1-0.1c-1.6-0.7-3.5-1-5.7-1c-1.4,0-2.8,0.2-4,0.5c0.4,0.2,0.5,0.5,0.6,0.9c0,0.1,0,0.2,0,1c-0.1,0.5-0.5,1.6-0.8,2.7
		c0,0.1-0.2,0.2-0.2,0.2c-0.2-0.1-0.5-0.1-0.6-0.3c-0.4-0.7-0.7-1.4-1.2-2.1c-0.2-0.4-0.1-0.6,0.1-0.9c0.2-0.4,0.5-0.7,0.7-1.1
		c-2,0.8-3.7,2.1-5.2,3.9c-0.4,0.5-0.7,1-1.1,1.5c0.7,0.1,1.4,0.3,2.1,0.4c0.1,0,0.2,0.3,0.4,0.5c0,0.1,0,0.2-0.1,0.3
		c-0.9,1.3-2.4,1.8-3.6,1.1c-1.1,2.6-1.6,5.7-1.6,9.3v7.7c0,5.6,1.3,10,3.8,13.2c2.5,3.3,5.9,4.9,10.2,4.9c4.3,0,7.6-1.2,9.9-3.6
		c2.3-2.4,3.6-5.9,3.9-10.5h-5.4c-0.3,3.6-1.1,6.1-2.3,7.5c-1.2,1.4-3.2,2.1-6,2.1c-2.8,0-4.9-1.2-6.4-3.5c-1.5-2.3-2.2-5.6-2.2-9.9
		v-7.8c0-1,0-1.9,0.1-2.7c-0.6,0-1.1,0.3-1.7,0.5c-1.4,0.4-1.6,0.3-2.3-1.2c-0.1-0.2-0.2-0.4-0.2-0.7c0-0.2,0.1-0.4,0.3-0.6
		c0,0,0.2-0.1,0.3,0c0.8,0.8,1.9,0.7,2.9,0.6c0.3,0,0.6,0,0.8,0c0.2-1.5,0.6-2.9,1-4c0-0.2-0.1-0.3-0.2-0.5c-0.5-1.1-0.2-2,0.6-2.8
		c0.6-0.7,1.2-0.7,1.7,0c0,0,0,0,0,0.1c1-0.9,2.1-1.5,3.5-1.8c0.1-0.6,0.3-1.3,0.4-1.9c0-0.1,0.4-0.3,0.6-0.3c0.2,0,0.4,0.3,0.4,0.5
		c-0.1,0.5-0.2,1-0.4,1.5c0.4,0,0.7-0.1,1.1-0.1c0.1,0,0.3,0,0.4,0c0-0.1-0.1-0.2-0.1-0.2c0.2,0,0.4-0.2,0.5-0.1
		c0.1,0.1,0.2,0.2,0.2,0.4c1.4,0.1,2.5,0.5,3.5,1.2c0.4-1.2,0.7-1.2,2.3-0.6c0.2,0.1,0.4,0.3,0.4,0.4c0,0.2-0.2,0.5-0.3,0.5
		c-0.4,0.2-0.9,0.3-1.3,0.4c-0.1,0-0.2,0-0.3,0c0.1,0.1,0.2,0.2,0.3,0.3c0.4,0.5,0.8,1.2,1.1,2c0,0,0.1-0.1,0.1-0.1
		c0.9-0.5,1.4-1.1,1.7-2.1c0.1-0.2,0.5-0.5,0.7-0.5c0.3,0.1,0.5,0.4,0.7,0.7c0.2,0.3,0.2,0.6,0.4,1C73.4,94.2,73.2,94.5,73,94.6z
		 M50.6,108.7c0.1-0.1,0.3-0.2,0.5-0.3c0,0.2,0.1,0.4,0.1,0.6c-0.2,0.1-0.4,0.2-0.5,0.2C50.7,109,50.6,108.8,50.6,108.7z"/>
	<path class="st2" d="M110.2,87.8c0.1,0.1,0.1,0.2,0.1,0.3c-0.2,0.3-1.1,0.4-1.6,0.1c-0.4-0.2-0.7-0.7-0.5-1.1
		c0.1-0.1,0.1-0.3,0.2-0.4h-2.1v4.5c0.7-0.5,1.4-0.9,2.3-1.1c0.2,0,0.4,0.2,0.6,0.3c0,0.1,0.1,0.3,0,0.3c-0.7,1.1-1.6,2-2.9,2.4V105
		H89.1V94.9c-0.9,0.1-1.8,0.2-2.7,0.3c-0.1,0-0.3-0.4-0.3-0.5c0.1-0.3,0.2-0.7,0.4-1c0.4-0.6,0.9-1.1,1.7-1c0.4,0.1,0.7,0.3,0.9,0.5
		v-6.7h-1.7c-0.2,0.3-0.5,0.4-0.9,0.2c-0.1,0-0.2-0.1-0.2-0.2h-2.5v1.7c0.3-0.3,0.7-0.2,1.1,0.1c0.3,0.3,0.5,0.7,0.8,0.9
		c-0.2,0.4-0.2,0.7-0.4,0.7c-0.5,0.2-1,0.4-1.5,0.5v3.7c0.2,0.1,0.3,0.1,0.2,0.3c0,0.2-0.1,0.4-0.2,0.5v25c0,0.2,0.1,0.3,0.1,0.5
		c0,0-0.1,0.1-0.1,0.1v8.6h5.4v-19.7h17.2v19.7h5.4V94.6c-0.1-0.1-0.2-0.2-0.3-0.2c0.1,0,0.2-0.1,0.3-0.2v-3.4
		c-0.1-0.2-0.3-0.5-0.4-0.8c-0.1-0.4,0-0.7,0.4-0.8v-2.6h-1.6C109.8,87,109.6,87.4,110.2,87.8z M88.4,88.1c0.1-0.1,0.4,0.1,0.5,0.2
		c-0.1,0.2-0.1,0.5-0.3,0.5c-0.1,0.1-0.4-0.1-0.5-0.2C88.2,88.4,88.2,88.1,88.4,88.1z M85.7,126.3c-0.2-0.1-0.5-0.2-0.5-0.3
		c0-0.3,0.1-0.6,0.1-1c0.3,0.1,0.6,0.3,0.6,0.3C85.9,125.7,85.8,126,85.7,126.3z M86.3,111.2c-0.3,0-0.6-0.2-0.8-0.5
		c-0.3-0.3,0.1-0.8,0.7-0.9c0.2,0,0.5,0.2,0.7,0.2C87.1,110.7,86.8,111.3,86.3,111.2z M87,106.8c0.1,0,0.2,0,0.3-0.1
		c0,0.1,0,0.2,0.1,0.2C87.2,106.9,87.1,106.9,87,106.8z M87.3,98.8c-0.2-0.2-0.4-0.4-0.6-0.6c0.2-0.1,0.6-0.4,0.7-0.4
		c0.3,0.1,0.4,0.5,0.6,0.7C87.8,98.6,87.6,98.7,87.3,98.8z M91,107.4c-0.1,0-0.2-0.1-0.2-0.1c0-0.1,0.1-0.2,0.1-0.3
		c0.1,0,0.2,0.1,0.2,0.1C91.1,107.3,91,107.3,91,107.4z M110.5,113.7c-0.1-0.1-0.2-0.2-0.2-0.3c0.1,0,0.2-0.1,0.2-0.1
		c0.1,0,0.1,0.1,0.1,0.2C110.6,113.6,110.6,113.7,110.5,113.7z M110.5,98.9c0,0.1-0.2,0.2-0.2,0.2c-0.8-0.2-1.5-0.4-2.3-0.7
		c-0.3-0.1-0.5-0.5-0.2-0.9c0.1-0.2,0.3-0.3,0.5-0.4c0.2,0,0.5-0.1,0.6,0.1c0.5,0.4,1,0.9,1.5,1.4C110.5,98.7,110.6,98.8,110.5,98.9
		z"/>
	<path class="st2" d="M126.3,109.6h15.1V105h-15.1V91.3h17.3v-4.6h-12.2c0,0,0.1,0,0.1,0.1c0.4,0.3,0.7,0.6,0.5,1.1
		c-0.3,0.5-1.2,0.7-1.8,0.3c-0.2-0.1-0.2-0.6-0.1-0.9c0.2-0.3,0.3-0.5,0.5-0.7h-6.5c0,0.1-0.1,0.2-0.1,0.3c-0.6,1.2-0.7,1.2,0.2,2
		c0.2,0.2,0.5,0.4,0.8,0.7c0.1,0.1,0,0.2,0.1,0.3c-0.1,0.2-0.3,0.4-0.4,0.4c-0.3,0.1-0.7,0-1-0.1c-0.6-0.2-1.1-0.9-1.8-0.7
		c-0.3,0.1-0.7,0.1-0.9-0.1v16.5c0.2-0.2,0.4-0.4,0.6-0.2c0.2,0.1,0.3,0.4,0.2,0.6c-0.1,0.3-0.4,0.5-0.6,0.8
		c-0.1-0.1-0.2-0.2-0.3-0.3v13.7c0,0,0,0,0.1,0c0,0,0,0.2-0.1,0.3v8.6h10.5c0.3-0.5,0.6-1.1,0.9-1.6c0.1-0.2,0.3-0.2,0.4-0.4
		c0.1,0.2,0.2,0.4,0.2,0.6c0,0.5-0.1,0.9-0.2,1.3h11.1v-4.6h-17.6V109.6z M134.4,88.5c0.1,0,0.2,0,0.3,0c0.1,0,0.2,0,0.3,0.1
		c0.1,0,0.1,0.2,0.2,0.2c-0.2,0.1-0.4,0.3-0.6,0.3c-0.3,0-0.7-0.1-1-0.2C133.9,88.8,134.2,88.6,134.4,88.5z M127.9,88.4
		c0.4,0.2,0.7,0.2,0.9,0.4c0.2,0.2,0.4,0.5,0.4,0.8c0,0.4-0.6,0.6-1,0.4c-0.2-0.1-0.4-0.2-0.6-0.3c-0.2-0.2-0.4-0.6-0.4-0.8
		C127.2,88.8,127.6,88.6,127.9,88.4z M123.6,120.8c-0.2-0.1-0.3-0.2-0.5-0.4c0.1-0.1,0.3-0.2,0.4-0.3c0.1,0.2,0.2,0.3,0.3,0.5
		C123.8,120.6,123.6,120.8,123.6,120.8z M123.8,94.3c0.2,0,0.3,0,0.5,0.1c-0.1,0-0.2,0.1-0.3,0.1C124,94.5,123.9,94.4,123.8,94.3z
		 M124.4,115.2c0-0.1-0.1-0.2-0.1-0.3c0-0.1,0.1-0.1,0.2-0.2c0,0.1,0.1,0.2,0.1,0.3C124.5,115,124.4,115.1,124.4,115.2z
		 M124.8,100.1c-0.1,0-0.2,0-0.3-0.1c0-0.1,0.1-0.2,0.1-0.2c0.1,0,0.2,0,0.3,0.1C124.9,100,124.8,100.1,124.8,100.1z M139.2,126.9
		c0,0,0.1,0,0.1-0.1c0,0,0-0.1,0.1-0.1c0.1-0.1,0.1-0.2,0.2-0.3c-0.1,0.1-0.1,0.2-0.2,0.3c0,0-0.1,0-0.1,0c-0.1,0.1-0.1,0.2-0.2,0.2
		C139.1,127,139.1,126.9,139.2,126.9z M127.6,125.6c0.1,0,0.2,0,0.3,0.1c0.1,0.3,0.2,0.6,0.3,0.8c-0.1,0.2-0.1,0.3-0.2,0.3
		c0,0-0.2,0-0.2,0c-0.1-0.4-0.3-0.7-0.4-1.1C127.3,125.8,127.5,125.7,127.6,125.6z M126.7,128.4c0.1,0,0.2,0,0.3,0.1
		c0,0.1-0.1,0.2-0.1,0.2c-0.1,0-0.2,0-0.3-0.1C126.7,128.5,126.7,128.4,126.7,128.4z M125.3,105.7c0-0.2-0.2-0.4-0.1-0.5
		c0.1-0.2,0.3-0.2,0.5-0.3c0,0.2,0.1,0.4,0.1,0.6C125.7,105.5,125.5,105.6,125.3,105.7z M126,87.5c0,0,0-0.2-0.1-0.2
		c0.1,0,0.2-0.1,0.3-0.1c0,0.1,0,0.2,0.1,0.3C126.2,87.5,126.1,87.6,126,87.5z"/>
	<path class="st2" d="M121,86.7v0.4c0.1-0.1,0.2-0.3,0.3-0.4H121z"/>
	<path class="st2" d="M167.9,91.4c0.8,0.4,1.5,0.9,2,1.5c1.2,1.5,2,4,2.2,7.4h5.4c-0.2-4.6-1.4-8.1-3.7-10.6
		c-2.3-2.5-5.4-3.7-9.6-3.7c-4.5,0-8,1.6-10.6,4.8c-1.8,2.2-3,5.1-3.5,8.4c0,0,0,0,0.1,0c0.2,0,0.4,0,0.5,0
		c-0.1,0.2-0.2,0.3-0.3,0.5c-0.1-0.1-0.2-0.2-0.3-0.3c-0.2,1.4-0.3,2.9-0.3,4.5v7.7c0,5.6,1.3,10,3.8,13.2c2.5,3.3,5.9,4.9,10.2,4.9
		c4.3,0,7.6-1.2,9.9-3.6c2.3-2.4,3.6-5.9,3.9-10.5h-5.4c-0.3,3.6-1.1,6.1-2.3,7.5c-1.2,1.4-3.2,2.1-6,2.1c-2.8,0-4.9-1.2-6.4-3.5
		c-1.5-2.3-2.2-5.6-2.2-9.9v-7.8c0-4.4,0.8-7.7,2.3-10c0.7-1,1.5-1.7,2.4-2.3c-0.1-0.1-0.3-0.2-0.5-0.3c0.3-0.1,0.6-0.2,0.9-0.3
		c0.2,0,0.3,0,0.5,0.1c1-0.4,2.2-0.7,3.4-0.7c1.3,0,2.3,0.2,3.3,0.6c0-0.1-0.1-0.2,0-0.3c0.1-0.1,0.3-0.2,0.5-0.3
		c0.1,0.2,0.2,0.4,0.1,0.5C168.1,91.3,168,91.4,167.9,91.4z M175.5,99.1c0.1,0,0.2,0,0.3,0.1c0,0.1-0.1,0.2-0.1,0.2
		c-0.1,0-0.2,0-0.3-0.1C175.5,99.2,175.5,99.1,175.5,99.1z M173.2,91.3c0.2,0,0.3,0.2,0.5,0.3c-0.2,0.1-0.4,0.2-0.5,0.3
		c-0.2-0.1-0.3-0.2-0.5-0.3C172.8,91.5,173,91.3,173.2,91.3z M171.7,120.7c0.3-0.2,0.6-0.3,0.9-0.4c0.8-0.3,1.6,0.4,1.5,1.5
		c-0.2,0.1-0.5,0.6-0.8,0.6c-0.5,0-1.1-0.3-1.6-0.5c-0.2-0.1-0.5-0.4-0.4-0.4C171.3,121.2,171.5,120.9,171.7,120.7z M157.1,91.5
		c0-0.1-0.1-0.2-0.1-0.3c0-0.1,0.1-0.1,0.2-0.2c0,0.1,0.1,0.2,0.1,0.3C157.3,91.3,157.2,91.4,157.1,91.5z M158.9,88.5
		c-0.1-0.1-0.2-0.1-0.2-0.2C158.7,88.3,158.8,88.4,158.9,88.5L158.9,88.5c0.1,0,0.2,0.1,0.3,0.1C159.1,88.6,159,88.5,158.9,88.5z
		 M167.3,89.3c-0.1,0.1-0.3,0.1-0.3,0.1c-0.1-0.2-0.3-0.5-0.2-0.6c0.2-0.3,0.5-0.5,0.7-0.7c0,0,0.1,0.2,0.3,0.3
		C167.7,88.8,167.5,89.1,167.3,89.3z"/>
	<path class="st2" d="M211.6,86.7h-6.4l-9.1,12.6c0,0,0,0,0,0c0,0-0.1,0-0.1,0.1l-2.4,3.3l-3.5,4.7V88.8c0,0-0.1-0.1-0.1-0.1
		c0,0,0.1,0,0.1,0v-2.1h-5.4v6.1c0.1,0.1,0.1,0.1,0.2,0.2c-0.1,0-0.1,0-0.2-0.1c0,0,0,0,0-0.1v36.5h5.4v-14.6l4.2-5.1l11.9,19.7h6.4
		l-14.9-23.9L211.6,86.7z M187.5,93.3C187.5,93.3,187.5,93.3,187.5,93.3c-0.1,0.2-0.1,0.5-0.2,0.6c-0.2,0.2-0.5,0.3-0.7,0.4
		c0,0-0.2-0.2-0.2-0.2c0.1-0.3,0.3-0.5,0.5-0.7C187,93.3,187.2,93.4,187.5,93.3C187.4,93.3,187.4,93.3,187.5,93.3
		C187.5,93.3,187.5,93.3,187.5,93.3c0.2-0.2,0.3-0.4,0.4-0.5c0.1-0.1,0.3,0.1,0.5,0.2c-0.1,0.1-0.2,0.2-0.3,0.2
		C187.9,93.3,187.7,93.3,187.5,93.3C187.5,93.3,187.5,93.3,187.5,93.3z M188.3,103.4c-0.1,0.1-0.4-0.1-0.6-0.2
		c0.1-0.2,0.1-0.5,0.3-0.5c0.1-0.1,0.4,0.1,0.6,0.2C188.5,103.1,188.5,103.4,188.3,103.4z M189.9,108.8c-0.1-0.2-0.3-0.3-0.3-0.5
		c0-0.2,0.2-0.3,0.3-0.5c0.1,0.2,0.2,0.3,0.3,0.5C190.1,108.5,190,108.7,189.9,108.8z M201.4,114.2c0.1-0.1,0.1-0.2,0.2-0.2
		C201.5,114.1,201.5,114.2,201.4,114.2c0,0.1-0.1,0.2-0.2,0.3C201.3,114.4,201.3,114.3,201.4,114.2z M201.4,115.8
		c0.1,0,0.2,0.1,0.3,0.2c-0.1,0.2-0.1,0.5-0.2,0.5c-0.3,0.1-0.6,0.2-0.9,0.3c0,0-0.2-0.2-0.2-0.2C200.6,116,200.9,115.8,201.4,115.8
		z"/>
	<path class="st2" d="M229.9,86.1c-4.5,0-8,1.6-10.5,4.8c-2.5,3.2-3.8,7.7-3.8,13.4v8c0,1.5,0.1,2.9,0.3,4.2c0.2-0.1,0.5-0.2,1-0.2
		c0.2,0.1,0.5,0.2,0.7,0.4c0.1,0-0.1,0.4-0.2,0.6c-0.2,0.4-0.5,0.8-0.8,1.1c-0.1,0.1-0.2,0.2-0.3,0.2c0.7,2.7,1.7,4.9,3.2,6.7
		c2.5,3.1,6,4.6,10.4,4.6c4.6,0,8.1-1.6,10.6-4.7c2.5-3.1,3.7-7.6,3.7-13.4V104c-0.1-5.7-1.3-10.2-3.9-13.3
		C237.9,87.6,234.4,86.1,229.9,86.1z M216.9,100c-0.2-0.1-0.5-0.1-0.5-0.3c-0.1-0.1,0.1-0.4,0.2-0.6c0.2,0.1,0.4,0.2,0.6,0.2
		C217.1,99.6,217,99.8,216.9,100z M223.3,127.9c-0.2-0.1-0.3-0.2-0.5-0.3c0.2-0.1,0.3-0.3,0.4-0.4c0.1,0.2,0.2,0.3,0.3,0.5
		C223.5,127.7,223.3,127.9,223.3,127.9z M238.9,112.3c-0.1,4.4-0.8,7.6-2.3,9.7c-1.4,2.1-3.7,3.2-6.7,3.2c-3,0-5.3-1.1-6.8-3.4
		c-1.5-2.3-2.3-5.6-2.3-10v-7.6c0-1.8,0.2-3.4,0.4-4.8c-0.1-0.2-0.2-0.4-0.2-0.5c0-0.1,0.2-0.2,0.3-0.2c0.4-1.7,1-3.1,1.7-4.3
		c1.5-2.2,3.7-3.3,6.7-3.3c3,0,5.3,1.1,6.8,3.3c1.5,2.2,2.2,5.6,2.2,10.1V112.3z"/>
	<path class="st2" d="M272.6,116.8c0,2.9-0.6,5-1.8,6.4c-1.2,1.4-3.2,2.1-5.9,2.1c-2.7,0-4.7-0.7-5.9-2.1c-1.2-1.4-1.8-3.6-1.8-6.4
		v-6c-0.3,0.1-0.5,0.2-0.7,0.2c-0.1,0-0.4-0.3-0.4-0.4c0.1-0.9,0.5-1.4,1.1-1.6V86.7h-5.3V117c0,4.1,1.2,7.3,3.4,9.6
		c2.2,2.2,5.4,3.4,9.7,3.4c4.1,0,7.3-1.1,9.6-3.4c2.3-2.3,3.5-5.4,3.5-9.5v-0.2c0,0-0.1,0-0.1,0c0-0.1,0.1-0.2,0.1-0.2c0,0,0,0,0,0
		V86.7h-5.4V116.8z M254.7,96.3c-0.1,0.1-0.3,0.2-0.5,0.3c-0.1-0.2-0.2-0.4-0.2-0.6c0.2-0.1,0.4-0.2,0.6-0.2
		C254.6,95.9,254.8,96.1,254.7,96.3z M256.2,93.4c0.2,0,0.3,0.2,0.5,0.3c-0.2,0.1-0.4,0.2-0.5,0.2c-0.2-0.1-0.3-0.2-0.5-0.3
		C255.8,93.6,256,93.4,256.2,93.4z M272.9,121.6c0.2,0.1,0.4,0.2,0.5,0.3c-0.1,0.1-0.2,0.3-0.3,0.4c0,0-0.3-0.1-0.3-0.2
		C272.8,122,272.9,121.8,272.9,121.6z"/>
	<path class="st2" d="M283.4,91.3h11.2v38h5.4v-38h11.2v-4.6h-27.8V91.3z M298.3,113c0.1,0,0.1,0.1,0.2,0.2c-0.1,0-0.2,0.1-0.3,0.1
		c-0.1,0-0.2-0.1-0.2-0.2C298.1,113.1,298.2,113,298.3,113z M297,102.9c0.2,0.2,0.3,0.5,0.5,0.8c-0.2,0.1-0.5,0.3-0.5,0.2
		c-0.2-0.2-0.4-0.5-0.5-0.7c0-0.1,0-0.3,0.1-0.3C296.6,102.9,296.9,102.8,297,102.9z M295.3,90.9c0.3-0.1,0.6-0.2,0.9-0.3
		c0,0,0,0,0-0.1c0.1-0.1,0.1-0.2,0.2-0.3c-0.1,0.1-0.1,0.2-0.2,0.3c0,0,0,0-0.1,0c-0.2,0.3-0.3,0.5-0.5,0.8c-0.1,0.1-0.3,0-0.5,0
		C295.2,91.2,295.2,90.9,295.3,90.9z"/>
</g>
</svg>
