<?xml version="1.0" encoding="utf-8"?>
<!-- Generator: Adobe Illustrator 22.1.0, SVG Export Plug-In . SVG Version: 6.00 Build 0)  -->
<svg version="1.1" id="Layer_1" xmlns="http://www.w3.org/2000/svg" xmlns:xlink="http://www.w3.org/1999/xlink" x="0px" y="0px"
	 viewBox="0 0 360 216" style="enable-background:new 0 0 360 216;" xml:space="preserve">
<style type="text/css">
	.st0{fill:#F1F2F2;}
</style>
<g>
	<g>
		<path class="st0" d="M11.7,108.1l5.1-12.5h3.5l-7.1,15.6v9.3h-3.1v-9.3L3.1,95.5h3.6L11.7,108.1z"/>
		<path class="st0" d="M39.3,110.2c0,3.4-0.7,6-2.2,7.9c-1.4,1.8-3.5,2.8-6.2,2.8c-2.6,0-4.6-0.9-6.1-2.7c-1.5-1.8-2.3-4.3-2.3-7.6
			v-4.7c0-3.3,0.7-5.9,2.2-7.8c1.5-1.9,3.5-2.8,6.2-2.8c2.6,0,4.7,0.9,6.1,2.7c1.5,1.8,2.2,4.4,2.2,7.7V110.2z M36.2,105.8
			c0-2.6-0.4-4.6-1.3-5.9c-0.9-1.3-2.2-1.9-4-1.9c-1.7,0-3,0.7-3.9,2c-0.9,1.3-1.3,3.2-1.3,5.7v4.5c0,2.5,0.4,4.5,1.3,5.8
			c0.9,1.3,2.2,2,4,2c1.8,0,3.1-0.6,3.9-1.8c0.8-1.2,1.3-3.1,1.3-5.7V105.8z"/>
		<path class="st0" d="M59,95.5v17.7c0,2.4-0.7,4.2-2.1,5.5c-1.3,1.3-3.2,2-5.6,2c-2.5,0-4.3-0.7-5.6-2c-1.3-1.3-2-3.2-2-5.6V95.5
			h3.1v17.6c0,1.7,0.4,2.9,1.1,3.8c0.7,0.8,1.9,1.2,3.4,1.2c1.6,0,2.8-0.4,3.5-1.2c0.7-0.8,1.1-2.1,1.1-3.8V95.5H59z"/>
		<path class="st0" d="M71.3,110.4H67v10.1h-3.1V95.5h7c2.4,0,4.3,0.6,5.5,1.9c1.3,1.3,1.9,3.1,1.9,5.6c0,1.5-0.3,2.9-1,4
			c-0.7,1.1-1.6,2-2.9,2.6l4.8,10.6v0.2h-3.4L71.3,110.4z M67,107.7h3.8c1.3,0,2.4-0.4,3.1-1.3c0.8-0.8,1.2-2,1.2-3.4
			c0-3.2-1.4-4.8-4.3-4.8H67V107.7z"/>
		<path class="st0" d="M106,112.5c-0.1,2.7-0.9,4.7-2.2,6.1c-1.4,1.4-3.3,2.1-5.8,2.1c-2.5,0-4.5-0.9-6-2.8
			c-1.5-1.9-2.2-4.5-2.2-7.7v-4.5c0-3.2,0.8-5.8,2.3-7.7c1.5-1.9,3.6-2.8,6.2-2.8c2.4,0,4.3,0.7,5.6,2.2c1.3,1.4,2,3.5,2.1,6.2h-3.2
			c-0.1-2-0.6-3.5-1.3-4.3c-0.7-0.9-1.8-1.3-3.3-1.3c-1.7,0-3,0.7-3.9,2c-0.9,1.3-1.4,3.3-1.4,5.8v4.6c0,2.5,0.4,4.5,1.3,5.8
			c0.8,1.3,2.1,2,3.7,2c1.6,0,2.8-0.4,3.5-1.2c0.7-0.8,1.2-2.3,1.3-4.4H106z"/>
		<path class="st0" d="M121.9,113.9h-8.4l-1.9,6.5h-3.2l8-24.9h2.7l8,24.9h-3.2L121.9,113.9z M114.3,111.3h6.8l-3.4-11.3
			L114.3,111.3z"/>
		<path class="st0" d="M138,110.4h-4.4v10.1h-3.1V95.5h7c2.4,0,4.3,0.6,5.5,1.9c1.3,1.3,1.9,3.1,1.9,5.6c0,1.5-0.3,2.9-1,4
			c-0.7,1.1-1.6,2-2.9,2.6l4.8,10.6v0.2h-3.4L138,110.4z M133.6,107.7h3.8c1.3,0,2.4-0.4,3.1-1.3c0.8-0.8,1.2-2,1.2-3.4
			c0-3.2-1.4-4.8-4.3-4.8h-3.8V107.7z"/>
		<path class="st0" d="M162.3,98.2h-6.6v22.2h-3.1V98.2H146v-2.7h16.2V98.2z"/>
		<path class="st0" d="M176.5,120.5h-3.1V95.5h3.1V120.5z"/>
		<path class="st0" d="M192.9,114.2c0-1.2-0.3-2.2-1-2.9c-0.7-0.7-1.9-1.3-3.6-1.9c-1.8-0.6-3.1-1.3-4-2c-0.9-0.7-1.6-1.5-2.1-2.4
			c-0.5-0.9-0.7-1.9-0.7-3c0-2,0.7-3.6,2-4.9c1.3-1.3,3-1.9,5.2-1.9c1.5,0,2.8,0.3,3.9,1c1.1,0.7,2,1.6,2.6,2.7
			c0.6,1.2,0.9,2.4,0.9,3.8h-3.1c0-1.5-0.4-2.7-1.1-3.6c-0.7-0.8-1.8-1.3-3.2-1.3c-1.3,0-2.2,0.4-2.9,1.1c-0.7,0.7-1,1.7-1,3
			c0,1.1,0.4,1.9,1.1,2.6c0.8,0.7,1.9,1.3,3.5,1.9c2.5,0.8,4.2,1.8,5.3,3c1.1,1.2,1.6,2.7,1.6,4.7c0,2-0.7,3.6-2,4.8
			c-1.3,1.2-3.1,1.8-5.4,1.8c-1.4,0-2.8-0.3-4-0.9c-1.2-0.6-2.2-1.5-2.9-2.7c-0.7-1.1-1.1-2.5-1.1-3.9h3.1c0,1.5,0.4,2.7,1.3,3.6
			c0.9,0.9,2,1.3,3.5,1.3c1.4,0,2.4-0.4,3.1-1.1C192.6,116.3,192.9,115.4,192.9,114.2z"/>
		<path class="st0" d="M220.1,108.9h-8.8v8.8h10.3v2.7h-13.4V95.5h13.2v2.7h-10.1v8h8.8V108.9z"/>
		<path class="st0" d="M229.6,95.5l6.5,20.3l6.5-20.3h4v24.9h-3.1v-9.7l0.3-9.7l-6.5,19.4h-2.4l-6.5-19.3l0.3,9.6v9.7h-3.1V95.5
			H229.6z"/>
		<path class="st0" d="M255.2,110.7v9.8h-3.1V95.5h7.9c2.3,0,4.1,0.7,5.5,2.1c1.3,1.4,2,3.2,2,5.5c0,2.4-0.6,4.2-1.9,5.5
			c-1.3,1.3-3,2-5.3,2H255.2z M255.2,108h4.8c1.4,0,2.5-0.4,3.2-1.3c0.7-0.8,1.1-2,1.1-3.6c0-1.5-0.4-2.7-1.1-3.6
			c-0.8-0.9-1.8-1.4-3.1-1.4h-4.8V108z"/>
		<path class="st0" d="M286,98.2h-6.6v22.2h-3.1V98.2h-6.5v-2.7H286V98.2z"/>
		<path class="st0" d="M296.5,108.1l5.1-12.5h3.5l-7.1,15.6v9.3h-3.1v-9.3l-7.1-15.6h3.6L296.5,108.1z"/>
	</g>
	<g>
		<path class="st0" d="M328.9,118.2c-3.4-0.1-6,2.8-6,5.9c0,3.5,2.7,6.1,6.1,6c3.4,0,6-2.7,6-6.1
			C334.9,120.9,332.2,118.2,328.9,118.2z M328.9,126.2c-1.1,0-2-0.8-2-1.9c0-1.1,0.9-2.1,2-2.1c1.1,0,2,0.9,2,2
			C330.9,125.3,330,126.1,328.9,126.2z"/>
		<path class="st0" d="M347,118.2c-3.3,0-6.1,2.6-6,6c0,3.5,2.7,6,6,6c3.3,0,6-2.5,6-6C352.9,120.9,350.3,118.2,347,118.2z
			 M346.9,126.2c-1.1,0-2-0.9-1.9-2c0-1.1,0.9-2,2-2c1,0,2,0.8,2,2.1C348.9,125.4,348,126.2,346.9,126.2z"/>
		<path class="st0" d="M354.8,95.7c-0.1,0-0.3,0-0.4,0c-0.3,0-0.7,0-1,0l-1.4,4.1c0,0,0,0,0,0c-0.1,0.3-0.1,0.5-0.2,0.7
			c-0.1,0.2-0.2,0.5-0.3,0.7v0l0,0c-0.9,2.4-1.8,4.9-2.7,7.3c-0.6,1.6-1.5,2.7-3.2,3.1c-0.4,0.1-0.9,0.1-1.4,0.1c-4.3,0-8.7,0-13,0
			c-0.3,0-0.5,0-0.9,0c-1-2.7-2-5.4-3-8.1l4.4-10l5.1,11.8l3-6.9l4.8,10.9l6.8-15.6h-3.4l-3.4,7.8l-4.8-10.9l-3,6.9l-5.1-11.8
			l-5.9,13.6l-1.6-4.5c-0.3-0.9-0.7-1.9-1-2.8c-0.6-1.5-1.8-2.2-3.3-2.3c-1.6-0.1-3.3,0-5,0c-1,0-1.8,0.8-1.9,1.7
			c-0.1,1.1,0.5,2,1.6,2.2c0.3,0.1,0.7,0.1,1,0.1c1.1,0,2.3,0,3.4,0c0.2,0,0.4,0,0.6,0c2.2,6,4.4,12,6.6,18
			c-0.2,0.1-0.3,0.1-0.5,0.2c-1.6,0.4-2.8,1.4-3.7,2.8c-0.6,0.9-0.8,2-0.8,3c0,0.2,0.2,0.4,0.4,0.4h3c0.2,0,0.4-0.2,0.4-0.4l0,0
			c0-1,0.9-1.9,2-1.9c0.2,0,0.5,0,0.7,0c5,0,9.9,0,14.9,0c1,0,2,0,3-0.1c1-0.1,2-0.4,3-0.9c2-1.1,3.3-2.7,4.1-4.8
			c0.9-2.4,1.8-4.8,2.7-7.2c0.5-1.4,1.1-2.8,1.6-4.2C357.3,97,356.4,95.8,354.8,95.7z"/>
	</g>
</g>
</svg>
