<?xml version="1.0" encoding="utf-8"?>
<!-- Generator: Adobe Illustrator 22.1.0, SVG Export Plug-In . SVG Version: 6.00 Build 0)  -->
<svg version="1.1" id="Layer_1" xmlns="http://www.w3.org/2000/svg" xmlns:xlink="http://www.w3.org/1999/xlink" x="0px" y="0px"
	 viewBox="0 0 360 216" style="enable-background:new 0 0 360 216;" xml:space="preserve">
<style type="text/css">
	.st0{fill:none;}
	.st1{fill:#FFFFFF;}
</style>
<path class="st0" d="M179.5,108.1c0,0.1,0.3,0.4,0.5,0.3c0.2,0,0.3-0.3,0.5-0.5c-0.3-0.1-0.5-0.4-0.6-0.3
	C179.7,107.6,179.5,107.9,179.5,108.1z"/>
<g>
	<path class="st1" d="M301.3,56c28.7,0,52,23.3,52,52c0,28.7-23.3,52-52,52H58.7c-28.7,0-52-23.3-52-52c0-28.7,23.3-52,52-52H301.3
		 M301.3,50.9H58.7C27.2,50.9,1.6,76.4,1.6,108v0c0,31.6,25.6,57.1,57.1,57.1h242.6c31.6,0,57.1-25.6,57.1-57.1v0
		C358.4,76.4,332.8,50.9,301.3,50.9L301.3,50.9z"/>
	<path class="st0" d="M204,100.8c0,0.1,0.2,0.4,0.3,0.4c0.2,0,0.5-0.1,0.6-0.3c0.1-0.1-0.2-0.4-0.3-0.7
		C204.3,100.5,204.1,100.6,204,100.8z"/>
	<path class="st0" d="M206.7,91.9c0.5,1.8-1.3,2.2-2,3.5c1.2,0.2,2.1,0.4,3.4,0.6C208.1,94.3,208.2,93,206.7,91.9z"/>
	<path class="st0" d="M206.3,121.7c-0.1,0.2-0.3,0.4-0.4,0.7c0,0.1,0.4,0.3,0.4,0.3c0.2-0.2,0.3-0.4,0.4-0.6
		C206.8,122,206.5,121.9,206.3,121.7z"/>
	<path class="st0" d="M213.8,108.7c-2.2-1.4-4.4-2.7-6.6-4c0.2-0.1,0.3-0.2,0.5-0.3c-0.2,0.1-0.3,0.2-0.5,0.2l0,0l0,0l0.1,0
		c-0.2,0.4-0.7,0.9-0.6,1.2C207.8,108.4,210.4,109.4,213.8,108.7z"/>
	<path class="st0" d="M207.6,86c-0.8-0.9-1.3-1.4-2.3-2.4C205.3,85.5,205.6,86.2,207.6,86z"/>
	<path class="st0" d="M207.7,101.7c0.1,0.2,0.3,0.5,0.6,0.5c0.1,0,0.3-0.3,0.7-0.7c-0.4-0.2-0.7-0.4-1-0.5
		C207.8,101.2,207.6,101.5,207.7,101.7z"/>
	<path class="st0" d="M209,88.2c-0.1,0.1-0.2,0.2-0.3,0.3c0.1,0,0.2,0,0.3,0C209,88.3,209,88.2,209,88.2z"/>
	<polygon class="st0" points="210.1,86 209.9,86.2 210.2,86.2 	"/>
	<path class="st0" d="M211.3,125.2c0.1-1.2,0.7-2.4-0.9-4C210.1,123,209.9,124.1,211.3,125.2z"/>
	<polygon class="st0" points="206.7,89.5 206.6,89.4 206.5,89.5 	"/>
	<path class="st0" d="M210.8,119.5c0-0.1-0.1-0.3-0.2-0.5c-0.1,0.1-0.4,0.1-0.4,0.2c0,0.1,0.1,0.3,0.2,0.4
		C210.5,119.6,210.8,119.6,210.8,119.5z"/>
	<path class="st0" d="M210.4,115.1c-0.1-0.3-0.4-0.5-0.6-0.7c-0.2,0.2-0.3,0.4-0.6,0.8c0.4,0.2,0.6,0.4,0.9,0.6
		C210.2,115.6,210.5,115.3,210.4,115.1z"/>
	<path class="st0" d="M210.9,126.4c-0.1-0.1-0.6,0.2-0.7,0.4c-0.1,0.4-0.3,1-0.1,1.3c0.4,0.7,1.1,1.2,2,2.3
		c-0.1-1.5-0.1-2.3-0.3-3.1C211.7,126.9,211.2,126.6,210.9,126.4z"/>
	<path class="st0" d="M204.1,104.2C204.1,104.2,204.1,104.3,204.1,104.2C204.1,104.3,204.1,104.3,204.1,104.2L204.1,104.2
		C204.1,104.2,204.1,104.2,204.1,104.2z"/>
	<path class="st0" d="M222.9,107.2c0-0.1-0.1-0.2-0.1-0.2c-0.1,0-0.1,0-0.2,0c0.1,0.1,0.1,0.2,0.2,0.3
		C222.8,107.3,222.9,107.3,222.9,107.2z"/>
	<path class="st0" d="M218.5,131.6c0-0.2-0.3-0.5-0.4-0.8c-0.2,0.2-0.4,0.3-0.4,0.4c0.1,0.3,0.2,0.5,0.3,0.8
		C218.2,131.9,218.5,131.8,218.5,131.6z"/>
	<polygon class="st0" points="219,129.2 219,129.4 219.1,129.4 	"/>
	<polygon class="st0" points="219.7,126.1 219.5,126.1 219.6,126.3 	"/>
	<path class="st0" d="M210.8,94c0,0.1-0.1,0.2-0.1,0.4c0.1,0,0.2-0.1,0.2-0.1C210.9,94.1,210.8,94.1,210.8,94z"/>
	<path class="st0" d="M214.4,86C214.4,86,214.4,86,214.4,86C214.4,86,214.4,86,214.4,86c0,0,0-0.1,0-0.1
		C214.4,85.9,214.4,85.9,214.4,86L214.4,86L214.4,86z"/>
	<path class="st0" d="M226.2,84.3c-0.2-0.1-0.5-0.3-0.7-0.2c-0.2,0.1-0.4,0.4-0.4,0.7c0,0.2,0.3,0.4,0.6,0.8
		C226,85,226.1,84.6,226.2,84.3z"/>
	<path class="st0" d="M224.5,87.3c0-0.1,0-0.2,0-0.3c0,0-0.1,0-0.2,0c0,0.1,0,0.2,0,0.3C224.3,87.4,224.4,87.3,224.5,87.3z"/>
	<path class="st0" d="M214.6,84.8c-0.1,0.4-0.1,0.7-0.2,1.1c0.3-0.3,0.5-0.5,0.8-0.8C215,85,214.8,84.9,214.6,84.8z"/>
	<path class="st0" d="M257.9,109.5c0,0.2,0.3,0.3,0.5,0.4c0.1-0.1,0.3-0.3,0.3-0.4c0-0.2-0.2-0.4-0.4-0.8
		C258.2,109.1,257.9,109.4,257.9,109.5z"/>
	<path class="st0" d="M259.3,130.6c0.5,0.1,1,0.2,1.5,0.3c0-0.3,0.1-0.5,0.1-0.8c-0.5,0-1-0.1-1.5-0.1
		C259.4,130.2,259.4,130.4,259.3,130.6z"/>
	<path class="st0" d="M263.6,122.7C263.6,122.7,263.5,122.7,263.6,122.7L263.6,122.7z"/>
	<path class="st0" d="M253.6,91.6h-5.8V99c-0.5,0-1,0.1-1.4,0.1c0.4,0.5,0.7,1,1.4,1.9v5.3h5.7c2,0,3.5-0.7,4.5-2
		c1-1.3,1.5-3.1,1.5-5.3C259.4,94.1,257.5,91.6,253.6,91.6z"/>
	<path class="st0" d="M249.1,109.9c0,0.1,0.3,0.3,0.7,0.6c0.2-0.6,0.5-1,0.6-1.5c0-0.2-0.2-0.5-0.4-1.2
		C249.5,108.7,249.2,109.3,249.1,109.9z"/>
	<polygon class="st0" points="246.7,118.4 246.9,118.3 246.7,118.2 	"/>
	<path class="st0" d="M247,97.9c-0.1,0-0.2-0.1-0.3-0.1c-0.1,0.4-0.2,0.9-0.3,1.3l0,0c0,0,0,0,0,0l0,0l0,0c0,0,0,0,0,0
		C246.6,98.7,246.8,98.3,247,97.9z"/>
	<path class="st0" d="M253.7,114.9c0,0.1-0.1,0.1-0.1,0.2c0.1,0,0.2,0.1,0.3,0.1c0-0.1,0-0.2,0-0.2C253.9,115,253.8,115,253.7,114.9
		z"/>
	<path class="st0" d="M246.6,109.9c-0.1,0-0.2,0-0.2,0c0,0.1,0,0.1-0.1,0.2c0.1,0,0.2,0,0.3,0C246.7,110,246.7,109.9,246.6,109.9z"
		/>
	<polygon class="st0" points="238.7,116.6 238.9,116.5 238.7,116.5 	"/>
	<polygon class="st0" points="264,96.2 263.8,96.1 263.8,96.3 	"/>
	<path class="st0" d="M241.4,87.1c-0.1,0-0.2,0-0.3,0c0,0.4,0,0.8,0,1.2c0.1,0,0.1,0,0.2,0C241.3,87.9,241.4,87.5,241.4,87.1z"/>
	<path class="st0" d="M242.9,122c-0.1,0-0.3-0.1-0.4-0.1c0,0.1,0,0.2,0,0.3c0.1,0,0.2,0.1,0.2,0.1
		C242.8,122.2,242.9,122.1,242.9,122z"/>
	<path class="st0" d="M241.1,125.9c0.1,0,0.3-0.1,0.4-0.1c0-0.2,0-0.3,0-0.5c-0.2,0-0.4,0-0.4,0.1
		C241.1,125.5,241.1,125.7,241.1,125.9z"/>
	<path class="st0" d="M265.8,102.1c0.2,0,0.5-0.1,0.9-0.2c-0.3-0.4-0.4-0.6-0.6-0.8c-0.2,0.2-0.4,0.3-0.5,0.5
		C265.5,101.7,265.7,102,265.8,102.1z"/>
	<path class="st0" d="M263.8,108.7c0,0.1,0.4,0.2,0.4,0.2c0.1-0.2,0.2-0.4,0.3-0.6c0,0-0.3-0.1-0.5-0.2
		C263.9,108.2,263.8,108.4,263.8,108.7z"/>
	<polygon class="st0" points="243,130 243.2,130.1 243.1,129.9 	"/>
	<path class="st0" d="M242.8,127.7c0,0-0.2,0.1-0.2,0.1c0.1,0.1,0.2,0.3,0.3,0.4c0,0,0.1-0.1,0.2-0.1
		C243,127.9,242.9,127.8,242.8,127.7z"/>
	<path class="st0" d="M260.7,93.6c-0.1-0.1-0.1-0.3-0.2-0.4c-0.2,0.1-0.3,0.3-0.5,0.4c0.1,0.1,0.2,0.3,0.3,0.4
		C260.4,93.8,260.6,93.7,260.7,93.6z"/>
	<polygon class="st0" points="260.5,91.2 260.5,91.3 260.7,91.3 	"/>
	<path class="st0" d="M248.9,91.1c0.2,0,0.5-0.1,0.7-0.1c-0.2-0.7-0.4-1.4-0.5-2.1c-0.1,0-0.3,0-0.4,0.1
		C248.8,89.7,248.9,90.4,248.9,91.1z"/>
	<path class="st0" d="M244.6,114.6c0,0.1,0.2,0.4,0.3,0.4c0.2-0.1,0.5-0.2,0.7-0.4c0.1-0.1-0.2-0.4-0.3-0.8
		C244.9,114.2,244.7,114.3,244.6,114.6z"/>
	<path class="st0" d="M248.9,84.5c0-0.2-0.1-0.5-0.2-0.7c-0.2,0.1-0.5,0.1-0.5,0.2c0,0.2,0,0.5,0.1,0.8
		C248.6,84.6,248.9,84.5,248.9,84.5z"/>
	<path class="st0" d="M244.4,105.7c0,0.1-0.1,0.2-0.1,0.3c0.3,0.1,0.5,0.2,0.8,0.2C244.9,106,244.6,105.9,244.4,105.7z"/>
	<path class="st0" d="M245.1,106.5l0.1-0.2l0-0.1c-0.1,0-0.1,0-0.2,0c0,0,0.1,0.1,0.1,0.1C245.2,106.4,245.1,106.5,245.1,106.5z"/>
	<path class="st0" d="M94.3,126.7c0.3,0.2,0.7,0.4,1,0.7c-0.2-0.3-0.4-0.7-0.7-1C94.6,126.5,94.5,126.6,94.3,126.7z"/>
	<path class="st0" d="M181.5,118.5c0.3-0.2,0.7-0.4,0.7-0.7c0-0.2-0.3-0.5-0.7-1.1c-0.3,0.6-0.5,0.9-0.5,1.2
		C181,118.1,181.4,118.5,181.5,118.5z"/>
	<path class="st0" d="M183.8,107.5c-0.1-0.2-0.1-0.3-0.2-0.5c-0.2,0.1-0.4,0.1-0.5,0.2c0,0.1,0.1,0.3,0.2,0.4
		C183.5,107.6,183.7,107.5,183.8,107.5z"/>
	<path class="st0" d="M181.9,131.2c0.1,0.1,0.2,0.2,0.3,0.3c0.1-0.1,0.2-0.2,0.2-0.2c-0.1-0.1-0.2-0.2-0.3-0.3
		C182,131.1,181.9,131.1,181.9,131.2z"/>
	<path class="st0" d="M183.7,95.6c0-0.1,0-0.2-0.1-0.2c0,0-0.2,0-0.2,0.1c0,0,0,0.1,0.1,0.2C183.6,95.7,183.7,95.7,183.7,95.6z"/>
	<polygon class="st0" points="178.8,114.5 179,114.5 179,114.3 	"/>
	<path class="st0" d="M178.4,111c0,0.2,0.1,0.3,0.2,0.5c0.2-0.1,0.6-0.1,0.7-0.3c0.1-0.2-0.1-0.5-0.3-1.4
		C178.6,110.5,178.4,110.8,178.4,111z"/>
	<path class="st0" d="M178.3,123.3c-0.1,0-0.2,0.1-0.2,0.1c0,0.1,0,0.2,0,0.2c0.1,0,0.2-0.1,0.4-0.1
		C178.4,123.5,178.3,123.3,178.3,123.3z"/>
	<path class="st0" d="M154.1,107.8L154.1,107.8C154.1,107.7,154.1,107.8,154.1,107.8z"/>
	<path class="st0" d="M156.9,125.1c0.1,0,0.2-0.1,0.3-0.1c0-0.1,0-0.2,0-0.3c-0.1,0.1-0.3,0.1-0.4,0.2
		C156.8,125,156.8,125.1,156.9,125.1z"/>
	<path class="st0" d="M166.8,89.7c0,0,0-0.1,0.1-0.1c-0.4-0.2-0.7-0.4-1.1-0.5C166.1,89.3,166.4,89.5,166.8,89.7z"/>
	<path class="st0" d="M154.7,128.1C154.7,128.1,154.7,128.1,154.7,128.1L154.7,128.1L154.7,128.1c0-0.1,0-0.1,0.1-0.2
		C154.8,128,154.7,128,154.7,128.1L154.7,128.1z"/>
	<path class="st0" d="M166,87.4c-0.2,0-0.3,0-0.5,0c0.1,0.5,0.1,1.1,0.2,1.6l0,0c0,0,0,0,0.1,0c0,0,0,0-0.1,0
		C165.8,88.5,165.9,88,166,87.4z"/>
	<path class="st0" d="M155.8,109.4c0.1,0.2,0.3,0.5,0.4,0.7c0.1-0.1,0.2-0.1,0.3-0.2c-0.1-0.2-0.3-0.5-0.4-0.7
		C156,109.3,155.9,109.4,155.8,109.4z"/>
	<path class="st0" d="M154.8,127.9c0.1-0.1,0.3-0.2,0.4-0.4c-0.1-0.1-0.1-0.1-0.2-0.2C154.9,127.6,154.9,127.8,154.8,127.9z"/>
	<path class="st0" d="M171.5,87.1c-0.1,0.1-0.1,0.2-0.1,0.3c0.1,0,0.3,0,0.4,0c0-0.1,0-0.2-0.1-0.3C171.7,87.1,171.6,87,171.5,87.1z
		"/>
	<path class="st0" d="M178.3,95.6c-0.1-0.1-0.3-0.2-0.4-0.2c0,0.2-0.1,0.3-0.1,0.5c0,0,0.2,0.1,0.2,0.1
		C178.1,95.8,178.2,95.7,178.3,95.6z"/>
	<path class="st0" d="M175.5,85.7c-0.2,0.3-0.5,0.6-0.6,0.9c0,0.1,0.4,0.3,0.7,0.7c0.2-0.5,0.4-0.8,0.4-1.1
		C176.1,86,175.7,85.9,175.5,85.7z"/>
	<path class="st0" d="M169.3,89.1c-0.1,0-0.3,0.1-0.5,0.2c0.1,0.1,0.1,0.4,0.2,0.4c0.1,0,0.3-0.1,0.5-0.1
		C169.5,89.4,169.4,89.1,169.3,89.1z"/>
	<path class="st0" d="M177.1,130.3c0,0,0.2,0.3,0.6,0.9c0.1-0.4,0.3-0.7,0.3-0.9c0-0.1-0.2-0.3-0.3-0.5
		C177.5,130,177.3,130.2,177.1,130.3z"/>
	<path class="st0" d="M177.8,107c0-0.1,0-0.2-0.1-0.2c-0.1,0-0.3,0.1-0.4,0.2c0.1,0.1,0.2,0.2,0.3,0.3
		C177.8,107.2,177.8,107.1,177.8,107z"/>
	<path class="st0" d="M170,90.9c-0.1,0.1-0.2,0.2-0.4,0.3c0.1,0.1,0.2,0.2,0.4,0.3c0.1-0.1,0.1-0.3,0.2-0.4
		C170.2,91,170,90.9,170,90.9z"/>
	<path class="st0" d="M169.5,85.7c0,0.1,0.2,0.3,0.3,0.4c0.1-0.2,0.3-0.3,0.4-0.5c-0.1-0.1-0.3-0.2-0.4-0.3
		C169.7,85.5,169.5,85.6,169.5,85.7z"/>
	<path class="st0" d="M156.8,113.1c-0.1,0-0.2,0-0.2,0.1c0,0,0,0.2,0.1,0.2c0.1,0,0.2,0,0.2-0.1
		C156.8,113.3,156.8,113.2,156.8,113.1z"/>
	<path class="st0" d="M134.5,93.6c-0.1-0.7-0.3-1.4-0.5-2.4C132.7,92.4,133.4,93,134.5,93.6z"/>
	<polygon class="st0" points="132.4,94.2 132.4,94.4 132.6,94.3 	"/>
	<path class="st0" d="M107.1,108.3c1.8,0.1,2.8-0.5,3.1-2.6c-2.9,0.2-5.6,0.3-8.5,0.5c0.4,0.9,0.7,1.5,1,2.1
		C104.3,108.3,105.7,108.2,107.1,108.3z"/>
	<polygon class="st0" points="113.9,86.6 113.8,86.7 113.9,86.8 	"/>
	<path class="st0" d="M105,110.3c0,0,0.4,0.2,0.4,0.2c0.2-0.2,0.3-0.5,0.4-0.7c-0.2-0.1-0.3-0.1-0.6-0.3
		C105.2,109.8,105.1,110,105,110.3z"/>
	<path class="st0" d="M95.5,127.6C95.5,127.6,95.5,127.6,95.5,127.6C95.5,127.5,95.6,127.5,95.5,127.6L95.5,127.6z"/>
	<path class="st0" d="M95.5,127.6C95.5,127.6,95.6,127.5,95.5,127.6c0-0.1-0.1-0.1-0.1-0.2C95.4,127.4,95.5,127.5,95.5,127.6z"/>
	<path class="st0" d="M131.1,97.6c0.1,0,0.2,0,0.2,0c0.1,0,0.1-0.1,0.1-0.2c-0.1-0.1-0.1-0.1-0.2-0.2
		C131.2,97.4,131.1,97.5,131.1,97.6z"/>
	<path class="st0" d="M131.3,107.6c0,0.2,0.1,0.3,0.2,0.4c0.1-0.1,0.2-0.2,0.4-0.3c-0.1-0.1-0.2-0.2-0.4-0.3
		C131.4,107.4,131.3,107.5,131.3,107.6z"/>
	<path class="st0" d="M110.4,88.7c0-0.1,0-0.1-0.1-0.2c-0.1,0.1-0.2,0.1-0.3,0.2c0.1,0.1,0.1,0.1,0.2,0.1
		C110.2,88.8,110.3,88.8,110.4,88.7z"/>
	<path class="st0" d="M130.9,121.3c1.5-2,1.3-2.4-0.9-2.8C130.3,119.3,130.6,120.1,130.9,121.3z"/>
	<polygon class="st0" points="97,112.9 96.9,112.8 96.8,113 	"/>
	<path class="st0" d="M95.8,100.4c-0.1,0-0.2,0-0.2,0c-0.1,0-0.1,0.1-0.1,0.2c0.1,0,0.2,0,0.3,0C95.9,100.6,95.8,100.5,95.8,100.4z"
		/>
	<path class="st0" d="M94.2,86.7c0.1,0.1,0.2,0.2,0.3,0.3c0,0,0.1-0.1,0.2-0.1c-0.1-0.1-0.2-0.2-0.3-0.3
		C94.4,86.5,94.3,86.6,94.2,86.7z"/>
	<path class="st0" d="M96,124.5c0.1,0,0.2-0.1,0.2-0.1c0-0.1-0.1-0.2-0.1-0.2C96.1,124.3,96,124.4,96,124.5z"/>
	<path class="st0" d="M109.5,130.7c0,0.1-0.1,0.1-0.1,0.2c0.1,0,0.2-0.1,0.3-0.1C109.6,130.7,109.6,130.7,109.5,130.7z"/>
	<path class="st0" d="M95.5,111.4c0.6-0.9,1.1-1.7,2-3C95,108.5,95.1,109.8,95.5,111.4z"/>
	<path class="st0" d="M90.8,93.2c-0.1,0.3-0.4,0.7-0.3,1c0,0.3,0.4,0.5,0.8,1.1c0.2-0.8,0.4-1.2,0.3-1.6
		C91.6,93.5,91.1,93.4,90.8,93.2z"/>
	<path class="st0" d="M90.8,130.9c-0.1,0-0.3,0.1-0.5,0.1c0.1,0.2,0.1,0.4,0.2,0.4c0.1,0,0.3-0.1,0.5-0.1
		C91,131.2,91,131,90.8,130.9z"/>
	<path class="st0" d="M90,120.7c0,0,0.1,0.1,0.1,0.1L90,120.7C90,120.6,90,120.7,90,120.7z"/>
	<path class="st0" d="M105.2,85.3C105.2,85.3,105.2,85.3,105.2,85.3C105.2,85.3,105.2,85.3,105.2,85.3c0-0.1,0-0.1,0-0.2
		c0,0,0,0,0,0c0,0,0,0,0,0c0-0.1,0-0.1,0,0.1c0,0,0,0,0,0C105.2,85.2,105.2,85.3,105.2,85.3c-0.2,0-0.3,0.1-0.5,0.1
		C104.9,85.4,105,85.4,105.2,85.3L105.2,85.3z"/>
	<path class="st0" d="M113.5,132.5c0.6-0.1,1.2-0.6,2.2-1.1c-0.9-0.6-1.4-1.3-1.7-1.2c-0.6,0.2-1.1,0.8-1.7,1.3
		C112.7,131.8,113.1,132.5,113.5,132.5z"/>
	<path class="st0" d="M116.2,124.9c0,0,0-0.1,0-0.2c-0.1,0-0.2,0-0.2,0c0,0,0,0.1,0,0.2C116.1,124.9,116.2,124.9,116.2,124.9z"/>
	<path class="st0" d="M96.6,118.8c0.3,0.2,0.6,0.3,0.9,0.4c0.1-0.1,0.1-0.3,0.2-0.4c-0.3-0.1-0.7-0.3-1-0.4
		C96.6,118.5,96.5,118.8,96.6,118.8z"/>
	<polygon class="st0" points="98.5,121.5 98.5,121.5 98.5,121.5 98.5,121.5 98.7,121.5 98.6,121.4 	"/>
	<polygon class="st0" points="138.6,112.1 138.7,111.9 138.5,111.9 	"/>
	<polygon class="st0" points="144.6,125.1 144.8,125.2 144.8,125 	"/>
	<polygon class="st0" points="143.1,120.9 143.4,120.9 143.3,120.7 	"/>
	<path class="st0" d="M132.2,104.2c-0.1,0.2-0.3,0.4-0.4,0.6c0,0,0.3,0.3,0.4,0.3c0.2-0.1,0.3-0.3,0.5-0.5
		C132.4,104.4,132.3,104.3,132.2,104.2z"/>
	<path class="st0" d="M130.3,127.4c0.7-1.3,1.2-2.5,2.1-4.1C129.6,124.9,129.5,125.2,130.3,127.4z"/>
	<path class="st0" d="M132.5,113.8c0,0,0,0.1,0.1,0.2c0.1,0,0.1,0,0.2-0.1c0-0.1,0-0.1-0.1-0.2C132.6,113.7,132.5,113.7,132.5,113.8
		z"/>
	<path class="st0" d="M131.4,88.1c-0.1-0.3-0.1-0.7-0.2-1c-0.1,0-0.2,0-0.3,0.1c0.1,0.3,0.1,0.7,0.2,1
		C131.1,88.1,131.2,88.1,131.4,88.1z"/>
	<path class="st0" d="M148.9,100.1c0,0.1,0.1,0.1,0.2,0.2c0.1-0.1,0.1-0.2,0.2-0.3c-0.1-0.1-0.3-0.2-0.4-0.3
		C148.9,99.8,148.9,99.9,148.9,100.1z"/>
	<path class="st0" d="M150,130c0,0.1,0.1,0.3,0.2,0.4c0.1-0.1,0.3-0.1,0.4-0.2c-0.1-0.1-0.1-0.3-0.2-0.4
		C150.2,129.8,150,129.8,150,130z"/>
	<polygon class="st0" points="156,93.8 155.8,93.9 156,94 	"/>
	<path class="st0" d="M152.5,84.9c0.1,0.1,0.2,0.1,0.3,0.2c0-0.1,0.1-0.2,0.1-0.2c0,0-0.1-0.1-0.2-0.1
		C152.6,84.8,152.6,84.8,152.5,84.9z"/>
	<path class="st0" d="M150,103.3c-0.1,0.1-0.2,0.2-0.3,0.3c0,0,0.1,0.1,0.2,0.2c0.1-0.1,0.2-0.2,0.3-0.3
		C150.1,103.4,150.1,103.4,150,103.3z"/>
	<path class="st0" d="M123.7,101.6c0.1,0.1,0.2,0.1,0.4,0.2c0-0.1,0.1-0.1,0.1-0.2c-0.1-0.1-0.2-0.1-0.4-0.2
		C123.8,101.4,123.7,101.6,123.7,101.6z"/>
	<polygon class="st0" points="126.7,125.9 126.9,125.8 126.8,125.7 	"/>
	<polygon class="st0" points="123.8,122 123.9,121.8 123.7,121.8 	"/>
	<path class="st0" d="M124.8,86.6c-0.1,0.2-0.3,0.5-0.4,0.7c0,0.1,0.4,0.2,0.6,0.3c0.1-0.3,0.2-0.5,0.3-0.8
		C125.3,86.9,125,86.8,124.8,86.6z"/>
	<path class="st0" d="M127.2,98.7L127.2,98.7C127.2,98.7,127.2,98.7,127.2,98.7L127.2,98.7L127.2,98.7c-0.1,0.1-0.2,0.3-0.3,0.5
		C127,99,127.1,98.9,127.2,98.7z"/>
	<path class="st0" d="M129.2,106.8c-0.1-0.5-0.1-1-0.2-1.5c-0.2,0.1-0.5,0.3-0.7,0.4C128.6,106.1,128.9,106.5,129.2,106.8
		L129.2,106.8z"/>
	<polygon class="st0" points="128.8,114.5 128.9,114.3 128.7,114.3 	"/>
	<path class="st0" d="M128.8,103.6c-0.8,0.2-1.4,0.3-2,0.4C127.6,104.9,128.4,105.2,128.8,103.6z"/>
	<path class="st0" d="M103.1,84.8c-0.3-0.3-0.4-0.5-0.6-0.6c-0.1,0-0.4,0.2-0.4,0.2c0,0.2,0.1,0.5,0.2,0.7
		C102.5,85.1,102.7,85,103.1,84.8z"/>
	<path class="st0" d="M129,112.4c0,0.1,0.2,0.3,0.2,0.5c0.1-0.1,0.3-0.2,0.4-0.3c-0.1-0.2-0.2-0.3-0.3-0.5
		C129.2,112.2,129,112.2,129,112.4z"/>
	<path class="st0" d="M130.6,93.6c0-0.3-0.4-0.5-0.6-0.8c-0.2,0.2-0.6,0.3-0.6,0.5c-0.1,0.3,0.1,0.6,0.3,1.3
		C130.2,94.1,130.6,93.9,130.6,93.6z"/>
	<path class="st0" d="M129.1,107c0.1-0.1,0.1-0.1,0.2-0.2c0,0,0,0,0,0C129.1,106.9,129.1,106.9,129.1,107z"/>
	<path class="st1" d="M99.5,124.8c-0.2-0.1-0.3-0.2-0.4-0.3h0v0c0,0-0.1-0.1-0.1-0.1c0,0,0.1-0.1,0.1-0.1v-12.9h15.6v-8h-8.8
		c-0.1,0.2-0.3,0.3-0.4,0.5c-0.2-0.2-0.5-0.4-0.5-0.5h-5.8V91.6h18.3v-8.3H89.1v49.4h4.1c0.1-0.3,0.3-0.7,0.2-1
		c-0.8-1.8,0.1-1.9,1.6-2.7c0.2-0.1,0.4-1.2,0.5-1.5c0,0,0,0,0,0l0.1-0.1c0,0-0.1,0.1-0.1,0.1c0-0.1-0.1-0.1-0.1-0.2
		c-0.3-0.2-0.7-0.4-1-0.7c0.1-0.1,0.3-0.3,0.4-0.4c0.2,0.3,0.4,0.7,0.7,1c0.1,0,0.1,0.1,0.2,0.1c0,0,0,0,0,0.1
		c1.3-0.8,1.1,2.6,1.9,3.4c0,0.2-0.1,0.3-0.1,0.5h0c0-0.2,0.1-0.3,0.1-0.5c1.3,1.3,3.5,0.1,5.2,1.7h14.9v-8.3H99.8
		C99.7,124.5,99.6,124.7,99.5,124.8z M105.4,110.5c0,0-0.4-0.2-0.4-0.2c0-0.2,0.2-0.5,0.3-0.7c0.3,0.1,0.4,0.2,0.6,0.3
		C105.7,110.1,105.6,110.3,105.4,110.5z M110.2,105.7c-0.4,2.1-1.4,2.7-3.1,2.6c-1.4-0.1-2.7,0-4.4,0c-0.3-0.6-0.6-1.2-1-2.1
		C104.6,106,107.3,105.8,110.2,105.7z M113.9,86.6l0,0.2l-0.1-0.1L113.9,86.6z M110.3,88.5c0,0.1,0,0.1,0.1,0.2
		c-0.1,0-0.1,0.1-0.2,0.1c-0.1,0-0.1-0.1-0.2-0.1C110.1,88.6,110.2,88.6,110.3,88.5z M105.2,85.3c0-0.1,0-0.1,0-0.2c0,0,0,0,0,0
		c0-0.1,0-0.1,0-0.1c0,0,0,0,0,0c0,0,0,0,0,0C105.2,85.2,105.2,85.2,105.2,85.3C105.2,85.3,105.2,85.3,105.2,85.3
		C105.2,85.3,105.2,85.3,105.2,85.3L105.2,85.3c-0.2,0.1-0.3,0.1-0.5,0.1C104.9,85.4,105,85.4,105.2,85.3z M102.5,84.2
		c0.2,0.1,0.3,0.3,0.6,0.6c-0.4,0.1-0.6,0.2-0.8,0.3c-0.1-0.2-0.2-0.5-0.2-0.7C102,84.4,102.4,84.2,102.5,84.2z M90,120.7
		C90,120.7,90,120.6,90,120.7l0.1,0.1C90.1,120.8,90,120.7,90,120.7z M90.6,131.5c-0.1,0-0.1-0.3-0.2-0.4c0.2-0.1,0.4-0.2,0.5-0.1
		c0.1,0,0.2,0.3,0.2,0.4C90.9,131.4,90.7,131.6,90.6,131.5z M91.3,95.3c-0.5-0.6-0.8-0.8-0.8-1.1c0-0.3,0.2-0.7,0.3-1
		c0.3,0.2,0.8,0.3,0.8,0.5C91.7,94.1,91.5,94.5,91.3,95.3z M94.5,87c-0.1-0.1-0.2-0.2-0.3-0.3c0.1,0,0.2-0.2,0.2-0.1
		c0.1,0.1,0.2,0.2,0.3,0.3C94.6,86.9,94.5,87,94.5,87z M95.6,100.4c0,0,0.1,0,0.2,0c0,0.1,0,0.2,0.1,0.2c-0.1,0-0.2,0-0.3,0
		C95.6,100.6,95.6,100.5,95.6,100.4z M96,124.5c0.1-0.1,0.1-0.2,0.2-0.3c0,0.1,0.1,0.2,0.1,0.2C96.2,124.4,96.1,124.5,96,124.5z
		 M95.5,111.4c-0.4-1.5-0.6-2.8,2-3C96.6,109.7,96.1,110.5,95.5,111.4z M97,112.9l-0.2,0.1l0-0.2L97,112.9z M97.5,119.2
		c-0.3-0.1-0.6-0.2-0.9-0.4c0,0,0.1-0.3,0.1-0.5c0.3,0.1,0.7,0.3,1,0.4C97.6,118.9,97.5,119.1,97.5,119.2z M98.5,121.5L98.5,121.5
		C98.5,121.5,98.5,121.5,98.5,121.5L98.5,121.5L98.5,121.5l0.2,0.1L98.5,121.5z M116,124.7c0.1,0,0.1,0,0.2,0c0,0.1,0,0.2,0,0.2
		c-0.1,0-0.1,0-0.2,0C116,124.8,116,124.7,116,124.7z M114,130.2c0.3-0.1,0.8,0.6,1.7,1.2c-1,0.5-1.6,1-2.2,1.1
		c-0.3,0-0.8-0.6-1.2-1C112.9,131,113.4,130.4,114,130.2z M109.5,130.7c0.1,0,0.1,0.1,0.2,0.1c-0.1,0-0.2,0.1-0.3,0.1
		C109.4,130.8,109.5,130.7,109.5,130.7z"/>
	<path class="st1" d="M157.3,84.3c-0.3,0.7-0.6,1.3-1.1,2.3c-0.6-1.4-0.9-2.2-1.4-3.3h-7v32.5l-14.6-32.5h-10v49.4h10v-1.6
		c-0.2,0.3-0.3,0.6-0.4,0.8c-0.9-0.6-1.8-1.2-2.7-1.8c0.1-0.2,0.2-0.5,0.3-0.7c0.9,0.3,1.8,0.5,2.8,0.8v-30l14.6,32.4h10V116
		c-0.2-0.2-0.5-0.3-0.8-0.5c0.3-0.1,0.5-0.3,0.8-0.4V98.4c0-0.1-0.1-0.1-0.1-0.2c0,0,0.1,0,0.1,0V87.1c0,0,0,0,0,0
		c0,0-0.1-0.1-0.1-0.2c0,0,0.1,0,0.1,0v-3.7h-2.7C156,83.6,156.6,83.9,157.3,84.3z M132.4,94.2l0.2,0.1l-0.2,0.1L132.4,94.2z
		 M131.5,108c-0.1-0.1-0.2-0.3-0.2-0.4c0,0,0.2-0.2,0.2-0.2c0.1,0.1,0.2,0.2,0.4,0.3C131.7,107.8,131.6,107.9,131.5,108z
		 M130.9,121.3c-0.4-1.2-0.6-2-0.9-2.8C132.3,118.9,132.4,119.2,130.9,121.3z M131.3,97.6c0,0-0.1,0-0.2,0c0-0.1,0.1-0.2,0.1-0.4
		c0.1,0.1,0.1,0.1,0.2,0.2C131.4,97.5,131.4,97.6,131.3,97.6z M131.2,87.1c0.1,0.3,0.1,0.7,0.2,1c-0.1,0-0.2,0-0.4,0.1
		c-0.1-0.3-0.1-0.7-0.2-1C131,87.1,131.1,87.1,131.2,87.1z M127.2,98.7L127.2,98.7C127.2,98.7,127.2,98.7,127.2,98.7L127.2,98.7
		c0,0.2-0.1,0.4-0.2,0.5C127,99,127.1,98.9,127.2,98.7L127.2,98.7z M123.8,122l-0.1-0.2l0.2,0L123.8,122z M124.1,101.8
		c-0.1-0.1-0.2-0.1-0.4-0.2c0,0,0.1-0.1,0.1-0.2c0.1,0.1,0.2,0.1,0.4,0.2C124.1,101.6,124.1,101.7,124.1,101.8z M125,87.7
		c-0.2-0.1-0.6-0.3-0.6-0.3c0-0.3,0.2-0.5,0.4-0.7c0.2,0.1,0.5,0.2,0.5,0.3C125.2,87.2,125.1,87.5,125,87.7z M126.7,125.9l0.1-0.2
		l0.1,0.2L126.7,125.9z M126.8,104.1c0.6-0.1,1.1-0.3,2-0.4C128.4,105.2,127.6,104.9,126.8,104.1z M129,105.4c0.1,0.5,0.1,1,0.2,1.5
		c-0.1,0.1-0.1,0.1-0.2,0.2c0-0.1,0.1-0.2,0.1-0.2c0,0,0,0,0,0l0,0c-0.3-0.3-0.5-0.7-0.8-1C128.6,105.6,128.8,105.5,129,105.4z
		 M128.8,114.5l-0.1-0.2l0.2,0L128.8,114.5z M129.2,112.8c-0.1-0.2-0.3-0.3-0.2-0.5c0-0.1,0.2-0.2,0.4-0.3c0.1,0.2,0.2,0.3,0.3,0.5
		C129.5,112.6,129.3,112.7,129.2,112.8z M129.4,93.4c0-0.2,0.4-0.4,0.6-0.5c0.2,0.3,0.6,0.5,0.6,0.8c0,0.3-0.4,0.5-0.9,1
		C129.5,94,129.3,93.6,129.4,93.4z M130.3,127.4c-0.8-2.3-0.7-2.6,2.1-4.1C131.5,125,130.9,126.1,130.3,127.4z M132.2,105.1
		c-0.1,0-0.4-0.2-0.4-0.3c0.1-0.2,0.3-0.4,0.4-0.6c0.1,0.1,0.3,0.2,0.5,0.4C132.5,104.8,132.4,105,132.2,105.1z M132.5,114
		c0-0.1-0.1-0.1-0.1-0.2c0,0,0.1-0.1,0.2-0.1c0,0.1,0,0.1,0.1,0.2C132.7,113.9,132.6,113.9,132.5,114z M134,91.2
		c0.2,1,0.3,1.7,0.5,2.4C133.4,93,132.7,92.4,134,91.2z M138.6,112.1l-0.1-0.2l0.2,0L138.6,112.1z M143.1,120.9l0.2-0.2l0.1,0.2
		L143.1,120.9z M144.6,125.1l0.2-0.1l0,0.2L144.6,125.1z M156,93.8l0,0.2l-0.2-0.1L156,93.8z M149.1,100.3c-0.1-0.1-0.2-0.1-0.2-0.2
		c0-0.1,0-0.3,0-0.5c0.1,0.1,0.3,0.2,0.4,0.3C149.3,100,149.2,100.1,149.1,100.3z M149.7,103.6c0.1-0.1,0.2-0.2,0.3-0.3
		c0.1,0.1,0.1,0.1,0.2,0.2c-0.1,0.1-0.2,0.2-0.3,0.3C149.8,103.8,149.7,103.6,149.7,103.6z M150.1,130.4c-0.1-0.1-0.2-0.3-0.2-0.4
		c0.1-0.1,0.3-0.2,0.4-0.2c0.1,0.1,0.1,0.3,0.2,0.4C150.4,130.2,150.3,130.3,150.1,130.4z M152.8,85.1c-0.1-0.1-0.2-0.1-0.3-0.2
		c0.1-0.1,0.1-0.1,0.2-0.2c0.1,0,0.2,0.1,0.2,0.1C152.9,84.9,152.8,85,152.8,85.1z M154.1,107.7L154.1,107.7
		C154.1,107.8,154.1,107.7,154.1,107.7z M154.8,127.9c0,0.1,0,0.1-0.1,0.2l0,0l0,0c0,0,0,0,0,0l-0.1-0.1
		C154.7,128,154.8,128,154.8,127.9c0.1-0.2,0.1-0.3,0.2-0.5c0.1,0.1,0.1,0.1,0.2,0.2C155.1,127.7,154.9,127.8,154.8,127.9z
		 M156.2,110.1c-0.1-0.2-0.3-0.5-0.4-0.7c0.1-0.1,0.2-0.1,0.3-0.2c0.1,0.2,0.3,0.5,0.4,0.7C156.4,110,156.3,110.1,156.2,110.1z
		 M156.5,113.2c0-0.1,0.1-0.1,0.2-0.1c0,0.1,0.1,0.2,0.1,0.2c-0.1,0-0.2,0.1-0.2,0.1C156.6,113.4,156.5,113.3,156.5,113.2z
		 M157.1,124.8c0,0.1,0,0.2,0,0.3c-0.1,0-0.2,0.1-0.3,0.1c-0.1,0-0.1-0.1-0.2-0.2C156.9,124.9,157,124.8,157.1,124.8z"/>
	<path class="st1" d="M179.8,83.9c0,0.3-0.4,0.5-0.7,0.9c-0.3-0.3-0.6-0.6-0.6-0.7c0.1-0.3,0.3-0.5,0.5-0.8h-15.5v8.3h12v0.1
		c0.3-0.7,0.6-1.4,1.1-2.5c0.5,0.9,1.1,1.6,0.9,1.9c-0.4,0.7-1.1,1.2-1.7,1.8c-0.1-0.1-0.2-0.2-0.3-0.3v31.2c0,0,0.1,0.1,0.1,0.1
		c0,0,0,0.1-0.1,0.2c0,0,0,0,0,0v8.5h10V91.9c-0.1,0.1-0.2,0.1-0.2,0.1c-0.2,0-0.5-0.4-0.5-0.6c0-0.2,0.3-0.5,0.5-0.5
		c0.2,0,0.4,0.3,0.7,0.5c-0.1,0.1-0.1,0.1-0.2,0.2h11.9v-8.3h-18.7C179.4,83.5,179.8,83.7,179.8,83.9z M166.8,89.7
		c-0.3-0.2-0.7-0.4-1-0.7c0,0,0,0-0.1,0l0,0c-0.1-0.5-0.1-1.1-0.2-1.6c0.2,0,0.3,0,0.5,0c-0.1,0.5-0.2,1.1-0.3,1.6c0,0,0,0,0.1,0
		c0.4,0.2,0.7,0.4,1.1,0.5C166.8,89.6,166.8,89.7,166.8,89.7z M169.1,89.6c-0.1,0-0.2-0.3-0.2-0.4c0.2-0.1,0.3-0.2,0.5-0.2
		c0.1,0,0.2,0.3,0.2,0.4C169.4,89.6,169.2,89.7,169.1,89.6z M170,91.5c-0.1-0.1-0.2-0.2-0.4-0.3c0.1-0.1,0.2-0.2,0.4-0.3
		c0,0,0.2,0.1,0.2,0.1C170.1,91.2,170.1,91.4,170,91.5z M169.8,86.1c-0.1-0.1-0.3-0.3-0.3-0.4c0-0.1,0.2-0.3,0.3-0.4
		c0.1,0.1,0.3,0.2,0.4,0.3C170.1,85.8,169.9,85.9,169.8,86.1z M171.4,87.3c0-0.1,0-0.2,0.1-0.3c0.1,0,0.2,0,0.3,0
		c0,0.1,0,0.2,0.1,0.3C171.7,87.3,171.6,87.3,171.4,87.3z M175.6,87.3c-0.4-0.3-0.8-0.6-0.7-0.7c0.1-0.3,0.4-0.6,0.6-0.9
		c0.2,0.2,0.6,0.3,0.6,0.5C176.1,86.5,175.9,86.8,175.6,87.3z M177.8,106.8c0,0.1,0.1,0.2,0.1,0.2c0,0.1-0.1,0.1-0.1,0.2
		c-0.1-0.1-0.2-0.2-0.3-0.3C177.5,106.9,177.6,106.8,177.8,106.8z M177.7,131.3c-0.4-0.6-0.6-0.9-0.6-0.9c0.2-0.2,0.4-0.3,0.6-0.5
		c0.1,0.2,0.3,0.3,0.3,0.5C177.9,130.6,177.8,130.9,177.7,131.3z M177.8,95.8c0-0.2,0.1-0.3,0.1-0.5c0.1,0.1,0.3,0.2,0.4,0.2
		c-0.1,0.1-0.2,0.3-0.3,0.3C178,96,177.8,95.9,177.8,95.8z M178.1,123.7c0-0.1,0-0.2,0-0.2c0.1,0,0.2-0.1,0.2-0.1
		c0.1,0,0.1,0.1,0.2,0.2C178.3,123.6,178.2,123.6,178.1,123.7z M178.8,114.5l0.1-0.2l0.1,0.2L178.8,114.5z M179.3,111.2
		c-0.1,0.2-0.4,0.2-0.7,0.3c-0.1-0.2-0.2-0.4-0.2-0.5c0.1-0.3,0.2-0.5,0.5-1.2C179.2,110.8,179.4,111.1,179.3,111.2z M183.7,95.5
		c0,0,0.1,0.1,0.1,0.2c-0.1,0-0.1,0-0.2,0.1c0-0.1-0.1-0.1-0.1-0.2C183.5,95.5,183.6,95.4,183.7,95.5z M183.2,107.2
		c0.1-0.1,0.3-0.2,0.5-0.2c0.1,0.2,0.1,0.3,0.2,0.5c-0.2,0.1-0.3,0.1-0.5,0.2C183.3,107.5,183.1,107.3,183.2,107.2z M182.2,131.5
		c-0.1-0.1-0.2-0.2-0.3-0.3c0.1-0.1,0.1-0.1,0.2-0.2c0.1,0.1,0.2,0.2,0.3,0.3C182.3,131.3,182.2,131.5,182.2,131.5z M181.5,116.7
		c0.4,0.6,0.8,0.9,0.7,1.1c-0.1,0.3-0.4,0.5-0.7,0.7c-0.1,0-0.5-0.3-0.5-0.5C181,117.7,181.2,117.4,181.5,116.7z"/>
	<path class="st1" d="M213.6,111.3h15.6v-8h-15.6V91.6h18.3v-4.4c0,0,0-0.1-0.1-0.1c0,0,0,0,0.1-0.1v-3.8h-28.3V104
		c0.1,0,0.3,0,0.4,0c0,0.1,0,0.1,0.1,0.2c0,0,0,0,0,0c0,0,0,0,0,0c0,0,0,0,0,0v0c0,0-0.1-0.1-0.1-0.2l0,0c-0.1,0-0.2,0-0.3-0.1v28.7
		H232v-8.3h-18.4V111.3z M225.5,84.1c0.1-0.1,0.4,0.1,0.7,0.2c-0.1,0.3-0.3,0.7-0.5,1.2c-0.3-0.4-0.6-0.6-0.6-0.8
		C225.2,84.5,225.3,84.2,225.5,84.1z M224.3,87.1c0.1,0,0.2,0,0.2,0c0,0.1,0,0.2,0,0.3c-0.1,0-0.2,0-0.2,0
		C224.3,87.2,224.3,87.1,224.3,87.1z M214.4,85.9c0.1-0.4,0.1-0.7,0.2-1.1c0.2,0.1,0.4,0.2,0.6,0.3C215,85.4,214.7,85.6,214.4,85.9
		c0,0,0,0.1,0,0.1c0,0,0,0,0,0c0,0,0,0,0,0l0,0L214.4,85.9C214.4,85.9,214.4,85.9,214.4,85.9z M219.7,126.1l-0.1,0.2l-0.1-0.2
		L219.7,126.1z M219,129.2l0.1,0.2l-0.2,0L219,129.2z M218.1,130.9c0.2,0.3,0.4,0.5,0.4,0.8c0,0.1-0.3,0.3-0.5,0.4
		c-0.1-0.3-0.3-0.5-0.3-0.8C217.7,131.2,217.9,131.1,218.1,130.9z M222.8,107c0.1,0,0.1,0.1,0.1,0.2c-0.1,0.1-0.1,0.1-0.2,0.2
		c-0.1-0.1-0.1-0.2-0.2-0.3C222.7,107,222.8,107,222.8,107z M210.8,94c0,0.1,0.1,0.2,0.1,0.2c-0.1,0-0.2,0.1-0.2,0.1
		C210.7,94.2,210.8,94.1,210.8,94z M210.1,86l0.1,0.2l-0.2,0L210.1,86z M209,88.2c0,0.1,0,0.2,0,0.3c-0.1,0-0.2,0-0.3,0
		C208.8,88.3,208.9,88.2,209,88.2z M208.9,101.5c-0.3,0.3-0.5,0.7-0.7,0.7c-0.2-0.1-0.5-0.3-0.6-0.5c-0.1-0.2,0.1-0.4,0.2-0.7
		C208.2,101.2,208.5,101.3,208.9,101.5z M207.6,86c-1.9,0.2-2.3-0.5-2.3-2.4C206.2,84.6,206.8,85.2,207.6,86z M206.7,89.5l-0.1-0.1
		l0-0.1L206.7,89.5z M206.7,91.9c1.4,1,1.4,2.3,1.3,4.2c-1.3-0.2-2.2-0.4-3.4-0.6C205.4,94.1,207.3,93.8,206.7,91.9z M204.8,100.9
		c-0.1,0.2-0.4,0.3-0.6,0.3c-0.1,0-0.3-0.3-0.3-0.4c0.1-0.2,0.3-0.4,0.6-0.7C204.7,100.5,204.9,100.8,204.8,100.9z M206.4,122.7
		c0,0-0.4-0.2-0.4-0.3c0.1-0.2,0.2-0.4,0.4-0.7c0.2,0.2,0.5,0.3,0.5,0.4C206.7,122.3,206.5,122.5,206.4,122.7z M206.6,105.9
		c-0.1-0.2,0.4-0.8,0.6-1.2l-0.1,0l0,0l0,0c0.2-0.1,0.4-0.2,0.5-0.2c-0.2,0.1-0.3,0.2-0.5,0.3c2.2,1.3,4.3,2.6,6.6,4
		C210.4,109.4,207.8,108.4,206.6,105.9z M210.4,121.2c1.5,1.6,1,2.8,0.9,4C209.9,124.1,210.1,123,210.4,121.2z M210.2,119.2
		c0-0.1,0.3-0.1,0.4-0.2c0.1,0.2,0.2,0.3,0.2,0.5c0,0.1-0.3,0.1-0.4,0.2C210.3,119.5,210.2,119.4,210.2,119.2z M209.8,114.4
		c0.2,0.2,0.5,0.4,0.6,0.7c0.1,0.2-0.2,0.4-0.4,0.7c-0.3-0.2-0.5-0.4-0.9-0.6C209.4,114.8,209.6,114.6,209.8,114.4z M210.1,128
		c-0.2-0.3,0-0.9,0.1-1.3c0.1-0.2,0.6-0.4,0.7-0.4c0.4,0.2,0.8,0.5,0.9,0.9c0.2,0.8,0.2,1.6,0.3,3.1
		C211.1,129.2,210.5,128.7,210.1,128z"/>
	<path class="st1" d="M266.1,122c-0.3-0.4-0.5-0.7-0.7-1c0.2-0.1,0.4-0.3,0.5-0.4l-3.7-8.6c4.8-2.6,7.2-7.2,7.2-13.8
		c0-4.8-1.4-8.5-4.1-11.1c-2.7-2.6-6.6-3.9-11.6-3.9h-1.4c0,0.1-0.1,0.1-0.1,0.2c-0.1,0-0.2-0.1-0.2-0.1c0,0,0,0,0-0.1h-14.2v6.9
		c0.3,0.1,0.6,0.2,0.6,0.4c0,0.3-0.3,0.6-0.5,1c0,0-0.1-0.1-0.1-0.1V119c0.3,0.3,0.6,0.7,1,1.3c-0.4,0.1-0.7,0.1-1,0.2v12.2h10v-6.8
		c-0.4-0.3-1-0.7-1.8-1.3c0.7-0.2,1.3-0.4,1.8-0.5v-9.4h5l7.4,18.1h4.7c0-0.1-0.1-0.1-0.1-0.2c0.8-0.4,1.4-0.2,1.9,0.2h4.3v-0.5
		l-4.5-10.6C266.3,121.8,266.2,121.9,266.1,122z M266.1,101.1c0.2,0.2,0.3,0.4,0.6,0.8c-0.4,0.1-0.6,0.2-0.9,0.2
		c-0.1,0-0.3-0.4-0.3-0.4C265.7,101.4,265.9,101.3,266.1,101.1z M264.2,108.8c0,0-0.4-0.1-0.4-0.2c0-0.2,0.1-0.4,0.2-0.7
		c0.2,0.1,0.5,0.2,0.5,0.2C264.5,108.4,264.4,108.6,264.2,108.8z M264,96.2l-0.1,0.2l-0.1-0.2L264,96.2z M238.7,116.6l0-0.2l0.2,0
		L238.7,116.6z M241.1,87.1c0.1,0,0.2,0,0.3,0c0,0.4-0.1,0.8-0.1,1.2c-0.1,0-0.1,0-0.2,0C241.1,87.9,241.1,87.5,241.1,87.1z
		 M241.6,125.7c-0.1,0-0.3,0.1-0.4,0.1c0-0.2-0.1-0.4,0-0.5c0.1-0.1,0.3-0.1,0.4-0.1C241.6,125.4,241.6,125.6,241.6,125.7z
		 M242.5,121.9c0.1,0,0.3,0.1,0.4,0.1c-0.1,0.1-0.1,0.2-0.2,0.2c-0.1,0-0.2-0.1-0.2-0.1C242.5,122.1,242.5,122,242.5,121.9z
		 M242.6,127.8c0.1,0,0.2-0.1,0.2-0.1c0.1,0.1,0.2,0.3,0.3,0.4c-0.1,0-0.2,0.1-0.2,0.1C242.7,128,242.7,127.9,242.6,127.8z M243,130
		l0.1-0.1l0.1,0.2L243,130z M244.4,105.7c0.2,0.2,0.4,0.3,0.6,0.5c0.1,0,0.1,0,0.2,0l0,0.1l-0.1,0.2c0,0,0-0.2,0.1-0.2
		c0,0-0.1-0.1-0.1-0.1c-0.3-0.1-0.5-0.2-0.8-0.2C244.3,105.9,244.4,105.8,244.4,105.7z M244.9,115c-0.1,0-0.3-0.3-0.3-0.4
		c0.1-0.2,0.3-0.4,0.6-0.7c0.2,0.3,0.4,0.6,0.3,0.8C245.4,114.8,245.1,114.9,244.9,115z M260.5,91.2l0.2,0.1l-0.2,0.1L260.5,91.2z
		 M260.5,93.1c0.1,0.1,0.1,0.3,0.2,0.4c-0.1,0.1-0.2,0.2-0.4,0.3c-0.1-0.1-0.2-0.3-0.3-0.4C260.2,93.4,260.3,93.2,260.5,93.1z
		 M249.6,91c-0.2,0-0.5,0.1-0.7,0.1c-0.1-0.7-0.1-1.4-0.2-2.1c0.1,0,0.3,0,0.4-0.1C249.3,89.6,249.5,90.3,249.6,91z M248.7,83.8
		c0.1,0.2,0.2,0.5,0.2,0.7c0,0.1-0.3,0.1-0.6,0.2c0-0.3-0.1-0.5-0.1-0.8C248.3,83.9,248.6,83.8,248.7,83.8z M246.7,118.4l0-0.2
		l0.2,0.1L246.7,118.4z M246.4,110.1c0-0.1,0-0.2,0.1-0.2c0,0,0.1,0,0.2,0c0,0.1,0.1,0.1,0.1,0.2
		C246.6,110.1,246.5,110.1,246.4,110.1z M249.7,110.5c-0.3-0.3-0.7-0.5-0.7-0.6c0.2-0.6,0.4-1.1,0.8-2.1c0.3,0.7,0.5,1,0.4,1.2
		C250.2,109.5,250,109.9,249.7,110.5z M253.9,115.3c-0.1,0-0.2-0.1-0.3-0.1c0-0.1,0.1-0.1,0.1-0.2c0.1,0,0.2,0.1,0.2,0.1
		C254,115.1,253.9,115.2,253.9,115.3z M253.4,106.3h-5.7V101c-0.6-0.9-1-1.4-1.4-1.9l0,0l0,0c0,0,0,0,0,0l0,0
		c0.1-0.4,0.2-0.9,0.3-1.3c0.1,0,0.2,0.1,0.3,0.1c-0.2,0.4-0.4,0.8-0.6,1.2c0,0,0,0,0,0c0.4,0,0.8-0.1,1.4-0.1v-7.4h5.8
		c3.9,0,5.8,2.5,5.8,7.4c0,2.2-0.5,4-1.5,5.3C256.9,105.7,255.4,106.3,253.4,106.3z M258.5,110c-0.2-0.1-0.5-0.3-0.5-0.4
		c0-0.2,0.2-0.4,0.4-0.7c0.2,0.4,0.3,0.6,0.4,0.8C258.8,109.7,258.6,109.8,258.5,110z M260.8,130.9c-0.5-0.1-1-0.2-1.5-0.3
		c0-0.2,0.1-0.4,0.1-0.6c0.5,0,1,0.1,1.5,0.1C260.9,130.4,260.8,130.7,260.8,130.9z M263.5,122.7
		C263.5,122.7,263.6,122.7,263.5,122.7L263.5,122.7z"/>
</g>
</svg>
