<?xml version="1.0" encoding="utf-8"?>
<!-- Generator: Adobe Illustrator 22.1.0, SVG Export Plug-In . SVG Version: 6.00 Build 0)  -->
<svg version="1.1" id="Layer_1" xmlns="http://www.w3.org/2000/svg" xmlns:xlink="http://www.w3.org/1999/xlink" x="0px" y="0px"
	 viewBox="0 0 360 297.6" style="enable-background:new 0 0 360 297.6;" xml:space="preserve">
<style type="text/css">
	.st0{fill:#F1F2F2;}
</style>
<g>
	<g>
		<g>
			<path class="st0" d="M128.5,8.8l39.4,90.2l1.8,4.2l1.8-4.2l22.2-51.1l36.2,82.8l1.8,4.2l1.8-4.2l26.4-61l22.8,0l-51,117.6
				l-36.2-83l-1.8-4.2l-1.8,4.2l-22.1,50.9l-39.3-90.1l-1.8-4.2l-1.8,4.2L40,265.4l-1.2,2.8h3h276.2h3.1l-1.2-2.8l-45.4-104.1
				l11.4-26.2l68.2,156.6H5.9L128.5,8.8 M128.5,3.8L2.8,293.8h354.3l-71.3-163.6l-13.5,31.2l45.7,104.9H41.9l86.7-200.1l41.1,94.3
				l23.9-55.2l38,87.2l54.1-124.6l-27.2,0L231.7,130l-38-87.1l-24,55.3L128.5,3.8L128.5,3.8z"/>
		</g>
	</g>
</g>
<g>
</g>
<g>
</g>
<g>
</g>
<g>
</g>
<g>
</g>
<g>
</g>
</svg>
