<?xml version="1.0" encoding="utf-8"?>
<!-- Generator: Adobe Illustrator 22.1.0, SVG Export Plug-In . SVG Version: 6.00 Build 0)  -->
<svg version="1.1" id="Layer_1" xmlns="http://www.w3.org/2000/svg" xmlns:xlink="http://www.w3.org/1999/xlink" x="0px" y="0px"
	 viewBox="0 0 360 216" style="enable-background:new 0 0 360 216;" xml:space="preserve">
<style type="text/css">
	.st0{opacity:0.85;}
	.st1{fill:#F1F2F2;}
	.st2{fill:none;}
	.st3{fill:#FFFFFF;}
</style>
<g>
	<path class="st0" d="M300.9,49.2H59.1c-31.5,0-57,26.3-57,58.8v0c0,32.5,25.5,58.8,57,58.8h241.8c31.5,0,57-26.3,57-58.8v0
		C357.9,75.5,332.4,49.2,300.9,49.2L300.9,49.2z"/>
	<path class="st1" d="M299.1,57c28.1,0,51,22.9,51,51c0,28.1-22.9,51-51,51H60.9c-28.1,0-51-22.9-51-51c0-28.1,22.9-51,51-51H299.1
		 M299.1,51.9H60.9C29.9,51.9,4.8,77,4.8,108v0c0,31,25.1,56.1,56.1,56.1h238.2c31,0,56.1-25.1,56.1-56.1v0
		C355.2,77,330.1,51.9,299.1,51.9L299.1,51.9z"/>
	<g>
		<g>
			<path class="st1" d="M77.8,110.5h-5.3v12.1h-3.8v-30h8.4c2.9,0,5.2,0.8,6.7,2.3c1.5,1.5,2.3,3.8,2.3,6.7c0,1.9-0.4,3.5-1.2,4.8
				c-0.8,1.4-2,2.4-3.5,3.1l5.8,12.7v0.2h-4.1L77.8,110.5z M72.5,107.3h4.6c1.6,0,2.8-0.5,3.8-1.5c0.9-1,1.4-2.4,1.4-4.1
				c0-3.8-1.7-5.8-5.2-5.8h-4.5V107.3z"/>
			<path class="st1" d="M105.5,108.8H94.9v10.6h12.3v3.2H91.1v-30H107v3.2H94.9v9.7h10.6V108.8z"/>
			<path class="st1" d="M116.9,92.7l7.8,24.5l7.8-24.5h4.9v30h-3.8V111l0.3-11.7l-7.8,23.4h-2.9l-7.8-23.3l0.3,11.6v11.7H112v-30
				H116.9z"/>
			<path class="st1" d="M163.4,110.3c0,4.1-0.9,7.2-2.6,9.4c-1.7,2.2-4.2,3.3-7.4,3.3c-3.1,0-5.5-1.1-7.3-3.2
				c-1.8-2.1-2.7-5.2-2.8-9.1v-5.6c0-4,0.9-7.1,2.7-9.4c1.8-2.3,4.2-3.4,7.4-3.4c3.2,0,5.6,1.1,7.4,3.3c1.8,2.2,2.7,5.3,2.7,9.3
				V110.3z M159.6,105.1c0-3.2-0.5-5.5-1.6-7.1c-1-1.5-2.6-2.3-4.8-2.3c-2.1,0-3.6,0.8-4.7,2.3c-1.1,1.6-1.6,3.9-1.6,6.9v5.4
				c0,3.1,0.5,5.4,1.6,7c1.1,1.6,2.7,2.4,4.8,2.4c2.1,0,3.7-0.7,4.7-2.2c1-1.5,1.5-3.8,1.6-6.8V105.1z"/>
			<path class="st1" d="M177.3,116.9l6.9-24.2h4.1l-9.3,30h-3.3l-9.3-30h4.1L177.3,116.9z"/>
			<path class="st1" d="M206.7,108.8h-10.6v10.6h12.3v3.2h-16.1v-30h15.9v3.2h-12.1v9.7h10.6V108.8z"/>
		</g>
		<g>
			<path class="st2" d="M279.2,125.1c-1.3,0-2.4,1.1-2.4,2.4c0,1.4,1,2.4,2.3,2.4c1.4,0,2.4-1,2.4-2.3
				C281.7,126.1,280.4,125.1,279.2,125.1z"/>
			<path class="st2" d="M257.5,125.1c-1.3,0-2.5,1.1-2.4,2.5c0,1.3,1.1,2.3,2.4,2.3c1.4,0,2.4-1,2.4-2.4
				C259.9,126.1,258.8,125.1,257.5,125.1z"/>
			<path class="st3" d="M257.5,120.3c-4.1-0.1-7.2,3.4-7.2,7.2c0,4.2,3.2,7.3,7.3,7.3c4.1,0,7.2-3.2,7.2-7.3
				C264.7,123.5,261.5,120.3,257.5,120.3z M257.5,129.9c-1.4,0-2.4-1-2.4-2.3c0-1.3,1.1-2.5,2.4-2.5c1.3,0,2.4,1,2.4,2.4
				C259.9,128.8,258.9,129.8,257.5,129.9z"/>
			<path class="st3" d="M279.3,120.3c-4,0-7.3,3.1-7.3,7.2c0,4.3,3.2,7.2,7.2,7.2c4,0,7.2-3,7.2-7.2
				C286.4,123.5,283.2,120.3,279.3,120.3z M279.1,129.9c-1.4,0-2.4-1.1-2.3-2.4c0-1.3,1.1-2.4,2.4-2.4c1.2,0,2.4,1,2.4,2.5
				C281.5,128.9,280.5,129.9,279.1,129.9z"/>
			<path class="st3" d="M288.7,93.3c-0.2,0-0.4,0-0.5,0c-0.4,0-0.8,0-1.2,0l-1.7,4.9c0,0,0,0,0,0c-0.1,0.3-0.2,0.6-0.3,0.9
				c-0.1,0.3-0.2,0.5-0.3,0.8v0l0,0c-1.1,2.9-2.2,5.9-3.3,8.8c-0.7,1.9-1.9,3.2-3.8,3.7c-0.5,0.1-1.1,0.1-1.6,0.1
				c-5.2,0-10.5,0-15.7,0c-0.3,0-0.6,0-1.1,0c-1.2-3.2-2.4-6.5-3.6-9.8l5.2-12.1l6.2,14.2l3.6-8.3l5.7,13.1l8.1-18.7h-4.1l-4.1,9.4
				l-5.7-13.1l-3.6,8.3l-6.2-14.2l-7.1,16.4l-2-5.5c-0.4-1.1-0.8-2.2-1.3-3.4c-0.7-1.8-2.2-2.7-4-2.8c-2-0.1-4-0.1-6,0
				c-1.2,0-2.2,0.9-2.3,2.1c-0.1,1.3,0.6,2.4,1.9,2.6c0.4,0.1,0.8,0.1,1.2,0.1c1.4,0,2.8,0,4.1,0c0.2,0,0.5,0,0.7,0.1
				c2.6,7.2,5.3,14.5,7.9,21.7c-0.3,0.1-0.4,0.2-0.6,0.2c-1.9,0.5-3.4,1.6-4.4,3.3c-0.7,1.1-1,2.4-1,3.6c0,0.3,0.2,0.5,0.5,0.5h3.6
				c0.3,0,0.5-0.2,0.5-0.5l0,0c0-1.2,1.1-2.3,2.4-2.3c0.3,0,0.6,0,0.9,0c6,0,11.9,0,17.9,0c1.2,0,2.5-0.1,3.7-0.1
				c1.3-0.1,2.5-0.5,3.6-1.1c2.4-1.3,4-3.3,4.9-5.8c1.1-2.9,2.2-5.8,3.2-8.7c0.6-1.7,1.3-3.4,1.9-5.1
				C291.7,94.8,290.6,93.3,288.7,93.3z"/>
		</g>
	</g>
</g>
</svg>
