<?xml version="1.0" encoding="utf-8"?>
<!-- Generator: Adobe Illustrator 22.1.0, SVG Export Plug-In . SVG Version: 6.00 Build 0)  -->
<svg version="1.1" id="Layer_1" xmlns="http://www.w3.org/2000/svg" xmlns:xlink="http://www.w3.org/1999/xlink" x="0px" y="0px"
	 viewBox="0 0 360 360" style="enable-background:new 0 0 360 360;" xml:space="preserve">
<style type="text/css">
	.st0{fill:#F26424;}
	.st1{fill:#E6E6E5;}
</style>
<rect class="st0" width="360" height="360"/>
<g>
	<path class="st1" d="M139.1,126.3c-1.4-0.2-2.9-0.5-4.3-0.7c-0.3,0-0.6-0.1-0.8-0.2c-0.9-0.6-0.7-4.1,0.4-4.5
		c3.7-1.5,7.4-3.1,11.1-4.3c1.7-0.6,3.7-0.4,5.5-0.5c5-0.3,10-0.7,15-0.7c3,0,6,0.4,9,0.7c6.2,0.6,12.5,1.4,18.7,2
		c1.1,0.1,1.5,0.6,1.5,1.6c0,1.4,0,2.9,0,4.3c0,1.3-0.4,1.7-1.7,1.8c-3.9,0.3-7.7,0.5-11.6,0.9c2.7,0.2,5.4,0.3,8.1,0.5
		c1.9,0.1,3.8,0.2,5.7,0.3c1.4,0.1,1.6,0.3,1.6,1.7c0,1.5,0,3.1,0,4.6c0,1.1-0.4,1.7-1.5,1.8c-0.4,0-0.9,0.1-1.2,0.3
		c-0.5,0.2-1.2,0.5-1.3,0.9c-0.1,0.4,0.2,1.1,0.5,1.5c2.4,2.6,4.8,5.1,7.3,7.6c2.4,2.3,4.8,4.6,7.3,6.8c0.7,0.6,1,1.3,1,2.2
		c0,1.4,0,2.9,0,4.3c0,0.9,0.3,1.5,1.2,1.9c3.3,1.6,6.5,3.2,9.7,4.9c0.7,0.4,1.3,1,1.7,1.6c3.6,6.8,7.1,13.7,10.8,20.5
		c1.2,2.2,3.1,4.1,4.6,6.2c0.4,0.6,0.8,1.4,0.7,2.1c-0.5,4.1,0.8,7.4,3.1,10.8c3.7,5.3,6.9,10.9,10.3,16.4c0.3,0.5,0.5,1.1,0.5,1.7
		c0,5.8,0,11.7,0,17.5c0,1.4-0.3,1.7-1.7,1.6c-7.6-0.6-15.2-0.9-22.7-1.8c-6.7-0.8-13.3-2.2-19.8-3.7c-4.1-0.9-8.3-1-12.4-1.2
		c-4-0.2-8-0.3-12.1-0.5c-1.4-0.1-1.7-0.3-1.7-1.7c0-3.9,0-7.9,0-11.8c0-0.7,0.3-1.6,0.8-2c2.1-1.8,2.6-4.2,2.7-6.8
		c0.2-4.5,0.6-9,0.9-13.4c0.1-1,0.6-1.5,1.3-2c1.8-1.4,2-1.5,0.5-3.3c-2.9-3.5-4.1-7.3-3.5-11.9c0.3-2.5,0.1-5.1,0.2-7.7
		c0-0.9-0.3-1.5-0.9-2.2c-4-3.9-7.9-7.8-12-11.7c-0.5-0.5-1.4-0.8-2.1-0.9c-1-0.2-2-0.1-3-0.1c-0.9,0-1.3-0.4-1.6-1.3
		c-0.6-1.9-1.2-3.8-1.7-5.8c-0.3-1-0.8-1.4-1.9-1.1c-0.8,0.2-1.6,0.4-2.4,0.5c-3.2,0.1-5.6,1.7-7.4,4.3c-0.2,0.3-0.5,0.6-0.8,0.9
		c-1,1.5-2.3,2.2-4.2,2.1c-1.1-0.1-1.5,0.5-1.4,1.6c0.1,1.2,0.1,2.5,0.4,3.7c0.2,1.1-0.1,1.9-0.8,2.7c-0.9,1.1-1.7,2.3-2.6,3.3
		c-1.8,1.9-2.9,4.2-3.2,6.8c-0.4,3.3-1.8,6-4.6,7.9c-2,1.3-3.3,3.3-4.5,5.4c-0.6,1-1.3,1.4-2.5,1.1c-0.9-0.2-1.8-0.2-2.8-0.1
		c1.3,0.8,2.6,1.6,3.9,2.4c0.4,0.2,0.8,0.5,1.1,0.9c3.4,4.7,6.7,9.4,10.2,14c1.1,1.5,1,3.1,1.1,4.8c0.6,5.3,1.1,10.7,1.6,16.1
		c0.1,1.4-0.3,1.9-1.7,1.8c-3.1-0.2-6.2-0.5-9.2-0.9c-5.9-0.7-11.7-1.5-17.6-2.2c-0.9-0.1-1.4-0.5-1.7-1.3c-1.3-2.7-2.7-5.3-4-8
		c-0.2-0.4-0.4-1.2-0.2-1.5c2.1-2.7,1.3-5.8,1.2-8.8c-0.1-1.9,0.1-2.1,1.9-1.9c1,0.1,1.3-0.6,1.4-1.4c0.4-3.6,0.8-7.2,1.2-10.7
		c0.1-1.2,0.1-2.3,1.6-2.8c0.6-0.2,1.1-0.9,1.8-1.5c-0.4-0.1-0.6-0.2-0.8-0.3c-1.2-0.3-1.5-1-0.9-2c0.3-0.5,0.4-1.1,0.5-1.6
		c0.1-1.4,0-2.8,0-4.2c0-0.8,0.3-1.4,1.1-1.5c0.9-0.2,1.2-0.7,1.2-1.6c0-2.6,0-5.2,0-7.8c0-0.9-0.3-1.5-1.1-1.6
		c-2.2-0.4-2.7-1.8-2.6-3.9c0.2-5.3,0.1-10.7,0-16c0-1,0.2-1.8,0.8-2.6c5.2-6.7,10.3-13.5,15.4-20.2c0.7-0.9,1.5-1.3,2.6-1.5
		c2-0.3,3.9-0.8,5.9-1.2C139.1,126.5,139.1,126.4,139.1,126.3z"/>
</g>
<g>
	<path class="st1" d="M142.1,289.5l6.7,20.9l6.7-20.9h4.1v25.6h-3.2v-10l0.3-10l-6.7,20h-2.5l-6.7-19.9l0.3,9.9v10H138v-25.6H142.1z
		"/>
	<path class="st1" d="M181.8,304.6c0,3.5-0.7,6.2-2.2,8.1s-3.6,2.8-6.3,2.8c-2.6,0-4.7-0.9-6.2-2.8s-2.3-4.4-2.4-7.8v-4.8
		c0-3.4,0.8-6.1,2.3-8s3.6-2.9,6.3-2.9c2.7,0,4.8,0.9,6.3,2.8s2.3,4.5,2.3,8V304.6z M178.6,300.1c0-2.7-0.4-4.7-1.3-6s-2.2-2-4.1-2
		c-1.8,0-3.1,0.7-4,2s-1.4,3.3-1.4,5.9v4.6c0,2.6,0.5,4.6,1.4,6s2.3,2.1,4.1,2.1s3.1-0.6,4-1.9s1.3-3.2,1.4-5.8V300.1z"/>
	<path class="st1" d="M198.4,308.4h-8.6l-2,6.7h-3.3l8.2-25.6h2.8l8.3,25.6h-3.3L198.4,308.4z M190.6,305.7h7l-3.5-11.6L190.6,305.7
		z"/>
	<path class="st1" d="M207.2,315.1v-25.6h7.3c2.3,0,4.1,0.6,5.3,1.7s1.8,2.8,1.8,5.1c0,1.2-0.3,2.2-0.9,3.2s-1.4,1.6-2.4,2.1
		c1.2,0.4,2.1,1.1,2.8,2.2s1,2.4,1,3.9c0,2.3-0.6,4.1-1.9,5.4s-3.1,2-5.4,2H207.2z M210.4,300.4h4.1c1.1,0,2-0.4,2.7-1.1
		c0.7-0.8,1-1.7,1-3c0-1.4-0.3-2.4-0.9-3.1c-0.6-0.6-1.6-1-2.8-1h-4.1V300.4z M210.4,303.1v9.2h4.4c1.2,0,2.2-0.4,2.9-1.2
		s1.1-1.9,1.1-3.4c0-3.1-1.3-4.6-3.9-4.6H210.4z"/>
</g>
</svg>
