<?xml version="1.0" encoding="utf-8"?>
<!-- Generator: Adobe Illustrator 22.1.0, SVG Export Plug-In . SVG Version: 6.00 Build 0)  -->
<svg version="1.1" id="Layer_1" xmlns="http://www.w3.org/2000/svg" xmlns:xlink="http://www.w3.org/1999/xlink" x="0px" y="0px"
	 viewBox="0 0 360 360" style="enable-background:new 0 0 360 360;" xml:space="preserve">
<style type="text/css">
	.st0{fill:#24B574;}
	.st1{fill:#E6E6E5;}
</style>
<rect class="st0" width="360" height="360"/>
<g>
	<path class="st1" d="M157.2,186.8c2.6,3,3.8,6.5,4.9,10c0.4,1.2,1.2,2.4,2.1,3.4c1.6,2,3.3,3.9,4.9,5.9c0.9,1.1,0.8,2.8-0.4,3.6
		c-1.9,1.4-2.5,3.5-3.4,5.5c-0.2,0.4-0.1,0.9,0.1,1.3c1.3,3.3,1.4,6.8,1.6,10.3c0.1,1.3,0,2.6,0.1,3.9c0,0.4,0.2,0.8,0.3,1.2
		c0.1,0.2,0.2,0.3,0.2,0.5c0.1,2.4,1.8,4.2,2.3,6.4c0.3,1.3,0.1,2.3-0.8,3.2c-0.8,0.7-1.5,1.5-2.3,2.2c-0.5,0.5-0.7,0.9-0.3,1.5
		c0.3,0.5,0.4,1.1,0.6,1.7c0.4,1.5,0,2.2-1.4,2.7c-1,0.3-2,0.6-3,0.8c-0.3,0-0.6-0.3-0.9-0.4c0.2-0.3,0.3-0.8,0.5-0.9
		c0.8-0.3,1.7-0.5,2.5-0.7c0.8-0.2,1.1-0.7,0.7-1.4c-1.2-2.1-0.6-3.8,1.3-5.1c0.1,0,0.1-0.1,0.2-0.2c2.2-2.2,2.2-2.4,0.7-5.1
		c-0.1-0.3-0.3-0.5-0.5-0.9c-0.5,0.8-1,1.5-1.4,2.2c-2.1,3.6-4.2,7.3-6.4,10.9c-0.2,0.3-0.7,0.4-1.1,0.6c-0.1-0.4-0.3-0.9-0.2-1.2
		c0.8-1.6,1.5-3.2,2.4-4.7c1.8-3,3.7-5.9,5.5-8.9c0.3-0.5,0.3-1.3,0.3-1.9c-0.1-1.1-0.5-2.2-0.6-3.3c-0.1-1.1,0-2.2,0-3.3
		c-0.1,0-0.3,0-0.4-0.1c-1.5,2.9-3.1,5.8-4.6,8.7c-2.1,4.2-4.1,8.4-6.2,12.6c-0.7,1.4-1.6,2.6-2.5,3.8c-0.2,0.2-0.7,0.2-1,0.4
		c-0.1-0.4-0.4-0.9-0.2-1.1c4.5-6.7,7.1-14.3,11.1-21.2c1.1-1.9,2.1-3.8,3.2-5.8c0.1-0.2,0.3-0.6,0.3-0.8c-0.2-1.7-0.5-3.4-0.8-5.1
		c-0.1,0-0.2,0-0.3,0c-0.9,1.3-1.7,2.5-2.6,3.8c-1.4,2.1-2.6,4.3-3.3,6.8c-0.3,1.1-0.6,2.2-1.2,3c-2.6,3.6-4.2,7.6-6.3,11.5
		c-1.2,2.3-2.3,4.6-3.5,7c-0.3,0.5-0.6,1.2-1.3,0.8c-0.7-0.4-0.3-0.9-0.1-1.4c2.6-5.1,5.2-10.3,7.8-15.4c0.7-1.4,1.7-2.6,2.6-4
		c0.2-0.3,0.3-0.8,0.3-1.1c-0.3-3.2-0.6-6.4-0.9-9.6c-2.7-0.5-5.3-1-8-1.5c-2.2-0.4-4.4-1.2-6.1-2.5c-1.8-1.4-3.7-2.1-5.8-2.2
		c-2.8-0.1-5-1.7-7.3-3.1c-0.7-0.5-1.3-1.5-1.5-2.4c-0.4-2.1-1.4-4-2.9-5.4c-3.1-2.8-5.9-5.7-8.1-9.4c-1.1,1.3-2,2.5-3.1,3.7
		c-1.3,1.4-2.6,2.8-3.9,4.2c-0.4,0.4-0.8,1-1.5,0.4c-0.6-0.6,0-1,0.4-1.4c2.4-2.7,4.8-5.4,7-7.8c-1.1-2.5-2.1-4.8-3.2-7.1
		c-0.7,0.4-1.4,0.9-2.2,1.4c-0.5,0.3-1,0.5-1.3-0.1c-0.1-0.3,0.3-0.8,0.4-1.1c0.1-0.1,0.2-0.2,0.4-0.2c2.9-1.2,4.2-3.4,4.7-6.4
		c0.3-1.9,0.9-3.9,1.5-5.7c0.5-1.5,1.4-3,2.1-4.5c0.4-0.8,0.5-1.8,0.7-2.7c0.1-0.6,0.1-1.2,0.2-1.7c0.4-2.1,0.9-4.1,1.4-6.2
		c0.5-2,1-4.1,1.4-6.1c0.2-0.7,0.3-1.5,0.6-2.2c0.3-0.6,0.7-1.3,1.2-1.7c1.4-1,2.9-1.4,4.6-1.4c1.7,0,3.3-0.3,5-0.6
		c1.7-0.3,3.1-1,4.1-2.5c1.5-2.2,3.5-4.2,4.7-6.6c1.4-2.7,2.8-5.6,2.7-8.9c0-0.7,0.2-1.5,0.4-2.2c0.6-2,1.3-3.9,1.8-5.8
		c0.3-1.1,0.3-2.3,0.2-3.5c-0.1-1.5,0.1-3,0.9-4.4c1.2-2.1,3.1-3,5.4-2.3c2,0.6,4,1.1,6.1,0.9c1-0.1,2,0.2,2.9,0.4
		c1.8,0.3,3.5,0.3,5.1-0.7c0.4-0.3,0.9-0.4,1.4-0.5c1.2-0.3,2.4-0.6,3.6-0.8c1.5-0.3,3-0.6,4.4-0.6c5.8-0.1,11.4,0.7,16.9,2.6
		c1,0.3,1.9,0.9,2.9,1.3c1.6,0.8,3.3,1.5,4.8,2.4c1.1,0.6,2.2,1.3,3.1,2.2c2.4,2.3,4.6,4.7,7,7c0.9,0.8,1.9,1.5,2.8,2.3
		c0.6,0.5,1.4,1,1.8,1.7c1.6,3.1,4.1,5.4,6.4,7.9c2.6,2.8,5.1,5.7,6.7,9.2c0.5,1.1,1.6,2.1,2.2,3.2c1.1,2.1,2.4,4.2,3.1,6.5
		c1.5,5,3.8,9.6,6.3,14.1c1.6,2.8,2.6,5.8,3.9,8.7c0.8,1.7,1.4,3.5,2.2,5.3c2.1,4.9,4.3,9.7,6.4,14.6c0.1,0.3,0,1.1-0.2,1.2
		c-0.6,0.3-1-0.2-1.2-0.7c-1.2-2.9-2.4-5.9-3.7-8.8c-1.4-3.2-3.2-6.2-4.3-9.5c-1.6-4.7-3.7-9.1-6.2-13.3c-1.8-3.1-3.2-6.4-4.2-9.8
		c-0.9-3.2-2.2-6.2-4.4-8.8c-0.4-0.5-0.8-1-1.1-1.6c-2.2-4.8-6-8.4-9.4-12.2c-0.9-1-1.8-2-2.5-3.1c-0.9-1.4-2.1-1.9-3.7-2.1
		c-0.9-0.1-1.9-0.1-2.8-0.3c-0.3-0.1-0.6-0.6-0.9-0.9c0.4-0.2,0.7-0.5,1.1-0.5c0.9,0,1.8,0.1,3,0.2c-0.9-0.8-1.6-1.4-2.2-2.1
		c-2.4-2.4-4.7-4.8-7.1-7.2c-0.4-0.4-0.8-0.9-1.3-1.2c-4.3-1.9-8.2-4.6-12.9-5.6c-4.1-0.9-8.2-1.5-12.3-1.4c-1.4,0-2.9,0.3-4.3,0.7
		c-1.2,0.3-2.3,0.9-3.7,0.9c-1,0-2,0.9-3,1c-1.3,0.2-2.7,0-4,0c-1.3-0.1-2.7-0.2-4-0.3c-1.5-0.2-3-0.5-4.5-0.8
		c-0.9-0.1-1.8-0.2-2.9-0.3c3,2.6,6.1,4,9.7,4.5c2.5,0.3,4.1,1.8,5.4,3.8c0.2,0.3,0.4,0.6,0.6,1c0.5-0.1,1.1-0.3,1.6-0.4
		c1.4-0.2,2.3,0.2,2.7,1.5c0.5,1.5,1.5,2.4,2.9,3.1c0.4,0.2,0.8,0.8,0.8,1.1c-0.2,0.7-0.8,0.5-1.3,0.3c-1.7-0.7-3-1.8-3.7-3.5
		c-0.4-1-0.8-1-2.1-0.4c1,1.5,2,2.9,2.9,4.5c0.6,1.2,0.9,2.5,1.3,3.8c0.2,0.7,0.3,1.4,0.5,2.1c1.4,3.8,3,7.5,4.2,11.3
		c1,3.5,2.9,6.5,4.9,9.4c0.8,1.1,1.8,1.9,2.8,2.8c0.2,0.2,0.5,0.5,0.7,0.7c4.9,7.3,9,15,11.2,23.6c0.4,1.7,0.6,3.3,2.9,3.1
		c0.4,0,0.7,0.3,1.2,0.5c0.2-1.1,0.3-2.2,0.7-3.2c1.4-4,1.9-8.2,1.7-12.4c0-0.2-0.1-0.4,0-0.5c0.2-0.3,0.5-0.5,0.8-0.8
		c0.2,0.3,0.7,0.5,0.7,0.8c0,3.6,0.4,7.2-0.9,10.8c-0.7,1.8-0.9,3.8-1.3,5.7c-0.1,0.6,0.1,0.9,0.6,1.2c1.2,0.6,2.3,1.3,3.5,1.9
		c0.4,0.2,0.9,0.3,1.3,0.2c3.6-0.9,7.2-1.2,10.8-1c1.5,0.1,2.9,0.3,4.6,0.6c0.3-0.9,0.6-1.8,0.9-2.8c0.1-0.3,0.1-0.7,0.3-0.9
		c0.2-0.3,0.6-0.5,0.9-0.7c0.2,0.3,0.5,0.7,0.5,1c-0.2,1.1-0.5,2.1-0.8,3.2c-0.1,0.3-0.2,0.6-0.3,0.9c2.1,1.3,4.2,2.5,6.2,3.8
		c2.3,1.5,4.5,3.1,6.7,4.8c3.1,2.5,6.7,3.8,10.3,5c1,0.3,2,0.6,3,0.8c0.4,0.1,0.9,0.3,1.2,0.5c0.2,0.2,0.4,0.7,0.3,0.9
		c-0.1,0.2-0.6,0.5-0.9,0.4c-5.7-1.7-11.5-3.3-16.3-7.4c-3.2-2.8-7.1-4.8-10.7-7.1c-1.8-1.1-3.9-1.4-6-1.5c-3.1-0.1-6.1,0.1-9.5,0.9
		c0.7,0.4,1.2,0.8,1.7,0.8c3.2,0.2,5.9,1.7,8.5,3.1c3.2,1.7,6.2,3.7,9.4,5.5c0.7,0.4,1.4,0.6,2.1,1c0.3,0.2,0.5,0.7,0.7,1
		c-0.4,0.1-1,0.4-1.3,0.3c-1.6-0.8-3.3-1.6-4.7-2.6c-3.7-2.6-7.7-4.5-11.8-6.3c-0.6-0.3-1.3-0.5-1.9-0.5c-1.3,0-2.3-0.6-3.3-1.2
		c-2.8-1.7-5.6-3.4-8.5-5.1c-0.4-0.2-0.8-0.4-1.2-0.4c-3,0-5.5-1.6-8.2-2.4c-0.3-0.1-0.6-0.4-0.8-0.7c-0.7-1-1.7-1.4-2.8-1.5
		c-1.2-0.1-2.5-0.3-3.7-0.3c-6.2,0.3-12.1-1.4-18.2-2.4c-1.4-0.2-1.7,0-1.6,1.4c0.1,1-0.4,1.8-1.2,2.2c-1.2,0.7-1.6,1.6-1.4,2.9
		C159,184.7,158.8,185.9,157.2,186.8z M147.8,216.3c0.4-3.1,0.8-6.2,1.2-9.2c0.5-4.1,1.1-8.1,0.4-12.3c-0.2-1,0.4-2,0.6-3
		c0.1-0.6,0.5-1.1,0.5-1.6c0.2-6,0.4-12,0.4-18.1c0.1-8.3,0.2-16.6,0.2-24.9c0-0.3-0.1-0.7,0-1c0.1-0.3,0.5-0.6,0.7-0.6
		c0.2,0,0.5,0.4,0.7,0.6c0.1,0.2,0,0.4,0,0.6c-0.2,14.5-0.4,29.1-0.6,43.6c0,0.5-0.2,1.1-0.4,1.6c-0.8,1.3-0.9,2.6-0.6,4
		c0.1,0.7,0.2,1.5,0.2,2.2c-0.4,4.2-0.8,8.5-1.2,12.7c-0.2,1.9-0.4,3.8-0.6,5.7c2.1,0.3,4,0.6,6,0.9c0-0.8-0.1-1.6-0.1-2.3
		c0-2.7-0.1-5.3,0-8c0-1.5,0.5-3,0.5-4.5c-0.1-5-0.3-10.1-0.4-15.1c0-0.6,0.3-1.5,0.7-1.8c1.1-0.7,1.4-1.6,1.3-2.9
		c-0.2-1.6,0.3-2.9,1.8-3.7c0.6-0.3,0.8-0.8,0.7-1.4c0-0.6,0.1-1.3,0.4-1.8c0.7-1.2,1.9-1,3-0.8c1.3,0.2,2.5,0.4,4,0.7
		c-0.2-2.6-0.4-5.1-0.6-7.6c-0.4-5.6-0.9-11.1-1.3-16.7c-0.1-1.2-0.2-2.5-0.6-3.7c-1.1-3.2-1.6-6.5-1.7-9.8c-0.1-6.3,0-12.7,0-19
		c0-0.5-0.3-1.1-0.6-1.5c-1.2-1.3-2.8-1.4-4.4-1.6c0,1.7-0.1,3.4,0,5.1c0.5,11.1,1.1,22.2,1.7,33.3c0.2,3.7,0.4,7.4,0.6,11.1
		c0,0.8,0.4,1.5,0.4,2.3c0,0.3-0.4,0.7-0.6,1c-0.3-0.2-0.8-0.5-0.9-0.7c-0.3-2.1-0.8-4.2-0.9-6.3c-0.4-8.2-0.6-16.4-0.9-24.6
		c-0.3-6.9-0.8-13.8-1.1-20.7c0-0.6-0.2-1-0.8-1.2c-1.7-0.6-3.6-1-4.7-2.8c-0.1-0.2-0.4-0.2-0.7-0.3c0.2,1,0.4,1.9,0.5,2.8
		c0.3,5.5,0.6,11,0.9,16.5c0,0.5,0.1,1.1-0.7,1.1c-0.7,0-0.8-0.6-0.8-1.1c-0.1-1.5-0.1-3.1-0.2-4.6c-0.3-4.1-0.5-8.2-0.8-12.3
		c0-0.6-0.3-1.2-0.4-1.8c-0.1,0-0.3,0-0.4,0c0,0.8,0,1.5,0,2.3c0,0.7,0.2,1.3,0,2c-0.6,2.5-1.1,5-2,7.4c-0.7,2-0.9,4-0.5,6
		c1,4.7,1,9.5,0.8,14.2c-0.2,4.8,0,9.6,0,14.4c0,2.7,0.3,5.4,0.2,8.1c-0.3,6.7-0.9,13.5-1.2,20.2c-0.4,8.2-0.8,16.4-1.2,24.6
		c-0.2,3.1,0.1,3.5,3.3,4.1C147.6,216.3,147.7,216.3,147.8,216.3z M120.9,197.2c0.1-0.1,0.2-0.1,0.3-0.2c0.1-1.7,0.2-3.4,0.3-5
		c0.2-2.5,0.4-5,1.4-7.4c0.6-1.4,0.6-3,0.9-4.5c0.3-1.2,0.6-2.4,0.8-3.6c0.2-1.1,0.6-2.3,0.5-3.4c-0.2-3.5,1.2-6.4,2.6-9.4
		c0.1-0.2,0.6-0.3,1-0.4c0.1,0.3,0.4,0.7,0.3,1c-0.1,0.5-0.4,0.9-0.6,1.4c-1.1,2.5-2.2,4.9-1.9,7.8c0.1,1-0.4,2.1-0.6,3.2
		c-0.2,1.1-0.6,2.3-0.6,3.4c-0.1,2-0.5,3.9-1.3,5.8c-0.4,0.9-0.7,2-0.8,3c-0.3,2.7-0.3,5.4-0.6,8.1c-0.2,1.5,0.3,2.5,1.6,3.4
		c2.2,1.6,3.4,4,4,6.7c0.1,0.4,0.3,0.9,0.4,1.3c0.2,0,0.3-0.1,0.5-0.1c0-1.5,0-2.9,0-4.4c0-1.5,0-3,0.3-4.5c1-3.8,1.3-7.7,1.1-11.7
		c0-0.5-0.1-1.1,0.6-1.2c0.8,0,0.8,0.6,0.9,1.1c0.2,3.8,0,7.5-0.9,11.1c-0.4,1.7-0.4,3.5-0.5,5.2c-0.1,1.1,0,2.3-0.1,3.4
		c-0.2,2-0.2,2,1.6,3c1.1,0.6,2.2,1.2,3.6,0.9c0.5-4.4,1-8.8,1.3-13.2c0.5-6.3,0.8-12.6,1.3-18.9c0.3-4.6,0.9-9.2,0.9-13.8
		c0.1-7.5-0.2-15-0.3-22.6c0-0.1-0.1-0.3-0.1-0.6c-1.3,1.7-2.5,3.3-3.6,4.9c-0.1,0.2-0.1,0.5-0.1,0.7c-0.4,7.8-0.7,15.5-1.1,23.3
		c-0.1,1.1-0.6,2.1-0.9,3.1c-0.3,1.2-0.8,2.3-0.9,3.5c-0.1,2.2,0,4.5,0,6.7c0,0.6,0,1.2-0.8,1.2c-0.8,0-0.7-0.6-0.7-1.1
		c0-2.4-0.1-4.9,0-7.3c0.1-1.3,0.6-2.5,1-3.7c0.2-0.7,0.7-1.4,0.8-2.2c0.4-7.1,0.8-14.2,1.2-21.3c0-0.2-0.1-0.5-0.1-0.6
		c-0.9,0.6-1.8,1.2-2.7,1.6c-0.6,0.2-0.8,0.5-0.9,1c-0.3,2.5-0.5,5.1-0.8,7.6c-0.1,0.5,0,1.1-0.2,1.5c-0.1,0.3-0.5,0.6-0.8,0.9
		c-0.2-0.4-0.7-0.7-0.7-1c0.2-2.5,0.4-5,0.7-7.5c0.1-0.8,0.2-1.5,0.2-2.3c-0.7-0.3-1.4-0.5-2-0.7c-0.7,3.3-1.4,6.5-2,9.8
		c-0.3,1.3-0.3,2.5-0.6,3.8c-0.5,2.1-1.1,4.1-1.7,6.1c-0.9,2.7-1.8,5.4-2.7,8.1c-0.5,1.4-1,2.7-1.3,4.1c-0.5,2.8-0.9,5.6-1.3,8.5
		c0,0.2,0,0.5,0.1,0.6C118.3,193.5,119.6,195.3,120.9,197.2z M142.7,214.2c0-0.1,0.1-0.2,0.1-0.3c0.3-6.7,0.7-13.5,1-20.2
		c0.4-7.9,0.8-15.9,1.2-23.8c0.1-2.8,0.1-5.6,0.1-8.5c0-6-0.2-12-0.1-18c0-3.5,0-6.9-0.5-10.4c-0.2,0.1-0.2,0.2-0.3,0.2
		c-0.1,0.2-0.1,0.3-0.2,0.5c-0.6,2.3-1.8,4.2-3.2,6.1c-0.3,0.4-0.4,0.9-0.4,1.4c0,4.1-0.1,8.3,0,12.4c0,4.9,0.2,9.8,0.2,14.7
		c0,2.3-0.4,4.7-0.6,7c-0.8,10.3-1.6,20.6-2.4,30.9c-0.1,1.9-0.3,3.7-0.4,5.2C139.2,212.4,140.9,213.3,142.7,214.2z M164.5,121.4
		c0,0.5,0,0.7,0,0.9c0,4.8-0.1,9.7,0,14.5c0,1.5,0.1,3.1,0.4,4.6c0.4,2.2,1.1,4.4,1.4,6.6c0.3,1.8,0.3,3.6,0.5,5.5
		c0.4,4.9,0.9,9.8,1.3,14.7c0.2,2.6,0.5,5.2,0.7,8c1.5,0.2,3,0.5,4.3,0.7c-0.2-3.3-0.4-6.5-0.7-9.7c-0.1-1.9-0.2-3.7-0.6-5.6
		c-0.9-5-1.7-9.9-1.5-15c0.2-3.3,0.2-6.5,0.3-9.8c0.1-1.4-0.1-2.8-0.7-4.2c-0.4-1-0.6-2.1-0.8-3.2
		C168.7,126.3,166.9,123.9,164.5,121.4z M178.5,177.3c0-0.3,0-0.7,0-1.1c-0.2-7.8-0.4-15.7-0.6-23.5c0-0.8-0.3-1.6-0.7-2.2
		c-1.2-2.2-2.6-4.2-3.2-6.7c-0.3-1.4-1.2-2.7-1.8-4.1c-0.1,0-0.3,0-0.4,0c0,2.8-0.1,5.6,0,8.5c0.1,3,0.4,6,0.7,9
		c0.2,2,0.7,3.9,0.9,5.9c0.4,3.8,0.5,7.7,0.9,11.5c0.3,3.1,0.8,3.4,4,3C178.4,177.4,178.4,177.4,178.5,177.3z M179.8,153.9
		c-0.1,0.1-0.2,0.1-0.3,0.2c0.2,7.8,0.4,15.5,0.5,23.3c1.4,0.1,2.7,0.2,4.1,0.2c-0.1-1.1-0.2-2.2-0.2-3.2c-0.1-1.8-0.2-3.5-0.1-5.3
		c0-0.3,0.5-0.6,0.8-0.9c0.2,0.3,0.6,0.6,0.7,1c0.2,2.3,0.3,4.5,0.3,6.8c0,1.2,0.1,2.1,1.5,2.4c0.5,0.1,0.9,0.7,1.4,1.1
		c0.3,0.2,0.5,0.5,0.9,0.8c0-0.8,0-1.3,0-1.8c-0.1-2.9-0.4-5.9-0.4-8.8c0-1.5-0.3-2.9-0.9-4.2c-0.9-1.7-1.6-3.5-3.4-4.9
		c0,1,0,1.7,0,2.5c0,0.7,0.2,1.4,0.1,2.1c0,0.3-0.5,0.5-0.7,0.8c-0.2-0.2-0.7-0.5-0.7-0.7c-0.1-1.7-0.4-3.4,0-5
		c0.3-1.5,0-2.5-0.8-3.5C181.8,155.7,180.8,154.8,179.8,153.9z M157.4,225.2c0.1,0,0.2,0,0.3,0.1c0.4-0.8,0.7-1.8,1.3-2.4
		c2.3-2.5,2.3-5.6,2.1-8.7c0-0.5-0.1-1-0.1-1.5c-0.2-4.6-0.8-9.1,0.1-13.7c0-0.2-0.1-0.4-0.1-0.6c-0.4-1.2-0.7-2.5-1.1-3.7
		c-0.6-2-1.4-3.9-2.8-5.6c0,1,0,1.8,0,2.6c0,4.5,0.4,9.1,0,13.6c-0.3,2.8-0.4,5.5-0.3,8.3C156.9,217.5,157.2,221.3,157.4,225.2z
		 M123.4,148.7c-0.3,1-0.6,1.8-0.8,2.7c-0.6,2.3-1.1,4.5-1.6,6.8c-0.5,1.9-0.9,3.8-1.4,5.7c-0.1,0.5-0.1,0.9-0.2,1.4
		c-0.3,1.1-0.3,2.4-0.9,3.3c-1.3,2.1-2.1,4.4-2.7,6.8c-0.7,2.6-1.6,5.2-2.4,7.7c0,0.1-0.1,0.3-0.1,0.4c0.3,2.1,1.1,4.1,2.4,6
		c0.1-0.8,0.2-1.4,0.3-2c0.3-3,0.4-6.1,1.8-8.9c1.7-3.6,2.8-7.4,3.7-11.2c0.5-2,1.1-4,1.5-6.1c0.3-1.4,0.4-2.8,0.7-4.1
		c0.5-2.5,1.1-5,1.6-7.3C124.4,149.4,123.9,149.1,123.4,148.7z M162.7,200.6c-0.2,0.1-0.4,0.2-0.6,0.3c0.2,5.3,0.3,10.6,0.5,15.9
		c0.1,0,0.2,0,0.3,0c1.5-3.1,3.3-6.2,2.7-9.9c-0.2-1-0.2-2.1-0.4-3.2c0-0.2-0.2-0.5-0.3-0.7C164.1,202.2,163.4,201.4,162.7,200.6z
		 M124.8,147.9c0.8,0.3,1.5,0.4,1.9,0.8c2.6,2.3,5.3,1.1,6.9-2.1C130.7,147,127.8,146.9,124.8,147.9z M190.8,171.5
		c-0.1,0-0.2,0.1-0.3,0.1c0.1,2.9,0.2,5.8,0.4,8.7c0,0.2,0.2,0.5,0.4,0.6c0.8,0.3,1.6,0.6,2.4,0.9c0.1-0.1,0.2-0.1,0.3-0.2
		C193,178.2,191.9,174.8,190.8,171.5z M167.2,206.3c0,0.9,0,1.7,0,2.6C168.3,208,168.3,207.7,167.2,206.3z"/>
	<path class="st1" d="M181,193.9c3.7,0.9,7.3,1.6,9.8,4.4c1.6,1.8,3.2,2.6,5.7,2.8c9.2,0.6,18.3,1.3,27.4,2.1
		c1.1,0.1,2.2,0.2,3.2,0.5c0.8,0.3,1.4,0.9,2.1,1.5c0.1,0.1,0.1,0.7-0.1,0.8c-0.2,0.2-0.7,0.2-0.9,0.1c-1.1-1.2-2.6-1.1-4-1.3
		c-5.7-0.5-11.4-0.9-17.1-1.4c-4.2-0.3-8.5-0.5-12.7-1c-1.1-0.1-2.6-0.7-3.3-1.6c-2.5-3.1-5.9-4.4-9.5-5.2c-0.3-0.1-0.6-0.1-0.8-0.2
		c-0.2-0.2-0.5-0.6-0.5-0.9C180.4,194.3,180.8,194.1,181,193.9z"/>
	<path class="st1" d="M214.9,199.5c-2.5,0-4.7-0.6-6.7-2.1c-0.9-0.6-2.1-1-3.3-1.2c-2.4-0.2-4.4-0.9-6.4-2.2c-2.4-1.6-5.2-2.6-7.7-4
		c-2-1.2-3.8-2.7-5.7-4.1c-0.5-0.3-0.9-0.9-0.3-1.3c0.2-0.2,1-0.1,1.3,0.2c3.4,3.4,7.7,5.1,11.9,7.2c0.7,0.4,1.5,0.8,2.1,1.3
		c1,0.9,2.2,1.3,3.5,1.3c2.2,0.1,4.3,0.7,6.1,2c1.8,1.3,4,1.4,6.1,1.4c0.4,0,0.8-0.1,1.2,0c0.3,0.1,0.6,0.4,0.9,0.6
		c-0.3,0.3-0.5,0.7-0.8,0.8C216.4,199.4,215.6,199.4,214.9,199.5z"/>
	<path class="st1" d="M210.5,168.4c-0.3,1.3-0.5,2.6-0.8,3.9c-0.2,1.2-0.1,2.3,0.5,3.4c0.9,1.4,1.7,2.8,2.5,4.2
		c0.3,0.5,0.5,1-0.3,1.3c-0.6,0.2-0.9-0.2-1.1-0.7c-0.6-1.2-1.3-2.4-2-3.5c-1.3-1.8-1.4-3.7-0.8-5.8c0.4-1.2,0.2-2.6,0.2-3.9
		c0-0.4-0.1-0.8,0-1.1c0.1-0.3,0.5-0.5,0.7-0.8c0.3,0.3,0.7,0.5,0.7,0.8c0.1,0.7,0,1.5,0,2.2C210.3,168.4,210.4,168.4,210.5,168.4z"
		/>
	<path class="st1" d="M173.5,252.2c-0.2-0.5-0.6-1.1-0.4-1.2c0.5-0.6,1.1-1.4,1.7-1.4c1.2,0,1.6-0.7,2.2-1.5c1.4-1.9,3-3.7,4.5-5.5
		c0.1-0.1,0.3-0.3,0.4-0.3c0.4,0,0.8,0,1.2,0c0,0.4,0.1,0.9-0.1,1.1c-0.7,0.8-1.5,1.4-2.2,2.2c-1,1.2-1.9,2.5-2.8,3.8
		c-0.7,1-1.4,1.8-2.7,1.7c-0.2,0-0.5,0.3-0.8,0.5C174.2,251.7,174,251.9,173.5,252.2z"/>
	<path class="st1" d="M202.3,159.2c0.2,1.4-0.3,2.8-1.3,4.2c-1.1,1.6-1.8,3.4-1.6,5.5c0,0.4-0.4,0.7-0.7,1.1
		c-0.3-0.4-0.7-0.7-0.8-1.1c-0.2-2,0.2-4,1.4-5.6c1.2-1.5,1.5-3.2,1.4-5c0-0.7-0.3-1.7,0.7-1.8c1.1,0,0.7,1.1,0.7,1.7
		C202.3,158.4,202.3,158.7,202.3,159.2z"/>
	<path class="st1" d="M138,221.1c-0.3,0.6-0.5,1.2-0.9,1.5c-1.4,1.3-2.8,2.6-4.2,3.9c-1,0.9-2,1.9-3,2.8c-0.2,0.2-0.6,0.2-0.9,0.3
		c-0.1-0.3-0.4-0.8-0.3-1c0.6-0.9,1.3-1.8,2.1-2.5c1.5-1.3,3.1-2.5,4.6-3.9c0.4-0.4,0.6-1.1,1-1.6c0.2-0.2,0.6-0.5,0.9-0.4
		C137.5,220.4,137.7,220.8,138,221.1z"/>
	<path class="st1" d="M174.8,139.8c0.4-0.4,0.6-0.7,0.9-0.9c0.3,0.3,0.7,0.5,0.9,0.9c0.4,0.7,0.8,1.4,1.2,2.1c0.2,0.4,0.6,0.7,0.9,1
		c1.1,1.1,2.2,2.1,3.2,3.3c0.2,0.2,0.2,0.7,0.3,1.1c-0.4,0-0.9,0.2-1.1,0.1c-0.7-0.4-1.4-1-2-1.6c-1.1-1.1-2.1-2.3-3.1-3.6
		C175.4,141.5,175.2,140.7,174.8,139.8z"/>
	<path class="st1" d="M220.3,250.2c-0.2,0.2-0.4,0.5-0.7,0.6c-0.3,0-0.6-0.1-0.8-0.4c-1.6-2-3.2-3.9-4.8-6c-0.2-0.3-0.2-0.8-0.2-1.2
		c0.4,0.1,1-0.1,1.2,0.2c1.7,1.9,3.2,3.8,4.8,5.8C220.1,249.4,220.2,249.8,220.3,250.2z"/>
	<path class="st1" d="M219.5,168.9c0.4,0.5,0.6,0.8,0.8,1.1c0.5,0.6,0.9,1.2,1.4,1.7c0.9,0.9,1.8,1.7,2.6,2.6
		c0.2,0.2-0.1,0.7-0.1,1.1c-0.4-0.1-0.8,0-1-0.2c-1.1-0.9-2.1-1.9-3.2-2.8c-0.8-0.6-1.2-1.4-1.1-2.4
		C218.9,169.7,219.2,169.5,219.5,168.9z"/>
	<path class="st1" d="M231.7,153.5c-0.5,0.1-1,0.3-1.3,0.2c-0.5-0.2-0.9-0.6-1.3-1c-0.9-0.9-1.7-0.8-2.7-0.3
		c-0.5,0.3-1.2,1.2-1.7,0.2c-0.5-1,0.6-1.2,1.2-1.5c2.1-1.1,4.2-0.5,5.6,1.5C231.5,152.8,231.5,153,231.7,153.5z"/>
	<path class="st1" d="M233.8,168c0,0.6,0.2,1.5,0.1,2.3c0,0.4-0.5,0.8-0.7,1.1c-0.2-0.4-0.6-0.7-0.7-1.1c-0.1-1.7-0.2-3.4-0.1-5
		c0-0.4,0.4-1,0.7-1.1c0.8-0.1,0.7,0.6,0.8,1.1C233.8,166.2,233.8,167,233.8,168z"/>
	<path class="st1" d="M202.9,130.7c0.9,0.1,2,0.1,3,0.3c0.3,0.1,0.6,0.5,0.9,0.7c-0.3,0.2-0.6,0.7-0.9,0.7c-1.7,0-3.5-0.1-5.2-0.3
		c-0.3,0-0.7-0.4-0.7-0.6c0.1-0.3,0.4-0.8,0.6-0.8C201.2,130.6,201.9,130.7,202.9,130.7z"/>
	<path class="st1" d="M221.5,142.9c1.8,0.6,3.4,1.2,4.9,1.8c0.3,0.1,0.4,0.7,0.5,1.1c-0.4,0.1-0.8,0.3-1.1,0.3
		c-1.5-0.4-2.9-0.9-4.3-1.4c-0.4-0.1-0.7-0.6-0.8-0.9C220.6,143.6,221.2,143.2,221.5,142.9z"/>
	<path class="st1" d="M240.7,178.5c-0.1,0-0.5,0.3-0.8,0.2c-0.3,0-0.8-0.2-0.8-0.5c-0.4-1.5-0.8-3-1.1-4.6c0-0.2,0.3-0.7,0.5-0.8
		c0.2-0.1,0.8,0.2,0.8,0.4C239.8,174.9,240.2,176.4,240.7,178.5z"/>
	<path class="st1" d="M150.6,138.3c0-1.3,0-2.6,0-3.9c0-0.4,0.4-0.7,0.7-1c0.3,0.3,0.7,0.7,0.7,1c0.1,2.7,0.2,5.4,0.2,8.1
		c0,0.4-0.4,0.9-0.6,1c-0.7,0.2-0.8-0.5-0.8-1c0-1.4,0-2.8,0-4.2C150.8,138.3,150.7,138.3,150.6,138.3z"/>
</g>
<g>
	<path class="st1" d="M100.6,313.4l6.4-15.7h4.5l-8.9,19.7V329h-3.9v-11.7l-8.9-19.7h4.5L100.6,313.4z"/>
	<path class="st1" d="M135.3,316.1c0,4.3-0.9,7.6-2.7,9.9c-1.8,2.3-4.4,3.5-7.8,3.5c-3.2,0-5.8-1.1-7.7-3.4
		c-1.9-2.2-2.8-5.4-2.9-9.5v-5.9c0-4.2,0.9-7.5,2.8-9.8s4.4-3.6,7.7-3.6c3.3,0,5.9,1.1,7.7,3.4s2.8,5.5,2.8,9.7V316.1z M131.4,310.6
		c0-3.3-0.5-5.8-1.6-7.4s-2.7-2.4-5-2.4c-2.2,0-3.8,0.8-4.9,2.5c-1.1,1.6-1.7,4-1.7,7.2v5.6c0,3.2,0.6,5.6,1.7,7.3
		c1.1,1.7,2.8,2.5,5,2.5s3.8-0.8,4.9-2.3c1.1-1.5,1.6-3.9,1.7-7.1V310.6z"/>
	<path class="st1" d="M155.1,321c0-1.6-0.4-2.8-1.3-3.6c-0.8-0.8-2.4-1.6-4.6-2.4c-2.2-0.8-3.9-1.6-5.1-2.5s-2-1.9-2.6-3
		c-0.6-1.1-0.9-2.4-0.9-3.8c0-2.5,0.8-4.5,2.5-6.1c1.7-1.6,3.8-2.4,6.5-2.4c1.8,0,3.5,0.4,4.9,1.2c1.4,0.8,2.5,2,3.3,3.4
		c0.8,1.5,1.2,3.1,1.2,4.8h-4c0-1.9-0.5-3.4-1.4-4.5c-0.9-1.1-2.3-1.6-4-1.6c-1.6,0-2.8,0.4-3.7,1.3c-0.9,0.9-1.3,2.1-1.3,3.8
		c0,1.3,0.5,2.4,1.4,3.3c0.9,0.9,2.4,1.7,4.4,2.4c3.1,1,5.3,2.3,6.6,3.8s2,3.4,2,5.9c0,2.5-0.8,4.6-2.5,6.1
		c-1.6,1.5-3.9,2.3-6.7,2.3c-1.8,0-3.5-0.4-5-1.2c-1.5-0.8-2.8-1.9-3.6-3.4s-1.3-3.1-1.3-5h4c0,1.9,0.5,3.4,1.6,4.5s2.6,1.6,4.4,1.6
		c1.7,0,3-0.4,3.9-1.3C154.7,323.8,155.1,322.6,155.1,321z"/>
	<path class="st1" d="M179.3,314.5h-11.1v11.1h12.9v3.4h-16.9v-31.3h16.6v3.4h-12.7v10.1h11.1V314.5z"/>
	<path class="st1" d="M191.2,297.6l8.2,25.6l8.2-25.6h5.1V329h-3.9v-12.2l0.4-12.2l-8.2,24.4h-3l-8.2-24.3l0.4,12.1V329h-3.9v-31.3
		H191.2z"/>
	<path class="st1" d="M223.6,329h-3.9v-31.3h3.9V329z"/>
	<path class="st1" d="M248.8,301h-8.2v28h-3.9v-28h-8.2v-3.4h20.4V301z"/>
	<path class="st1" d="M268.4,314.5h-11.1v11.1h12.9v3.4h-16.9v-31.3h16.6v3.4h-12.7v10.1h11.1V314.5z"/>
</g>
</svg>
