<?xml version="1.0" encoding="utf-8"?>
<!-- Generator: Adobe Illustrator 22.1.0, SVG Export Plug-In . SVG Version: 6.00 Build 0)  -->
<svg version="1.1" id="Layer_1" xmlns="http://www.w3.org/2000/svg" xmlns:xlink="http://www.w3.org/1999/xlink" x="0px" y="0px"
	 viewBox="0 0 360 360" style="enable-background:new 0 0 360 360;" xml:space="preserve">
<style type="text/css">
	.st0{fill:#2AAAE2;}
	.st1{fill:#E6E6E5;}
</style>
<rect class="st0" width="360" height="360"/>
<g>
	<path class="st1" d="M156,232c0.6,0,1,0,1.3,0c13.2,0,26.3,0,39.5,0c0.4,0,0.7,0,1.1,0.1c0.8,0.2,1.2,0.8,1.3,1.6
		c0,0.8-0.3,1.3-1.1,1.6c-0.4,0.1-0.8,0.2-1.3,0.2c-14.3,0-28.6,0-43,0c-2.1,0-2.8-1.1-1.9-3.1c3.6-7.6,9.2-13.1,17.2-16.1
		c0.2-0.1,0.3-0.1,0.4-0.2c0,0,0-0.1,0.1-0.1c-1.1-2.6-2.3-5.1-3.4-7.8c-5.1-12.9-5-25.7,0.2-38.5c0.1-0.4,0.3-0.7,0.5-1.3
		c-2,0.3-3.8,0.5-5.6,0.8c-3.2,0.6-6.2,1.7-8.7,3.9c-0.7,0.6-1.4,0.7-2.2,0.1c-0.8-0.5-0.9-1.3-0.6-2.1c1.8-4.9,4.6-9.2,9.1-12.2
		c1.6-1.1,3.4-1.8,5.3-2.9c-2.2-0.5-4.3-1-6.4-1.3c-6.3-1-12.5-0.2-18.7,1.2c-0.9,0.2-1.7,0.4-2.6,0.6c-0.8,0.2-1.5-0.1-1.9-0.8
		c-0.4-0.7-0.3-1.5,0.2-2.1c3.2-3.5,6.7-6.7,10.9-8.9c4.7-2.5,9.8-3.9,15.1-4.2c0.1,0,0.2,0,0.3-0.3c-1.7-0.4-3.4-0.9-5.2-1.3
		c-4.2-0.9-8.4-1-12.7-1.1c-0.6,0-1.2-0.3-1.6-0.6c-0.7-0.7-0.4-1.9,0.5-2.5c8.1-5.5,17-8.3,26.8-6.7c0.3,0,0.5,0.1,0.8,0.1
		c0.1,0,0.2,0,0.6-0.1c-1.8-1.4-3.4-2.7-5.1-3.8c-1.9-1.2-4-2.3-6-3.4c-1.1-0.6-1.5-1.2-1.3-2.1c0.2-0.9,0.9-1.3,2.1-1.4
		c3-0.2,6.1-0.5,9.1-0.1c6.4,1,12,3.7,16.7,8.1c2.3,2.2,4.2,4.7,5.7,7.5c0.3,0.6,0.7,0.7,1.4,0.6c12.6-1.8,22.5,2.5,30.1,12.7
		c0.6,0.8,1.1,1.6,1.7,2.4c0.6,0.9,0.7,1.9,0.1,2.6c-0.7,0.7-1.5,0.5-2.3,0.2c-3.7-1.7-7.5-3.3-11.6-4c-0.2,0-0.5-0.1-0.7-0.1
		c-0.1,0-0.2,0-0.5,0.1c1.2,1.2,2.4,2.2,3.4,3.3c4.7,5.3,7.5,11.6,8.5,18.7c0.2,1.2,0.3,2.4,0.5,3.6c0.2,1.1-0.2,1.9-1,2.2
		c-0.9,0.4-1.6,0-2.2-0.7c-1.2-1.4-2.3-2.8-3.5-4.2c-2.7-3.1-5.7-5.7-9.1-8c-0.1-0.1-0.2-0.1-0.6-0.3c0.3,0.5,0.5,0.8,0.7,1.1
		c4.8,7.2,6.8,15.1,6,23.7c-0.1,1.3-0.3,2.6-0.4,3.9c-0.1,0.9-0.4,1.6-1.3,1.7c-1,0.2-1.6-0.4-2-1.2c-1.1-2.2-2.1-4.4-3.2-6.5
		c-3.2-5.8-7.4-10.8-12.9-14.6c-0.2-0.1-0.4-0.2-0.6-0.4c0.3,1.6,0.7,3,0.9,4.6c0.7,5-0.2,9.6-2.6,14c-0.3,0.6-0.7,1.2-1,1.8
		c-0.4,0.8-1,1.3-2,1.1c-1-0.2-1.3-0.9-1.4-1.9c-0.2-2-0.5-3.9-1-5.9c-0.2-0.9-0.8-1.8-1.2-2.7c-0.5-1.1-0.2-2.1,0.7-2.5
		c0.9-0.4,1.9-0.1,2.4,1.1c0.6,1.4,1.2,2.7,2,4.2c0.3-1.5,0.7-3,0.8-4.6c0.3-3.5-0.4-6.9-1.9-10.1c-0.8-1.7-0.5-3,0.9-3.7
		c0.9-0.5,1.7-0.3,2.6,0.2c6.1,3.5,11.1,8.3,15,14.2c1.1,1.6,2,3.3,3.1,5c0.2-2.8-0.1-5.4-0.6-7.9c-1.7-7.8-5.8-14.2-12.1-19.1
		c-1.2-0.9-1.6-1.8-1.1-2.6c0.5-0.9,1.5-1.1,2.9-0.5c7.3,2.7,13.5,7.1,18.9,12.8c0.2,0.2,0.4,0.5,0.8,0.9c-0.7-3.3-1.7-6.2-3.2-9
		c-2.7-5-6.4-9-11.1-12.1c-0.4-0.3-0.9-0.6-1.1-0.9c-0.7-1.1,0.2-2.5,1.6-2.5c4.6,0,9,0.7,13.3,2.2c0.3,0.1,0.6,0.2,1.1,0.3
		c-3.2-3.7-6.9-6.1-11.2-7.7c-4.9-1.9-9.9-2.1-15.1-1c-1.9,0.4-2.2,0.3-3-1.4c-3.7-7.5-9.6-12.2-17.7-14.4c-1.1-0.3-2.2-0.4-3.4-0.6
		c-0.6-0.1-1.2-0.1-1.9,0c0.3,0.2,0.6,0.4,0.9,0.6c3.7,2.4,7,5.2,9.7,8.7c0.4,0.5,0.7,1.3,0.6,1.9c-0.1,1-1.2,1.4-2.4,1
		c-3.8-1.3-7.7-1.9-11.7-1.8c-4.6,0.1-9.1,1.2-13.3,3.2c-0.2,0.1-0.3,0.2-0.6,0.4c1.5,0.2,2.9,0.3,4.2,0.5c6.7,0.9,13,3.1,18.9,6.6
		c0.5,0.3,1,0.8,1.2,1.3c0.4,1.3-0.8,2.2-2.2,1.9c-1.3-0.3-2.7-0.7-4-0.8c-9.1-1.1-17.3,1-24.6,6.7c-0.3,0.2-0.5,0.5-1,0.9
		c2-0.3,3.7-0.6,5.4-0.7c7.3-0.7,14.3,0.2,21.1,2.9c1.1,0.4,1.7,1.4,1.6,2.6c-0.1,1.1-0.8,1.9-2.1,2.2c-5.2,1-9.2,3.7-12.1,8
		c-0.1,0.1-0.1,0.2-0.2,0.4c0.2,0,0.4,0,0.5,0c3.9-1.4,8-1.9,12.1-2.3c0.3,0,0.7-0.2,1-0.1c0.6,0.1,1.5,0.2,1.8,0.6
		c0.3,0.5,0.3,1.4,0.1,2c-0.8,2.2-1.9,4.2-2.7,6.4c-4,11.9-3.4,23.6,1.6,35.1c1.1,2.4,2.1,4.9,3.2,7.3c0.6,1.5,0.2,2.2-1.3,2.7
		c-6.8,2.2-12.2,6.3-15.8,12.7C156.2,231.6,156.2,231.7,156,232z"/>
	<path class="st1" d="M182.8,214.8c-1.6-3.3-3.5-6.5-4.8-10c-4-10.5-4-21-0.2-31.6c0.4-1.1,1.3-1.6,2.3-1.3c0.9,0.3,1.3,1.3,0.9,2.4
		c-1.6,4.3-2.4,8.8-2.5,13.3c-0.2,7.1,1.3,13.9,4.7,20.2c1.3,2.5,3,4.9,4.6,7.3c0.2,0.3,0.6,0.5,0.9,0.7c8.1,2.7,14,8,17.9,15.5
		c0.3,0.5,0.6,0.7,1.1,0.7c4.7,0,9.4,0,14.1,0c1.2,0,1.8,0.5,2,1.6c0.2,1.2-0.6,2.1-2,2.1c-2,0-3.9,0-5.9,0c-3.2,0-6.5,0-9.7,0
		c-1.1,0-1.8-0.4-2.3-1.5c-4.3-9.4-11.6-14.7-21.7-16.1c-0.9-0.1-1.8-0.1-2.7-0.2c-1.1-0.1-1.8-0.8-1.8-1.7c0-0.9,0.7-1.6,1.7-1.7
		C180.6,214.7,181.8,214.8,182.8,214.8z"/>
	<path class="st1" d="M163.6,243c-6.5,0-12.9,0-19.4,0c-1.6,0-2.4-0.5-2.4-1.7c0-1.1,0.9-1.7,2.5-1.7c12.9,0,25.7,0,38.6,0
		c0.1,0,0.3,0,0.4,0c1.4,0,2.2,0.7,2.2,1.7c0,1.1-0.7,1.7-2.1,1.7C176.8,243,170.2,243,163.6,243z"/>
	<path class="st1" d="M207.1,243c-2.7,0-5.4,0-8.1,0c-1.6,0-2.5-1.4-1.6-2.5c0.3-0.4,1-0.8,1.6-0.8c5.4-0.1,10.8,0,16.2,0
		c1.1,0,1.9,0.8,1.9,1.7c0,1-0.7,1.6-1.9,1.6C212.5,243,209.8,243,207.1,243z"/>
	<path class="st1" d="M140.9,235.6c-1.3,0-2.6,0-3.9,0c-1.3,0-2-0.6-2-1.7c0-1,0.7-1.7,2-1.7c2.6,0,5.3,0,7.9,0c1.2,0,2,0.7,2,1.7
		c0,1-0.8,1.7-2,1.7C143.6,235.6,142.2,235.6,140.9,235.6z"/>
</g>
<g>
	<path class="st1" d="M157.1,300.6c0,3.5-0.7,6.2-2.2,8.1s-3.6,2.8-6.3,2.8c-2.6,0-4.7-0.9-6.2-2.8s-2.3-4.4-2.4-7.8v-4.8
		c0-3.4,0.8-6.1,2.3-8s3.6-2.9,6.3-2.9c2.7,0,4.8,0.9,6.3,2.8s2.3,4.5,2.3,8V300.6z M153.9,296.1c0-2.7-0.4-4.7-1.3-6s-2.2-2-4.1-2
		c-1.8,0-3.1,0.7-4,2s-1.4,3.3-1.4,5.9v4.6c0,2.6,0.5,4.6,1.4,6s2.3,2.1,4.1,2.1s3.1-0.6,4-1.9s1.3-3.2,1.4-5.8V296.1z"/>
	<path class="st1" d="M173.7,304.4H165l-2,6.7h-3.3l8.2-25.6h2.8l8.3,25.6h-3.3L173.7,304.4z M165.9,301.7h7l-3.5-11.6L165.9,301.7z
		"/>
	<path class="st1" d="M199.2,311.1H196v-11.8h-10.3v11.8h-3.2v-25.6h3.2v11H196v-11h3.2V311.1z"/>
	<path class="st1" d="M220.1,285.5v18.2c0,2.4-0.7,4.3-2.1,5.7s-3.3,2.1-5.8,2.1c-2.5,0-4.5-0.7-5.8-2s-2-3.3-2-5.7v-18.2h3.2v18.1
		c0,1.7,0.4,3,1.1,3.9s1.9,1.3,3.5,1.3c1.6,0,2.8-0.4,3.6-1.3s1.1-2.1,1.1-3.9v-18.1H220.1z"/>
</g>
</svg>
