<?xml version="1.0" encoding="utf-8"?>
<!-- Generator: Adobe Illustrator 22.1.0, SVG Export Plug-In . SVG Version: 6.00 Build 0)  -->
<svg version="1.1" id="Layer_1" xmlns="http://www.w3.org/2000/svg" xmlns:xlink="http://www.w3.org/1999/xlink" x="0px" y="0px"
	 viewBox="0 0 360 144" style="enable-background:new 0 0 360 144;" xml:space="preserve">
<style type="text/css">
	.st0{fill:#E6E7E8;}
</style>
<g>
	<polygon class="st0" points="126.2,118.7 16.3,118.7 50.8,39.1 67.1,76.6 76.7,54.7 91.8,89.4 113.3,39.8 102.6,39.8 102.5,39.8 
		102.5,39.8 91.8,64.5 76.7,29.9 67.1,51.9 50.7,14.3 0.7,129.7 141.7,129.7 120.8,81.6 110,81.6 	"/>
	<polygon class="st0" points="108,52.2 107.9,52.2 102.4,64.9 	"/>
	<path class="st0" d="M133.2,40.2h-10.4L109,71.7h1.3h6.2h3.3l2.1-5.5h12l2.1,5.5h11L133.2,40.2z M124.8,58.6l3.1-7.9l3.1,7.9H124.8
		z"/>
	<polygon class="st0" points="154.8,71.7 165.4,71.7 165.4,60.3 177.3,40.2 167,40.2 160.5,51.1 154.1,40.2 142.9,40.2 154.8,60.2 	
		"/>
	<polygon class="st0" points="202.4,53.6 189.3,53.6 189.3,48.2 204.3,48.2 204.3,40.2 178.6,40.2 178.6,71.7 189.3,71.7 
		189.3,61.7 202.4,61.7 	"/>
	<path class="st0" d="M227.3,40.2h-10.4l-13.8,31.5h10.8l2.1-5.5h12l2.1,5.5h11L227.3,40.2z M218.9,58.6l3.1-7.9l3.1,7.9H218.9z"/>
	<path class="st0" d="M266.4,62c1.9-1,3.4-2.3,4.4-4c1-1.7,1.5-3.6,1.5-5.9c0-2.4-0.6-4.5-1.8-6.3c-1.2-1.8-2.8-3.2-5-4.1
		c-2.2-1-4.7-1.4-7.6-1.4h-15.2v31.5h10.6v-7.9h2.9l5.4,7.9H273L266.4,62z M260.5,54.8c-0.7,0.6-1.8,1-3.2,1h-3.9v-7.4h3.9
		c1.4,0,2.5,0.3,3.2,1c0.7,0.6,1.1,1.6,1.1,2.7C261.6,53.3,261.3,54.2,260.5,54.8z"/>
	<rect x="276.3" y="40.2" class="st0" width="10.6" height="31.5"/>
	<polygon class="st0" points="312.8,54.5 300.8,40.2 292.1,40.2 292.1,71.7 302.5,71.7 302.5,57.4 314.4,71.7 323.2,71.7 
		323.2,40.2 312.8,40.2 	"/>
	<path class="st0" d="M349.1,63.1c-1.2,0.5-2.5,0.8-3.9,0.8c-2.3,0-4.1-0.7-5.5-2.2c-1.4-1.4-2-3.3-2-5.7c0-2.4,0.7-4.4,2.1-5.8
		c1.4-1.4,3.2-2.1,5.6-2.1c2.7,0,5.1,1.2,7.1,3.5l6.8-6c-1.6-2-3.7-3.5-6.1-4.5c-2.4-1-5.2-1.6-8.3-1.6c-3.4,0-6.5,0.7-9.2,2.1
		c-2.7,1.4-4.8,3.3-6.3,5.9c-1.5,2.5-2.3,5.4-2.3,8.5c0,3.2,0.8,6,2.3,8.5c1.5,2.5,3.6,4.5,6.3,5.9c2.7,1.4,5.7,2.1,9.1,2.1
		c2.4,0,4.8-0.3,7.2-1c2.5-0.7,4.6-1.7,6.5-3V55.1h-9.2V63.1z"/>
	<polygon class="st0" points="171.9,92.4 170.5,81.7 168.1,81.7 162.3,92.3 161,81.7 158.4,81.7 160.2,95.7 163,95.7 168.6,85.4 
		170,95.7 172.8,95.7 180.2,81.7 177.6,81.7 	"/>
	<path class="st0" d="M201.8,82.2c-1-0.5-2.2-0.7-3.6-0.7c-1.7,0-3.2,0.4-4.5,1.1s-2.3,1.7-3,3c-0.7,1.3-1.1,2.7-1.1,4.3
		c0,1.2,0.3,2.2,0.8,3.1c0.5,0.9,1.3,1.6,2.3,2.1c1,0.5,2.2,0.7,3.6,0.7c1.7,0,3.2-0.4,4.5-1.1c1.3-0.7,2.3-1.7,3-3
		c0.7-1.3,1.1-2.7,1.1-4.3c0-1.2-0.3-2.2-0.8-3.1C203.5,83.4,202.8,82.7,201.8,82.2z M201.5,90.6c-0.5,0.9-1.1,1.6-2,2.2
		c-0.9,0.5-1.9,0.8-3,0.8c-1.4,0-2.4-0.3-3.2-1c-0.7-0.7-1.1-1.6-1.1-2.8c0-1.1,0.2-2.1,0.7-3c0.5-0.9,1.1-1.6,2-2.2
		c0.9-0.5,1.9-0.8,3-0.8c1.4,0,2.4,0.3,3.2,1c0.8,0.7,1.1,1.6,1.1,2.8C202.3,88.7,202,89.7,201.5,90.6z"/>
	<path class="st0" d="M228.3,82.8c-0.9-0.7-2.2-1.1-3.9-1.1h-5.4l-2.8,14h2.6l0.8-4.1h3.5h0l2.3,4.1h2.8l-2.5-4.4
		c1.3-0.4,2.3-1,3-1.9c0.7-0.9,1.1-2.1,1.1-3.4C229.6,84.6,229.2,83.5,228.3,82.8z M226,88.6c-0.7,0.6-1.7,0.8-2.9,0.8H220l1.1-5.5
		h3c1,0,1.7,0.2,2.2,0.6c0.5,0.4,0.8,0.9,0.8,1.7C227,87.2,226.7,88,226,88.6z"/>
	<polygon class="st0" points="246.1,81.7 243.5,81.7 240.7,95.7 250.6,95.7 251,93.5 243.7,93.5 	"/>
	<path class="st0" d="M274.7,82.4c-1-0.5-2.2-0.7-3.6-0.7h-5.6l-2.8,14h6.5c1.7,0,3.2-0.3,4.6-1c1.3-0.7,2.3-1.6,3.1-2.9
		c0.7-1.2,1.1-2.7,1.1-4.3c0-1.2-0.3-2.2-0.8-3.1C276.5,83.5,275.7,82.9,274.7,82.4z M274.5,90.6c-0.5,0.9-1.2,1.6-2.1,2.1
		c-0.9,0.5-2,0.8-3.2,0.8h-3.6l1.9-9.6h3.2c1.5,0,2.6,0.3,3.3,1c0.8,0.7,1.1,1.6,1.1,2.7C275.2,88.7,275,89.7,274.5,90.6z"/>
</g>
</svg>
